<svg xmlns="http://www.w3.org/2000/svg"
  width="183"
  height="189"
  fill="none"
  viewBox="0 0 183 189">
  <path fill="#00AA6D"
    d="M178 100.43c0 30.517-15.518 57.421-39.148 73.311-.318-.105-.6-.21-.917-.28a43.773 43.773 0 0 1-2.292-.807c-.318-.105-.635-.246-.953-.351a103.909 103.909 0 0 1-6.419-2.736c-.705-.316-1.375-.666-2.08-.982-.671-.351-1.376-.702-2.046-1.052-.317-.176-.635-.316-.917-.491a93.153 93.153 0 0 1-10.686-6.77c-1.199-.912-2.399-1.789-3.598-2.771-23.1-18.556-37.314-47.46-35.727-79.17v-.772s.036 0 .07.035c4.41 8.7 20.35 38.41 42.887 59.632a73.615 73.615 0 0 0 1.446-11.576c1.411-28.132-12.449-53.493-34.316-68.155a84.468 84.468 0 0 0-5.678-3.472c-2.222-1.263-4.514-2.35-6.877-3.403l-.741-.316c-.388.456-.74.947-1.093 1.474a74.593 74.593 0 0 0-5.926 9.576 76.753 76.753 0 0 0-8.64 31.85c-.776 15.504 3.103 30.166 10.369 42.654 8.429 14.487 21.478 26.062 37.243 32.692 2.398.982 4.832 1.894 7.336 2.631.705.245 1.446.421 2.151.631.706.211 1.446.386 2.187.561.388.106.776.211 1.164.281 1.446.316 2.927.596 4.408.877.388.07.812.14 1.2.21 2.645.351 5.29.667 8.005.807.671.035 1.341.07 2.011.07h.035c.529 0 1.058.035 1.587.035h2.539a95.431 95.431 0 0 0 3.245-.175C123.828 183.668 107.04 189 88.982 189 39.853 189 0 149.363 0 100.5S39.853 12 88.982 12s88.983 39.637 88.983 88.5l.035-.07Z" />
  <path fill="#FF4F03"
    d="M183 39c0 21.54-17.461 39-39 39s-39-17.46-39-39c0-21.539 17.461-39 39-39s39 17.461 39 39Z" />
</svg>
