<svg width="178"
    height="177"
    viewBox="0 0 178 177"
    fill="none"
    xmlns="http://www.w3.org/2000/svg">
    <path d="M178 88.4298C178 118.947 162.482 145.851 138.852 161.741C138.534 161.636 138.252 161.531 137.935 161.461C137.159 161.215 136.383 160.935 135.643 160.654C135.325 160.549 135.008 160.408 134.69 160.303C132.504 159.461 130.387 158.549 128.271 157.567C127.566 157.251 126.896 156.901 126.191 156.585C125.52 156.234 124.815 155.883 124.145 155.533C123.828 155.357 123.51 155.217 123.228 155.042C119.49 153.007 115.927 150.762 112.542 148.272C111.343 147.36 110.143 146.483 108.944 145.501C85.8435 126.945 71.6303 98.0409 73.2173 66.3311V65.5594C73.2173 65.5594 73.2526 65.5594 73.2878 65.5945C77.6964 74.2936 93.6378 104.004 116.174 125.226C116.95 121.473 117.444 117.579 117.62 113.65C119.031 85.5184 105.171 60.1575 83.3041 45.4951C81.4701 44.2674 79.5657 43.1099 77.6259 42.0225C75.404 40.7597 73.1115 39.6723 70.7485 38.62C70.5016 38.5148 70.2548 38.4096 70.0079 38.3043C69.62 38.7604 69.2673 39.2515 68.9146 39.7776C66.6927 42.8294 64.7177 46.0213 62.9895 49.3537C57.9814 58.9298 54.913 69.7336 54.3487 81.2039C53.5728 96.7081 57.4523 111.37 64.7176 123.858C73.1468 138.345 86.1961 149.92 101.961 156.55C104.359 157.532 106.793 158.444 109.297 159.181C110.002 159.426 110.743 159.602 111.448 159.812C112.154 160.023 112.894 160.198 113.635 160.373C114.023 160.479 114.411 160.584 114.799 160.654C116.245 160.97 117.726 161.25 119.207 161.531C119.595 161.601 120.019 161.671 120.407 161.741C123.052 162.092 125.697 162.408 128.412 162.548C129.083 162.583 129.753 162.618 130.423 162.618H130.458C130.987 162.618 131.516 162.653 132.045 162.653C132.892 162.653 133.738 162.653 134.584 162.653C135.678 162.618 136.771 162.548 137.829 162.478C123.828 171.668 107.04 177 88.9823 177C39.8534 177 0 137.363 0 88.4999C0 39.6373 39.8534 0 88.9823 0C138.111 0 177.965 39.6373 177.965 88.4999L178 88.4298Z"
        fill="#00AA6D" />
</svg>
