<svg width="1920"
    height="1031"
    viewBox="0 0 1920 1031"
    fill="none"
    xmlns="http://www.w3.org/2000/svg">
    <g clip-path="url(#clip0_78_10273)">
        <path d="M1682.46 361.01L1658.36 321.75L1637.79 385.95L1647.12 380.74L1645.95 442.29L1668.94 436.93L1669.43 368.28L1682.46 361.01Z"
            fill="#49A96C" />
        <path d="M13.9302 690.8H1970.7"
            stroke="#006EFF"
            stroke-width="3"
            stroke-miterlimit="10" />
        <path d="M539.18 691.04L-32.1499 952.78"
            stroke="#006EFF"
            stroke-width="3"
            stroke-miterlimit="10" />
        <path d="M771.72 690.8L319.24 1017.08"
            stroke="#006EFF"
            stroke-width="3"
            stroke-miterlimit="10" />
        <path d="M950.19 694.86L873.89 1035.11"
            stroke="#006EFF"
            stroke-width="3"
            stroke-miterlimit="10" />
        <path d="M1122.26 692.46L1367.73 1009.67"
            stroke="#006EFF"
            stroke-width="3"
            stroke-miterlimit="10" />
        <path d="M1363.18 691.04L1927.81 1017.08"
            stroke="#006EFF"
            stroke-width="3"
            stroke-miterlimit="10" />
        <path d="M-73.8999 869.4H2074.47"
            stroke="#006EFF"
            stroke-width="3"
            stroke-miterlimit="10" />
        <path d="M-28.96 754.62H2003.97"
            stroke="#006EFF"
            stroke-width="3"
            stroke-miterlimit="10" />
        <path d="M1778.03 233.48L1759.7 203.53L1743.17 259.82L1750.77 254.08L1749.82 306.18L1767.88 297.23L1768.25 240.87L1778.03 233.48Z"
            fill="url(#paint0_linear_78_10273)" />
        <path d="M1788.12 182.34L1846.75 137.14V969.35L1788.12 925.93V182.34Z"
            fill="url(#paint1_linear_78_10273)" />
        <path d="M1852.98 9.61998L1929.3 -44.27V1030.47L1852.98 973.96V9.61998Z"
            fill="url(#paint2_linear_78_10273)" />
        <path d="M1736.2 330.51L1782.53 306.18V921.79L1736.2 887.48V330.51Z"
            fill="url(#paint3_linear_78_10273)" />
        <path d="M1693.42 484.5L1730.81 477.25V883.49L1693.42 855.81V484.5Z"
            fill="url(#paint4_linear_78_10273)" />
        <path d="M1658.12 605.27L1688.9 608.98V852.46L1658.12 829.67V605.27Z"
            fill="url(#paint5_linear_78_10273)" />
        <path d="M1628.19 720.83L1653.9 733.16V826.54L1628.19 807.5V720.83Z"
            fill="url(#paint6_linear_78_10273)" />
        <path d="M1929.3 78.2801C1922.53 77.7401 1915.71 77.8001 1908.95 78.5001C1902.2 79.2701 1895.52 80.6401 1889.06 82.7401C1876.12 86.8801 1864.14 93.7201 1853.48 102.09C1842.8 110.47 1833.35 120.34 1824.83 130.89C1816.28 141.44 1808.7 152.73 1801.61 164.3C1787.48 187.5 1775.6 211.99 1764.34 236.71C1753.09 261.45 1742.59 286.52 1731.42 311.31C1725.82 323.7 1720.05 336.02 1713.77 348.1C1707.47 360.16 1700.69 372.02 1692.64 383.04C1688.59 388.53 1684.23 393.82 1679.28 398.56C1674.35 403.29 1668.83 407.54 1662.59 410.51C1656.38 413.5 1649.4 415.02 1642.48 414.64C1635.56 414.29 1628.82 412.22 1622.67 409.17C1619.59 407.64 1616.6 405.95 1613.76 404.03C1610.9 402.12 1608.18 400.09 1605.4 398.18C1599.81 394.38 1593.96 390.97 1587.84 388.13C1586.31 387.42 1584.76 386.77 1583.2 386.13C1581.62 385.54 1580.06 384.9 1578.46 384.4C1575.28 383.3 1572.01 382.47 1568.72 381.81C1562.13 380.53 1555.35 380.19 1548.69 380.99C1545.36 381.36 1542.06 382.04 1538.84 382.97C1535.62 383.89 1532.45 385.03 1529.4 386.43C1523.27 389.18 1517.53 392.78 1512.18 396.87C1501.49 405.11 1492.24 415.13 1483.92 425.79C1475.57 436.46 1468.1 447.81 1461.03 459.38C1453.97 470.97 1447.36 482.83 1440.92 494.79C1428.06 518.72 1415.94 543.05 1403.13 567.05C1396.73 579.05 1390.15 590.96 1383.18 602.64C1376.2 614.32 1368.84 625.79 1360.7 636.71C1356.63 642.17 1352.37 647.5 1347.83 652.59C1343.31 657.69 1338.5 662.55 1333.36 667.04C1330.78 669.28 1328.14 671.44 1325.37 673.45C1322.62 675.48 1319.77 677.37 1316.81 679.09C1313.87 680.84 1310.81 682.39 1307.67 683.75C1304.54 685.13 1301.3 686.28 1298 687.2C1294.7 688.13 1291.34 688.82 1287.93 689.22C1284.53 689.64 1281.1 689.83 1277.67 689.71C1274.25 689.62 1270.83 689.3 1267.46 688.71C1264.08 688.17 1260.75 687.34 1257.48 686.37C1250.92 684.36 1244.71 681.66 1238.23 679.6C1231.82 677.39 1225.3 675.5 1218.75 673.71C1205.62 670.31 1192.26 667.73 1178.75 666.54C1165.25 665.26 1151.62 665.39 1138.16 666.97C1124.7 668.58 1111.43 671.8 1098.77 676.67C1086.12 681.54 1074.07 688.03 1063.06 695.97C1052.03 703.88 1041.98 713.15 1033.12 723.44C1028.69 728.58 1024.54 733.98 1020.73 739.6C1016.93 745.23 1013.38 751.04 1010.46 757.18C1013.35 751.02 1016.87 745.19 1020.64 739.54C1024.43 733.89 1028.55 728.47 1032.96 723.3C1041.78 712.95 1051.8 703.61 1062.81 695.61C1073.8 687.59 1085.85 681.01 1098.53 676.05C1111.22 671.09 1124.54 667.78 1138.06 666.09C1151.59 664.47 1165.29 664.32 1178.85 665.58C1192.43 666.75 1205.85 669.33 1219.03 672.71C1225.6 674.49 1232.15 676.37 1238.59 678.58C1245.08 680.63 1251.37 683.34 1257.81 685.3C1261.05 686.26 1264.33 687.06 1267.66 687.59C1270.98 688.17 1274.35 688.48 1277.72 688.56C1281.09 688.67 1284.46 688.48 1287.8 688.06C1291.14 687.66 1294.45 686.98 1297.69 686.05C1300.94 685.15 1304.12 684.01 1307.2 682.64C1310.29 681.29 1313.3 679.76 1316.2 678.03C1319.11 676.32 1321.93 674.45 1324.64 672.44C1327.37 670.45 1329.99 668.31 1332.54 666.09C1337.63 661.64 1342.39 656.8 1346.88 651.73C1351.38 646.67 1355.61 641.36 1359.65 635.92C1367.74 625.03 1375.06 613.58 1382 601.92C1388.94 590.25 1395.48 578.35 1401.86 566.35C1414.61 542.36 1426.69 518 1439.53 494.03C1445.96 482.05 1452.56 470.15 1459.63 458.51C1466.71 446.89 1474.19 435.48 1482.58 424.72C1486.76 419.34 1491.19 414.13 1495.91 409.2C1500.62 404.25 1505.68 399.62 1511.13 395.46C1516.58 391.31 1522.44 387.65 1528.71 384.85C1531.84 383.42 1535.09 382.26 1538.39 381.32C1541.7 380.37 1545.08 379.68 1548.51 379.31C1555.35 378.49 1562.31 378.85 1569.05 380.18C1572.42 380.86 1575.75 381.71 1578.99 382.84C1580.63 383.35 1582.21 384.01 1583.82 384.61C1585.4 385.27 1586.98 385.93 1588.53 386.65C1594.74 389.55 1600.65 393.02 1606.3 396.86C1609.12 398.8 1611.85 400.84 1614.63 402.71C1617.42 404.6 1620.35 406.27 1623.35 407.77C1629.35 410.76 1635.88 412.77 1642.55 413.12C1649.22 413.5 1655.93 412.05 1661.96 409.17C1668.02 406.3 1673.43 402.16 1678.29 397.51C1683.17 392.85 1687.5 387.63 1691.52 382.2C1699.53 371.28 1706.31 359.48 1712.61 347.48C1718.9 335.45 1724.68 323.16 1730.3 310.79C1741.51 286.04 1752.06 260.98 1763.37 236.25C1774.68 211.54 1786.63 187.04 1800.84 163.81C1807.96 152.22 1815.66 140.96 1824.28 130.42C1832.88 119.89 1842.42 110.05 1853.18 101.7C1863.92 93.3701 1875.97 86.5801 1888.97 82.5001C1895.45 80.4301 1902.16 79.0901 1908.91 78.3601C1915.7 77.7201 1922.53 77.7001 1929.3 78.2801Z"
            fill="url(#paint7_linear_78_10273)" />
        <path d="M1101.87 778.78C1101.87 778.78 1104.86 781.18 1104.69 786.84C1104.52 792.5 1095.03 778.78 1095.03 778.78V776.2L1101.87 778.78Z"
            fill="#6757E6" />
        <path d="M1034.16 860.05C1034.16 860.05 1036.05 861.61 1040.73 861.02C1045.41 860.42 1028.9 846.72 1028.9 846.72L1031.75 857.03C1032.6 858.23 1033.42 859.28 1034.16 860.05Z"
            fill="#1C0061" />
        <path d="M1463.97 513.51C1463.97 513.51 1465.49 505.09 1495.15 510.05C1524.81 515.01 1514.78 539.26 1514.78 539.26L1463.97 520.37V513.51Z"
            fill="#0084B8" />
        <path d="M185.99 144.23C185.96 144.22 184.93 380.05 184.66 417.6C186.49 438.79 173.03 421.5 155.72 416.12C-75.8898 357.08 -20.7998 416.62 -24.0698 243.55C-23.2698 231.58 -26.3098 222.53 -16.1398 213.7C-6.73984 205.46 5.24016 214.51 15.3802 205.79C41.4902 183.18 55.7302 225.55 79.6902 230.11C98.7902 233.35 110.29 192.16 117.47 177.34C131.1 149.26 171.95 142.17 185.99 144.23Z"
            fill="url(#paint8_linear_78_10273)" />
        <path d="M164.54 921.73C164.62 926.75 160.51 933.12 155.32 935.93L66.1799 984.34C59.0799 988.19 53.1499 986.44 53.1499 980.37V760.89C53.1499 755.06 58.9499 748.65 65.8999 746.68L136.94 726.54L153.4 721.88C158.5 720.44 162.66 723.23 162.73 728.08L162.76 730.87L163.22 780.71L163.41 800.73L164.54 921.73Z"
            fill="url(#paint9_linear_78_10273)" />
        <path d="M317.55 472.63V639.71C317.55 644.21 314.77 648.57 311.32 649.4L-8.60016 726.54C-20.4302 729.4 -30.4102 724.75 -30.4102 716.12V396.21C-30.4102 387.59 -20.4302 382.94 -8.60016 385.79L135.7 420.59L279.53 455.27L311.32 462.94C314.77 463.77 317.55 468.12 317.55 472.63Z"
            fill="#3089FF" />
        <path d="M325.64 456.33V623.41C325.64 627.91 322.86 632.27 319.41 633.1L-0.509825 710.24C-12.3398 713.1 -22.3198 708.45 -22.3198 699.82V379.91C-22.3198 371.29 -12.3398 366.64 -0.509825 369.49L143.79 404.29L287.62 438.97L319.41 446.64C322.86 447.47 325.64 451.82 325.64 456.33Z"
            fill="url(#paint10_linear_78_10273)" />
        <path d="M220.73 587.65L132.81 596.41C100.15 599.66 70.98 580.61 70.98 553.67V517.29C70.98 490.72 99.74 472.14 131.99 475.33L219.03 483.94C240.62 486.08 257.17 503.19 257.57 522.4L258.11 548.65C258.5 568.06 242.48 585.48 220.73 587.65Z"
            fill="url(#paint11_linear_78_10273)" />
        <path d="M210.33 535.5L158.7 502.9L159.19 568.26L210.33 535.5Z"
            fill="#4E63FF" />
        <path d="M95.3001 881.81C94.1501 881.81 93.0501 881.14 92.5501 880.02C91.8801 878.5 92.57 876.73 94.09 876.07L172.8 841.5C174.32 840.84 176.09 841.52 176.75 843.04C177.41 844.56 176.73 846.33 175.21 846.99L96.5001 881.56C96.1101 881.73 95.7001 881.81 95.3001 881.81Z"
            fill="url(#paint12_linear_78_10273)" />
        <path d="M1952.39 1078.55L1930.28 254.99C1930.28 254.99 1808.39 352.04 1779.79 477.29C1751.19 602.54 1701.99 617.09 1652.13 645.17C1590.86 679.68 1501.33 743.81 1482 797.59C1763.87 952.97 1952.39 1078.55 1952.39 1078.55Z"
            fill="url(#paint13_linear_78_10273)" />
        <path d="M438.68 548.76C438.68 548.76 459.3 546.03 459.94 551.36C460.59 556.69 443.4 557.37 443.4 557.37L438.68 548.76Z"
            fill="#616CFF" />
        <path d="M593.4 834.38C613.06 845.1 720.04 943.4 775.19 951.57L593.4 834.38Z"
            fill="white" />
        <path d="M938.44 737.61C895.27 712.93 884.01 830.98 767 899.57C711.62 869.2 675.13 831.34 624.39 777.58C549.93 739.85 487.23 844.81 562.41 891.2C560.76 890.46 561.29 890.7 560.48 890.24C587.55 913.93 720.03 1019.38 783.49 1001.21C783.52 1001.21 783.54 1001.2 783.57 1001.2C879.87 984 999.99 766.17 938.44 737.61Z"
            fill="url(#paint14_linear_78_10273)" />
        <path d="M938.44 737.61C895.27 712.93 884.01 830.98 767 899.57C711.62 869.2 675.13 831.34 624.39 777.58C549.93 739.85 487.23 844.81 562.41 891.2C560.76 890.46 561.29 890.7 560.48 890.24C587.55 913.93 720.03 1019.38 783.49 1001.21C783.52 1001.21 783.54 1001.2 783.57 1001.2C879.87 984 999.99 766.17 938.44 737.61Z"
            fill="url(#paint15_radial_78_10273)" />
        <path d="M679.89 825.37C676.19 845.69 666.33 876.1 657.15 902.06C647.36 929.72 638.34 952.34 638.34 952.34L619.17 944.71L616.38 1034.51L131.99 1035.09L114.39 1035.11C112.82 1000.45 104.27 913.49 149.67 847.61C163.13 828.1 181.32 809.31 205.83 792.51C313.06 718.98 423.36 703.66 525.49 716.93C627.61 730.21 627.96 783.32 678.17 802.72C682.11 804.24 682.16 812.91 679.89 825.37Z"
            fill="#41E3D6" />
        <path d="M409.13 830.49C372.65 847.95 328.92 832.52 311.46 796.04C307.66 788.09 305.41 779.8 304.61 771.52L304.15 766.41C302.98 753.85 302.49 742.01 302.26 730.33C302.05 718.66 302.15 707.2 302.47 695.79C302.65 689.5 302.9 683.23 303.23 676.94C303.49 671.82 303.8 666.69 304.17 661.52C304.59 655.74 305.05 649.97 305.64 644L306.09 639.51L306.6 634.88C306.92 631.88 307.37 628.45 307.8 625.2C311.41 597.6 336.71 578.15 364.31 581.76C385.54 584.54 401.94 600.15 406.74 619.77L408.2 625.86L409.64 631.84L410.42 635.03L411.27 638.37C412.39 642.83 413.64 647.47 414.92 652.1C417.51 661.4 420.36 670.82 423.37 680.11C426.39 689.41 429.58 698.62 432.95 707.52C433.23 708.26 433.51 709 433.8 709.73C436.91 717.84 440.18 725.71 443.58 732.82C461.04 769.3 445.61 813.03 409.13 830.49Z"
            fill="url(#paint16_linear_78_10273)" />
        <path d="M373.54 563.18C387.16 600.07 390.32 641.67 392.46 684.5L373.54 563.18Z"
            fill="white" />
        <path opacity="0.41"
            d="M433.8 709.73C417.04 740.55 378.75 753.07 346.77 737.65C335.56 732.24 326.56 724.09 320.21 714.4L319.12 712.72C317.41 710.09 315.98 707.45 314.65 704.81C313.29 702.19 312.09 699.59 310.93 696.99L309.26 693.13C308.71 691.85 308.23 690.57 307.71 689.29C306.68 686.74 305.74 684.25 304.87 681.73C304.3 680.12 303.75 678.52 303.23 676.94C303.49 671.82 303.8 666.69 304.17 661.52C304.59 655.74 305.05 649.97 305.64 644L306.09 639.51L306.6 634.88C306.92 631.88 307.37 628.45 307.8 625.2C311.41 597.6 336.71 578.15 364.31 581.76C385.54 584.54 401.94 600.15 406.74 619.77L408.2 625.86L409.64 631.84L410.42 635.03L411.27 638.37C412.39 642.83 413.64 647.47 414.92 652.1C417.51 661.4 420.36 670.82 423.37 680.11C426.39 689.41 429.58 698.62 432.95 707.52C433.23 708.26 433.51 709 433.8 709.73Z"
            fill="url(#paint17_linear_78_10273)" />
        <path d="M434.12 540.81C453.96 569.72 459.97 610.4 455.57 645.76C448.56 730.4 350.72 739.17 324.81 672.67C259.5 517.86 390.76 480.76 434.12 540.81Z"
            fill="url(#paint18_linear_78_10273)" />
        <path d="M282.76 625.7C268.8 609.7 228.13 546.16 287.19 515.06C346.25 483.96 285.49 598.46 285.49 598.46L282.76 625.7Z"
            fill="#FCFCFC" />
        <path d="M422.85 478.64C419.38 478.64 416.07 479.42 413.04 480.81C407.54 474.1 399 469.79 389.4 469.79C378.85 469.79 369.58 475 364.22 482.87C361.92 482.33 359.53 482.04 357.06 482.04C346.03 482.04 336.39 487.74 331.17 496.22C311.88 499.28 281.77 506.2 275.96 523.91C268.81 545.7 275.16 549.74 270.94 560.34V560.35C268.06 564.53 266.35 569.78 266.35 575.48C266.35 589.11 276.12 600.16 288.18 600.16C292.14 600.16 295.85 598.96 299.05 596.88L316.31 642.54L330.44 632.84C330.1 621.95 323.29 588.59 317.5 581.1C311.71 573.61 320.35 548.63 338.73 546.25C357.11 543.87 380.99 552.72 417.88 544.21C417.62 539.17 421.23 536.17 422.86 536.17C437.05 536.17 448.56 523.29 448.56 507.4C448.55 491.51 437.04 478.64 422.85 478.64Z"
            fill="url(#paint19_radial_78_10273)" />
        <path opacity="0.41"
            d="M464.59 620.36L456.87 576.01L453.85 558.69C419.58 572.23 386.31 582.89 341.43 587.16C329.73 588.27 321.32 598.92 322.91 610.57L323.46 614.61L303.23 615.84L313 648.68L326.69 638.21L327.32 642.82C328.82 653.74 338.61 661.55 349.59 660.64C397.06 656.69 434.59 647.78 466.79 633.02L464.59 620.36Z"
            fill="#6329F1" />
        <path d="M309.32 608.51L331.7 607.15L334.08 630.81L317.39 631.84L309.32 608.51Z"
            fill="#4EE2F1" />
        <path d="M394.64 662.1C394.75 662.46 395.22 663.15 395.71 663.72C395.98 664.01 396.23 664.32 396.55 664.58C396.84 664.87 397.16 665.12 397.49 665.36C398.8 666.34 400.29 667.01 401.88 667.29C403.47 667.58 405.18 667.45 406.92 666.99C408.68 666.59 410.42 665.61 412.15 664.63L412.47 664.44C414.29 663.4 416.61 664.04 417.64 665.86C418.61 667.57 418.1 669.72 416.53 670.84C414.39 672.35 412.16 673.86 409.47 674.79C406.83 675.76 403.86 676.29 400.85 676.03C397.84 675.79 394.9 674.78 392.35 673.23C391.71 672.84 391.08 672.43 390.49 671.96C389.88 671.52 389.32 671 388.76 670.49C387.66 669.39 386.64 668.28 385.7 666.57L385.43 666.08C384.09 663.64 384.98 660.57 387.42 659.23C389.86 657.89 392.93 658.78 394.27 661.22C394.41 661.5 394.55 661.81 394.64 662.1Z"
            fill="#5500B3" />
        <path d="M433.02 644.38C429.1 643.5 421.95 646.22 420.25 649.8"
            stroke="#8A3EF1"
            stroke-width="10"
            stroke-miterlimit="10"
            stroke-linecap="round" />
        <path d="M288.17 600.17C288.17 600.17 273.11 567.71 272.52 550.98C270.99 549.45 261.48 556.34 261.48 556.34C261.48 556.34 261.36 574.47 263.52 582.89C265.68 591.31 276.8 609.7 276.8 609.7L288.17 600.17Z"
            fill="#FCFCFC" />
        <path d="M315.79 622.73C322.15 645.94 310.76 669.29 290.36 674.87C269.96 680.45 252.02 666.1 245.66 642.89C239.3 619.68 246.94 596.41 267.34 590.82C287.74 585.23 309.43 599.52 315.79 622.73Z"
            fill="#B0A6FF" />
        <path d="M298.65 626.54C303.95 645.88 294.38 665.36 277.28 670.04C260.18 674.72 245.17 662.77 239.87 643.43C234.57 624.09 241 604.67 258.1 599.99C275.2 595.3 293.36 607.19 298.65 626.54Z"
            fill="#FCFCFC" />
        <path d="M472.89 625.7C440.69 640.46 403.16 649.37 355.69 653.32C344.71 654.23 334.92 646.42 333.42 635.5L329 603.24C327.41 591.6 335.82 580.94 347.52 579.83C392.4 575.56 425.67 564.9 459.94 551.36L462.96 568.68L470.68 613.03L472.89 625.7Z"
            fill="url(#paint20_linear_78_10273)" />
        <path d="M1495.7 903.32C1432.89 955.41 1336.38 1007.11 1246.76 1007C1178.47 1006.92 1174.91 899.71 1231.19 881.87C1366.51 838.98 1409.4 772.23 1444.13 756.96C1521.81 722.79 1541.73 854.55 1495.7 903.32Z"
            fill="#5500B3" />
        <path d="M1308.27 963.09C1253.57 1066.55 1109.04 943.45 1033.76 853.39C1026.74 844.99 1020.33 836.88 1014.64 829.27C997.64 806.52 987.18 788.22 986.69 779.97C984.03 710.24 1044.17 712.7 1078.19 759.08C1079.33 760.64 1080.45 762.25 1081.53 763.91C1088.15 771.19 1094.64 778.04 1101.04 784.47C1156.94 840.7 1205.55 865.32 1270.12 873.86C1304.75 887.2 1322.1 927.3 1308.27 963.09Z"
            fill="url(#paint21_linear_78_10273)" />
        <path opacity="0.6"
            d="M83.46 325.71C84.09 353.52 68.36 372.62 46.9 367.64C23.71 362.26 3.5 331.39 3.5 299.64C3.5 268.45 23.09 251.73 45.62 261.13C66.5 269.83 82.85 298.33 83.46 325.71Z"
            fill="url(#paint22_linear_78_10273)" />
        <path d="M96.5801 309.33C97.2101 337.14 81.4801 356.24 60.0201 351.26C36.8301 345.87 16.6201 315.01 16.6201 283.26C16.6201 252.07 36.2101 235.35 58.7401 244.75C79.6201 253.45 95.9601 281.95 96.5801 309.33Z"
            fill="#73FFE4" />
        <path d="M56.4602 282.35C56.5402 289.05 52.4402 293.13 47.2202 291.41C41.9102 289.66 37.5002 282.6 37.4602 275.69C37.4202 268.81 41.7302 264.86 47.0102 266.82C52.1802 268.75 56.3802 275.67 56.4602 282.35Z"
            fill="#0A90B0" />
        <path d="M84.0001 294.87C84.1201 301 81.0101 304.94 77.0001 303.63C72.9401 302.31 69.5201 296.12 69.4301 289.84C69.3401 283.58 72.5801 279.74 76.6201 281.21C80.6101 282.67 83.8901 288.77 84.0001 294.87Z"
            fill="#0A90B0" />
        <path d="M46.1899 311.58C48.3099 317.22 54.7999 322.44 61.3699 324.52C67.7099 326.52 72.8399 325.15 75.9699 321.61"
            stroke="#0A90B0"
            stroke-width="8"
            stroke-miterlimit="10"
            stroke-linecap="round" />
        <path opacity="0.6"
            d="M232.87 234.72L135.6 177.82C128.74 173.81 123.02 176.36 123.02 183.57V260.95C123.02 268.23 128.78 276.63 135.67 279.54L174.82 296.08L188.77 328.83L201.89 307.51L233.4 320.82C238.21 322.85 242.05 319.62 242.01 313.68L241.59 250.49C241.55 244.6 237.66 237.53 232.87 234.72Z"
            fill="url(#paint23_linear_78_10273)" />
        <path d="M252.87 219.35L155.6 162.45C148.74 158.44 143.02 160.99 143.02 168.2V245.58C143.02 252.86 148.78 261.26 155.67 264.17L194.82 280.71L208.77 313.46L221.89 292.14L253.4 305.45C258.21 307.48 262.05 304.25 262.01 298.31L261.59 235.12C261.55 229.23 257.67 222.15 252.87 219.35Z"
            fill="url(#paint24_linear_78_10273)" />
        <path d="M220.94 217.66C216.12 214.98 211.68 214.8 208.42 216.71C205.09 211.17 200.46 206.3 195.28 203.42C184.52 197.45 175.53 202.32 175.55 214.51C175.6 239.69 208.62 270.78 208.62 270.78C208.62 270.78 238.12 267.94 238.01 246.88C237.95 235.93 230.44 222.92 220.94 217.66Z"
            fill="#00B2FF" />
        <path d="M1757.23 468.01C1792.55 350.72 1844.58 312.36 1844.58 312.36"
            stroke="white"
            stroke-width="3.7007"
            stroke-miterlimit="10" />
        <path d="M1820.07 322.66C1828.07 320.11 1836.67 315.17 1845.5 309.36C1840.65 319.51 1836.92 329.09 1835.51 337.5"
            stroke="white"
            stroke-width="3.7007"
            stroke-miterlimit="10" />
        <path d="M95.2999 801.35C94.0599 801.35 92.9099 800.58 92.4699 799.35C91.9199 797.79 92.7399 796.07 94.2999 795.52L150.66 775.66C152.22 775.11 153.94 775.93 154.49 777.49C155.04 779.05 154.22 780.77 152.66 781.32L96.2999 801.18C95.9699 801.29 95.6299 801.35 95.2999 801.35Z"
            fill="url(#paint25_linear_78_10273)" />
        <path d="M108.85 732.84L260.85 691.23"
            stroke="url(#paint26_linear_78_10273)"
            stroke-width="6"
            stroke-miterlimit="10"
            stroke-linecap="round" />
        <path d="M79.6998 814.21C84.212 814.21 87.8698 809.661 87.8698 804.05C87.8698 798.439 84.212 793.89 79.6998 793.89C75.1876 793.89 71.5298 798.439 71.5298 804.05C71.5298 809.661 75.1876 814.21 79.6998 814.21Z"
            fill="url(#paint27_linear_78_10273)" />
        <path d="M95.2998 841.08C94.0898 841.08 92.9498 840.34 92.4998 839.15C91.9098 837.6 92.6898 835.87 94.2398 835.28L144.66 816.09C146.21 815.5 147.94 816.28 148.53 817.83C149.12 819.38 148.34 821.11 146.79 821.7L96.3698 840.89C96.0198 841.01 95.6598 841.08 95.2998 841.08Z"
            fill="url(#paint28_linear_78_10273)" />
        <path d="M79.6998 853.58C84.212 853.58 87.8698 849.031 87.8698 843.42C87.8698 837.809 84.212 833.26 79.6998 833.26C75.1876 833.26 71.5298 837.809 71.5298 843.42C71.5298 849.031 75.1876 853.58 79.6998 853.58Z"
            fill="url(#paint29_linear_78_10273)" />
        <path d="M79.6998 892.95C84.212 892.95 87.8698 888.401 87.8698 882.79C87.8698 877.179 84.212 872.63 79.6998 872.63C75.1876 872.63 71.5298 877.179 71.5298 882.79C71.5298 888.401 75.1876 892.95 79.6998 892.95Z"
            fill="url(#paint30_linear_78_10273)" />
        <path d="M470.68 613.03C462.51 616.47 432.32 628.37 391.48 635.25C385.04 636.34 378.33 637.3 371.4 638.08C369.42 638.3 367.42 638.52 365.4 638.71C358.39 639.38 352 634.62 350.71 627.7C349.37 620.51 348.34 613.6 347.61 607.96C346.64 600.56 351.8 593.76 359.19 592.73C370.04 591.21 385.2 588.82 401.25 585.65C411.11 583.7 421.29 581.46 431.02 578.95C442.81 575.91 453.92 572.48 462.96 568.69L470.68 613.03Z"
            fill="url(#paint31_linear_78_10273)" />
        <path d="M327.2 496.89C317.42 498.6 305.72 501.3 295.87 505.71C306 501.91 317.33 499.65 326.32 498.22C326.59 497.76 326.89 497.32 327.2 496.89Z"
            fill="url(#paint32_radial_78_10273)" />
        <path d="M294.19 598.88C293.85 599.1 293.5 599.31 293.15 599.51C293.56 599.4 293.96 599.28 294.35 599.15L294.19 598.88Z"
            fill="url(#paint33_radial_78_10273)" />
        <path d="M391.48 635.25L431.02 578.94C421.29 581.45 411.11 583.69 401.25 585.64L371.4 638.08L391.48 635.25Z"
            fill="url(#paint34_linear_78_10273)" />
        <path d="M447.09 574.38L409.64 631.84L426.27 627.64C426.27 627.64 426.28 622.59 433.02 606.12C438.94 591.67 447.09 574.38 447.09 574.38Z"
            fill="#6E41E4" />
        <path d="M930.59 821.41C943.33 824.73 962.61 817.02 973.58 802.72C984.55 788.42 1024.38 738.89 1025.4 727.15C1026.42 715.41 954.93 679.15 939.61 680.17C924.29 681.19 885.99 740.94 884.97 755.74C883.95 770.55 890.2 795.6 898.42 804.59C911.02 818.38 930.59 821.41 930.59 821.41Z"
            fill="url(#paint35_linear_78_10273)" />
        <path d="M1036.3 704.93C1036.3 704.93 1035.35 706.13 1035.34 706.13C1032.49 717.11 1027.54 726.77 1022.27 735.28C1019.52 739.71 1009.25 737.43 996.3 732.1C991.95 730.31 987.3 728.18 982.53 725.84C982.48 725.82 982.43 725.79 982.38 725.77C981.28 725.23 980.17 724.68 979.06 724.12C974.78 721.96 970.43 719.67 966.15 717.34C965.57 717.03 965 716.71 964.42 716.39C963.27 715.77 962.13 715.13 961 714.5C955.1 711.21 949.44 707.93 944.39 704.94C932.02 697.61 923.23 691.95 923.23 691.95C932.33 683.04 947.81 663.54 960.79 654.76C965.71 651.43 970.28 649.64 974 650.55C986.16 653.53 982.72 664.57 981.9 666.77C981.81 667.02 981.75 667.16 981.75 667.16C981.75 667.16 988.48 657.93 997.94 660.21C1005.17 661.96 1005.14 671.16 1004.92 674.28C1004.88 674.84 1004.83 675.21 1004.82 675.3C1005.13 674.85 1010.96 666.39 1019.8 669.46C1027.1 672 1022.93 690.7 1022.93 690.7C1022.93 690.69 1022.94 690.69 1022.95 690.68C1023.05 690.57 1023.48 690.09 1024.18 689.55C1025.96 688.17 1029.49 686.33 1033.82 688.76C1036.97 690.53 1036.62 694.33 1036.3 700.93C1036.26 701.8 1036.55 703.96 1036.3 704.93Z"
            fill="#8A5FF1" />
        <path d="M1080.59 759.83C1074.76 776.78 1051.64 807.08 1020.32 815.49C1000.26 820.87 972.83 808.06 944.3 786.97C932.47 778.23 920.44 768.06 908.68 757.18C903.34 752.25 901.7 744.28 902.96 735.35C900.05 733.73 898.09 732.55 897.59 732.05C897.21 731.67 896.84 731.31 896.48 730.95C890.93 725.38 888.65 722.26 889.55 717.76C890.24 714.31 893.76 707.51 902.65 709.79C892.61 700.06 899.93 688.2 911.87 690.89C913.67 691.3 916.53 692.22 920.09 693.51C919.18 692.96 918.44 692.45 917.91 692C911.87 686.81 917.41 677.9 924.04 677.36C930.58 676.83 944.43 676.02 970.46 683.38C981.24 685.39 991.4 689.67 1001.47 694.09C1002.91 694.66 1004.38 695.25 1005.87 695.87C1008.34 696.89 1010.43 697.84 1012.22 698.75C1018.99 701.59 1025.79 704.13 1032.8 705.71C1033.92 705.96 1034.12 704.34 1036.5 704.42C1041.65 704.61 1057.14 709.47 1067.19 724.59C1073.38 733.91 1084.89 747.32 1080.59 759.83Z"
            fill="url(#paint36_linear_78_10273)" />
        <path d="M1005.27 680.54C1005.23 681.1 1005.18 681.47 1005.17 681.56C1004.68 682.66 1003.55 684.93 1002.01 687.95C1002 687.97 1001.99 687.99 1001.98 688.01C996.4 698.91 985.49 719.44 979.92 729.55C979.76 729.84 979.59 730.12 979.41 730.38C973.91 738.84 962.02 734.74 964.77 722.65C964.83 722.4 964.89 722.15 964.96 721.9C968.76 707.91 977.62 683.62 982.25 673.03C982.16 673.28 982.1 673.42 982.1 673.42C982.1 673.42 988.83 664.19 998.29 666.47C1005.52 668.22 1005.49 677.42 1005.27 680.54Z"
            fill="#0052FF" />
        <path d="M998.01 732.31C995.2 735.44 991.88 736.51 989.2 735.95C986.13 735.31 983.37 731.65 984.39 727.36C986.08 720.28 995.15 703.42 1001.97 688.01C1001.98 687.99 1001.99 687.97 1002 687.95C1003.21 685.21 1004.32 682.69 1005.26 680.54C1005.22 681.1 1005.17 681.47 1005.16 681.56C1005.47 681.11 1011.3 672.65 1020.14 675.72C1025.27 677.51 1024.78 686.68 1024.13 691.61C1023.87 693.69 998.97 731.24 998.01 732.31Z"
            fill="#0052FF" />
        <path d="M1032.55 714C1026.86 721.96 1013.48 734.35 1009.33 736.8C1005.33 739.16 999.45 736.34 1001.92 729.83C1004.73 722.43 1019.79 702.47 1023.28 696.96C1023.28 696.95 1023.29 696.95 1023.3 696.94C1023.4 696.83 1023.83 696.35 1024.53 695.81C1026.31 694.43 1029.84 692.59 1034.17 695.02C1037.19 696.71 1037.71 701.51 1036.55 707.59C1036.33 708.76 1032.56 714 1032.55 714Z"
            fill="#0052FF" />
        <path d="M982.25 673.03L980.15 679.28C980.15 679.28 971.82 701.93 968.49 707.71C967.52 709.4 966.41 711.14 965.12 712.6C961.95 716.14 958.37 717.93 953.52 714.78C951.11 713.22 950.12 708.74 951.06 703.89C953.63 690.66 957 679.89 958.86 672.62C959.47 670.26 961.92 664.75 963.69 661.88C965.86 658.29 970.63 655.92 974.35 656.83C986.51 659.79 983.07 670.83 982.25 673.03Z"
            fill="#0052FF" />
        <path d="M1004.92 674.28C1004.88 674.84 1004.83 675.21 1004.82 675.3C1004.33 676.4 1003.2 678.67 1001.66 681.69C1001.65 681.71 1001.64 681.73 1001.63 681.75C996.05 692.65 985.14 713.18 979.57 723.29C979.41 723.58 979.24 723.86 979.06 724.12C973.56 732.58 961.67 728.48 964.42 716.39C964.48 716.14 964.54 715.89 964.61 715.64C968.41 701.65 977.27 677.36 981.9 666.77C981.81 667.02 981.75 667.16 981.75 667.16C981.75 667.16 988.48 657.93 997.94 660.21C1005.17 661.96 1005.14 671.16 1004.92 674.28Z"
            fill="url(#paint37_linear_78_10273)" />
        <path d="M997.67 726.05C994.86 729.18 991.54 730.25 988.86 729.69C985.79 729.05 983.03 725.39 984.05 721.1C985.74 714.02 994.81 697.16 1001.63 681.75C1001.64 681.73 1001.65 681.71 1001.66 681.69C1002.87 678.95 1003.98 676.43 1004.92 674.28C1004.88 674.84 1004.83 675.21 1004.82 675.3C1005.13 674.85 1010.96 666.39 1019.8 669.46C1024.93 671.25 1024.44 680.42 1023.79 685.35C1023.52 687.43 998.63 724.98 997.67 726.05Z"
            fill="url(#paint38_linear_78_10273)" />
        <path d="M1032.2 707.74C1026.51 715.7 1013.13 728.09 1008.98 730.54C1004.98 732.9 999.1 730.08 1001.57 723.57C1004.38 716.17 1019.44 696.21 1022.93 690.7C1022.93 690.69 1022.94 690.69 1022.95 690.68C1023.05 690.57 1023.48 690.09 1024.18 689.55C1025.96 688.17 1029.49 686.33 1033.82 688.76C1036.84 690.45 1037.36 695.25 1036.2 701.33C1035.98 702.5 1032.21 707.74 1032.2 707.74Z"
            fill="url(#paint39_linear_78_10273)" />
        <path d="M963.04 707.12C951.87 713.38 937.59 722.45 935.87 729.16C934.65 733.92 942.32 768.74 944.3 786.97C932.47 778.23 920.44 768.06 908.68 757.18C903.34 752.25 901.7 744.28 902.96 735.35C900.05 733.73 898.09 732.55 897.59 732.05C897.21 731.67 896.84 731.31 896.48 730.95C898.76 725.98 901.58 721.13 904.89 716.06C912.67 704.14 934.37 695.34 951.44 691.72C969.22 687.95 969.57 703.45 963.04 707.12Z"
            fill="#0052FF" />
        <path d="M981.9 666.77L979.8 673.02C979.8 673.02 971.47 695.67 968.14 701.45C967.17 703.14 966.06 704.88 964.77 706.34C961.6 709.88 958.02 711.67 953.17 708.52C950.76 706.96 949.77 702.48 950.71 697.63C953.28 684.4 956.65 673.63 958.51 666.36C959.12 664 961.57 658.49 963.34 655.62C965.51 652.03 970.28 649.66 974 650.57C986.16 653.53 982.72 664.57 981.9 666.77Z"
            fill="url(#paint40_linear_78_10273)" />
        <path d="M885.83 777.44C888.3 797.72 925.49 804.3 938.34 789.7C945.03 782.1 925.29 728.12 926.85 722.04C928.57 715.34 947.02 705.57 958.19 699.31C964.72 695.65 964.37 680.15 946.59 683.91C929.52 687.53 907.82 696.34 900.04 708.25C887.12 728.03 881.81 744.43 885.83 777.44Z"
            fill="url(#paint41_linear_78_10273)" />
        <path d="M1068.41 792.08C1069.94 796.16 1069.2 800.95 1066.08 804.38L1051.84 820.08C1049.19 823 1045.4 824.29 1041.73 823.92C1036.81 834.31 1034.12 844.95 1033.76 853.39C1026.74 844.99 1020.33 836.88 1014.64 829.27C1013.68 821.2 1015.14 813.2 1018.23 805.65C1014.29 801.13 1014.26 794.24 1018.38 789.7L1032.62 774.01C1036.25 770.02 1042 769.04 1046.64 771.24C1057.7 763.29 1069.47 758.62 1078.19 759.08C1079.33 760.64 1080.45 762.25 1081.53 763.91C1088.15 771.19 1094.64 778.04 1101.04 784.47C1088.66 783.28 1077.35 786.42 1068.41 792.08Z"
            fill="#0052FF" />
        <path d="M1082.46 753.1C1062.29 739.57 996.42 786.79 1013.78 831.34C1020.8 842.81 1026.02 850.39 1029.51 854.85C1032.38 858.51 1034.16 860.05 1034.16 860.05C1019.92 847.12 1045.34 768.01 1103.4 780.78L1082.46 753.1Z"
            fill="url(#paint42_linear_78_10273)" />
        <path d="M1061.82 798.34L1046.13 812.59C1041.24 817.03 1033.62 816.66 1029.18 811.78L1014.93 796.09C1010.49 791.2 1010.86 783.58 1015.74 779.14L1031.43 764.89C1036.32 760.45 1043.94 760.82 1048.38 765.7L1062.63 781.39C1067.07 786.27 1066.71 793.9 1061.82 798.34Z"
            fill="#6200FA" />
        <path d="M1838.85 1033.02C1823.72 1033.39 1808.99 1033.72 1794.67 1034.01L1792.89 1044.87L1371.61 1058.04L1363.99 990C1363.99 990 1332.3 1014.74 1241.4 1014.74C1230.06 1001.61 1224.41 983.85 1222.34 965.04C1221.79 960.06 1221.49 955 1221.41 949.94C1220.67 906.11 1235.81 861.77 1241.4 860.06C1241.4 860.06 1272.42 855.71 1300.13 834.38C1355.64 791.65 1398.62 767.89 1432.02 755.01C1451.3 746.78 1483.23 737.5 1519.7 729.17C1519.73 729.16 1519.74 729.16 1519.74 729.16C1519.96 729.11 1520.19 729.05 1520.41 729C1561.5 719.64 1608.28 711.47 1649.2 707.32C1653.12 706.93 1656.98 706.57 1660.78 706.24C1692.49 703.57 1719.76 703.64 1736.72 707.88C1751.6 711.6 1765.46 720.21 1777.9 733.2C1791.12 747 1802.76 765.76 1812.36 788.85C1836.26 846.39 1847.46 930.89 1838.85 1033.02Z"
            fill="url(#paint43_linear_78_10273)" />
        <path d="M1649.23 716.59C1647.36 745.27 1536.04 760.85 1520.6 742.07C1518.57 739.6 1520.39 726.77 1523.58 709.89C1524.71 703.89 1526.02 697.38 1527.39 690.64C1532.39 666.01 1538.21 638.3 1539.39 621.34C1544.84 542.37 1576.3 521.98 1603.58 527.3C1609.23 528.41 1614.69 530.61 1619.71 533.63C1634.81 542.7 1645.87 559.1 1645.59 574.91C1646.39 639.84 1652.29 669.62 1649.23 716.59Z"
            fill="url(#paint44_linear_78_10273)" />
        <path d="M1631.59 585.19C1627.58 624.05 1631.59 689.87 1554.78 706.94C1553.7 707.18 1538.81 710.29 1523.58 709.89C1524.71 703.89 1526.02 697.38 1527.39 690.64C1530.69 690.11 1532.84 689.66 1533.22 689.58C1610.03 672.51 1606.02 606.69 1610.03 567.83C1611.38 554.7 1608.98 540.38 1603.58 527.3C1600.29 519.3 1595.88 511.76 1590.52 505.25C1602.57 511.02 1612.56 521.32 1619.71 533.63C1628.84 549.31 1633.34 568.25 1631.59 585.19Z"
            fill="url(#paint45_linear_78_10273)" />
        <path d="M1565.22 486.25C1535.6 474.79 1502.3 489.51 1490.84 519.13C1486.62 530.04 1481.17 551.13 1476.63 575.17C1467.99 591.21 1456.55 621.28 1456.55 621.28L1474.95 626.97C1473.05 645.64 1471.16 661.33 1472.72 675.02C1476.08 704.35 1531.04 690.07 1533.22 689.59C1610.03 672.52 1606.02 606.7 1610.03 567.84C1613.29 536.24 1594.83 497.71 1565.22 486.25Z"
            fill="url(#paint46_linear_78_10273)" />
        <path d="M1672.38 496.99C1666.93 469.45 1569.62 471.87 1554.77 471.06C1535.53 467.41 1533.83 458.25 1530.72 447.03C1508.1 447.03 1478.12 456.07 1478.12 491.11C1478.12 509.69 1490.49 525.36 1507.45 530.37C1525.26 537.34 1553.51 538.85 1569.1 549.73C1590.07 564.37 1566.17 595.75 1564.47 612.77C1592.39 632.17 1631.95 638.62 1646.59 620.92C1686.08 574.27 1677.83 524.53 1672.38 496.99Z"
            fill="#1C0061" />
        <path d="M1527.02 472.51C1514.76 472.51 1483.04 489.91 1504.8 526.51C1516.41 546.04 1566.51 546.38 1566.51 546.38L1649.23 548.42C1649.23 548.42 1642.42 515.78 1601.57 504.87C1560.72 493.96 1534.51 492.93 1528.89 488.17C1523.27 483.41 1527.02 472.51 1527.02 472.51Z"
            fill="#1C0061" />
        <path d="M1537.75 496.34C1543.37 501.11 1569.58 502.13 1610.43 513.04C1621.45 515.98 1629.97 520.51 1636.57 525.55C1629.39 517.5 1618.36 509.36 1601.58 504.87C1569.04 496.18 1545.8 493.76 1534.85 490.73C1535.19 492.85 1536.03 494.88 1537.75 496.34Z"
            fill="#0E70F1" />
        <path d="M1513.65 534.68C1496.53 505.88 1512.52 488.97 1526.08 483.07C1525.08 478.13 1527.02 472.51 1527.02 472.51C1514.76 472.51 1483.04 489.91 1504.8 526.51C1506.82 529.91 1510.01 532.72 1513.89 535.06C1513.81 534.93 1513.73 534.81 1513.65 534.68Z"
            fill="#650EF1" />
        <path d="M1488.12 500.37C1488.12 468.86 1512.37 458.38 1533.7 456.59C1532.48 453.65 1531.66 450.43 1530.71 447.02C1508.1 447.02 1478.11 456.06 1478.11 491.1C1478.11 505.42 1485.47 518.02 1496.61 525.33C1491.29 518.42 1488.12 509.77 1488.12 500.37Z"
            fill="#650EF1" />
        <path d="M1564.77 480.33C1576.93 480.99 1644.34 479.49 1671.38 494.04C1659.78 469.63 1569.06 471.84 1554.76 471.06C1550.67 470.28 1547.38 469.26 1544.7 468.02C1547.67 473.69 1552.85 478.06 1564.77 480.33Z"
            fill="#0E70F1" />
        <path d="M1624.89 583.49C1629.83 592.94 1612.91 549.92 1569.2 546.45C1525.49 542.98 1524.54 539.87 1524.54 539.87C1524.54 539.87 1552.21 549.45 1571.96 552.17C1591.7 554.89 1619.11 572.42 1624.89 583.49Z"
            fill="#650EF1" />
        <path d="M1565.32 556.13L1660.13 572.07L1656.72 597.61L1559.93 586.55L1565.32 556.13Z"
            fill="#8EF7FF" />
        <path d="M1569.57 552.18L1567.22 586.67C1566.4 598.56 1556.16 607.56 1544.26 606.84C1516.92 605.19 1471.15 600.52 1453.57 587.47C1453.57 584.39 1453.61 581.39 1453.69 578.5C1454.38 553 1457.92 534.77 1460.65 524.23C1462.49 517.12 1463.97 513.51 1463.97 513.51C1477.25 518.02 1523.98 525.26 1551.08 529.24C1562.3 530.88 1570.34 540.88 1569.57 552.18Z"
            fill="url(#paint47_linear_78_10273)" />
        <path d="M1555.82 556.99L1552.91 584.19C1552.08 592.02 1545.13 597.73 1537.28 597.06C1532.99 596.69 1527.91 596.18 1522.3 595.49C1519.69 595.16 1516.97 594.8 1514.16 594.39C1509.1 593.65 1503.75 592.76 1498.28 591.7C1497.07 591.47 1495.85 591.22 1494.62 590.96C1480.76 588.11 1466.3 584.1 1453.69 578.5C1454.38 553 1457.92 534.77 1460.65 524.23C1463.34 524.81 1466.6 525.5 1470.26 526.27C1478.91 528.07 1489.82 530.3 1500.97 532.56C1516.91 535.79 1533.33 539.08 1544.28 541.27C1551.61 542.73 1556.62 549.55 1555.82 556.99Z"
            fill="url(#paint48_linear_78_10273)" />
        <path d="M1055.64 795.46L1044.62 805.47L1043.86 806.16C1040.19 809.49 1034.46 809.22 1031.13 805.55L1025.45 799.3L1020.43 793.77C1017.1 790.1 1017.37 784.37 1021.04 781.04L1032.82 770.34C1034.79 768.55 1037.35 767.8 1039.82 768.05C1041.95 768.28 1044 769.25 1045.55 770.94L1055.39 781.78L1056.24 782.73C1059.58 786.4 1059.31 792.13 1055.64 795.46Z"
            fill="#1C0061" />
        <path d="M1055.4 781.78L1044.62 805.46L1043.86 806.15C1040.19 809.48 1034.46 809.21 1031.13 805.54L1025.45 799.29L1039.82 768.05C1041.95 768.28 1044 769.25 1045.55 770.94L1055.4 781.78Z"
            fill="#4D00B0" />
        <path d="M927.36 722.04L956.81 736.28"
            stroke="#0052FF"
            stroke-width="2"
            stroke-miterlimit="10" />
        <path d="M944.21 759.83L935.02 753.51"
            stroke="#0052FF"
            stroke-width="2"
            stroke-miterlimit="10" />
        <path opacity="0.56"
            d="M1884.43 727.77L1742.45 682.35C1740.02 681.57 1738.06 676.11 1738.06 670.21V544.96C1738.06 539.05 1740.01 533.59 1742.45 532.82L1884.43 487.4C1890.89 485.33 1896.35 491.76 1896.35 501.74V713.43C1896.35 723.42 1890.9 729.84 1884.43 727.77Z"
            fill="url(#paint49_linear_78_10273)" />
        <path d="M1857.57 699L1715.59 653.58C1713.16 652.8 1711.2 647.34 1711.2 641.44V516.19C1711.2 510.28 1713.15 504.82 1715.59 504.05L1857.57 458.63C1864.03 456.56 1869.49 462.99 1869.49 472.97V684.66C1869.49 694.65 1864.03 701.07 1857.57 699Z"
            fill="url(#paint50_linear_78_10273)" />
        <path d="M981.9 666.77L969.56 698.63"
            stroke="#693AD6"
            stroke-miterlimit="10" />
        <path d="M1004.82 675.3L995.76 693.05"
            stroke="#693AD6"
            stroke-miterlimit="10" />
        <path d="M1514.16 594.39L1497.36 573.27L1498.28 591.7C1497.07 591.47 1495.85 591.22 1494.62 590.96L1470.26 526.27C1478.91 528.07 1489.82 530.3 1500.97 532.56L1522.3 595.49C1519.69 595.16 1516.97 594.8 1514.16 594.39Z"
            fill="url(#paint51_linear_78_10273)" />
        <path d="M1482 650.73C1487.87 651.5 1496.69 650.73 1503.77 645.88"
            stroke="#5500B3"
            stroke-width="10"
            stroke-miterlimit="10"
            stroke-linecap="round" />
        <path d="M1333.54 653.76L1362.38 631.99L1347.65 667.3L1333.54 653.76Z"
            fill="#52FF5E" />
        <path d="M1850.59 575.23L1821.75 514.59L1801.06 584.98L1810.53 583.12V654.89L1834.99 661.25V578.3L1850.59 575.23Z"
            fill="url(#paint52_linear_78_10273)" />
        <path d="M1778.74 571.94C1778.74 587.41 1770.4 599.94 1761.08 599.93C1752.67 599.92 1746.44 589.5 1746.44 576.67C1746.44 563.84 1752.68 551.6 1761.08 549.13C1770.41 546.37 1778.74 556.46 1778.74 571.94ZM1778.13 601.2L1775.94 601.18C1772.68 608.96 1767.07 613.72 1761.08 613.25C1755.48 612.81 1750.87 607.85 1748.42 600.95L1746.86 600.94C1739.38 600.88 1733.81 608.87 1733.81 618.78V635.44L1801.06 652.13V627.7C1801.06 613.17 1790.14 601.3 1778.13 601.2Z"
            fill="url(#paint53_linear_78_10273)" />
        <path d="M1038.55 791.49C1040.17 791.49 1041.49 790.174 1041.49 788.55C1041.49 786.926 1040.17 785.61 1038.55 785.61C1036.93 785.61 1035.61 786.926 1035.61 788.55C1035.61 790.174 1036.93 791.49 1038.55 791.49Z"
            fill="#D3BEFF" />
        <path d="M1030.08 778.89L1038 787.83"
            stroke="#D3BEFF"
            stroke-miterlimit="10" />
        <path d="M1045.07 782.2L1040.13 787.15"
            stroke="#D3BEFF"
            stroke-width="2"
            stroke-miterlimit="10" />
        <path d="M1731.45 434.38L1731.47 441.46L1725.12 443.23L1725.14 451.9L1719.86 453.31L1719.84 444.7L1713.66 446.42L1713.64 439.52L1719.82 437.73L1719.8 429.35L1725.08 427.76L1725.1 436.2L1731.45 434.38Z"
            fill="white" />
        <path d="M1840.87 15.3899V28.2999L1828.26 37.6399L1828.22 52.7599L1818.4 59.6199L1818.67 44.7399L1808.34 52.3899L1808.63 41.1399L1818.87 32.9499L1819.12 19.0599L1828.53 10.8999L1828.38 25.3599L1840.87 15.3899Z"
            fill="#9FF365" />
        <path d="M6.41992 413.23L53.1499 420.76V392.42L6.41992 383.23V413.23Z"
            fill="#4E3EFF" />
        <path d="M6.41992 434.55L46.7599 440.68"
            stroke="#4E3EFF"
            stroke-width="3"
            stroke-miterlimit="10" />
        <path d="M6.41992 456L46.7599 460.59"
            stroke="#4E3EFF"
            stroke-width="3"
            stroke-miterlimit="10" />
        <path d="M6.41992 574.38H46.7599"
            stroke="#4E3EFF"
            stroke-width="3"
            stroke-miterlimit="10" />
        <path d="M299.08 476.59C303.404 476.59 306.91 470.989 306.91 464.08C306.91 457.171 303.404 451.57 299.08 451.57C294.756 451.57 291.25 457.171 291.25 464.08C291.25 470.989 294.756 476.59 299.08 476.59Z"
            fill="#4E3EFF" />
        <path d="M298.6 159.96C294.58 157.5 291.25 159.04 291.25 163.4V187.61C291.25 191.92 294.55 197.22 298.54 199.36C302.46 201.47 305.64 199.76 305.66 195.57L305.74 172.05C305.75 167.81 302.56 162.38 298.6 159.96Z"
            fill="url(#paint54_linear_78_10273)" />
        <path d="M344.25 199.71C347.17 201.43 349.57 200.03 349.62 196.62C349.66 193.2 347.33 188.95 344.4 187.15L329.89 178.24L326.48 176.15C326.48 176.15 331.16 169.92 330.91 165.04C330.65 160.15 324.53 150.9 324.53 150.9C322.03 153.95 309.14 165.51 309.14 165.51L308.98 205.86L315.53 209.37L329.56 216.9L340.31 222.66C343.1 224.16 345.39 222.74 345.43 219.52L345.44 218.85C345.48 215.63 343.25 211.71 340.45 210.14L344.12 212.2C347.03 213.84 349.43 212.39 349.47 209C349.5 205.6 347.17 201.42 344.25 199.71Z"
            fill="url(#paint55_linear_78_10273)" />
        <path d="M148.74 91.7001C149.36 93.3601 149.67 94.7601 149.67 95.9101C149.67 98.3501 148.02 100.57 144.73 102.6L141.95 104.25L149.8 108.75V115.97L130.43 104.84V99.7601L137.37 96.1801C139.07 95.2901 140.24 94.6001 140.87 94.0901C141.5 93.5801 141.82 92.9601 141.82 92.2401C141.82 91.6401 141.6 90.9501 141.16 90.1701C140.72 89.3901 140.02 88.7301 139.05 88.1701C138.08 87.6201 137.3 87.4401 136.72 87.6501C136.13 87.8601 135.61 88.3201 135.14 89.0401L129.39 82.8301C131.38 79.2901 134.86 78.9401 139.85 81.7801C142.23 83.1401 144.15 84.7101 145.62 86.5101C147.08 88.3101 148.12 90.0401 148.74 91.7001Z"
            fill="url(#paint56_linear_78_10273)" />
        <path d="M167.29 109.1C169.63 110.74 171.54 112.71 173.02 115.01C174.5 117.31 175.25 119.65 175.25 122.04C175.25 123.79 174.77 125.1 173.8 125.97C172.84 126.83 171.48 127.17 169.73 126.98C167.98 126.79 166 126.06 163.78 124.78C161.44 123.44 159.21 121.76 157.09 119.74C154.97 117.72 153.33 115.8 152.18 113.96L156.65 111.47C157.24 112.35 158.22 113.46 159.59 114.81C160.96 116.16 162.29 117.19 163.56 117.92C164.71 118.58 165.65 118.86 166.38 118.75C167.1 118.64 167.47 118.19 167.47 117.41C167.47 116.63 167.13 115.77 166.45 114.83C165.77 113.9 164.85 113.1 163.7 112.44C163.17 112.13 162.69 111.9 162.26 111.75C161.83 111.59 161.56 111.51 161.44 111.51L158.07 105.83L163.52 103.35L154.53 98.2102V90.9902L172.85 101.44V107.6L167.29 109.1Z"
            fill="url(#paint57_linear_78_10273)" />
        <path d="M201.73 135.3V141.12L198.99 139.55V144.23L191.28 139.8V135.12L178.24 127.63V122.28L190.79 111.63L190.84 111.75V111.66L199 116.31V133.72L201.73 135.3ZM191.28 129.31V120.68L185.42 125.95L191.28 129.31Z"
            fill="url(#paint58_linear_78_10273)" />
        <path d="M225.81 137.57C226.81 140.38 227.3 143.36 227.3 146.53C227.3 149.67 226.8 152.05 225.81 153.69C224.81 155.33 223.46 156.22 221.76 156.36C220.06 156.51 218.17 155.98 216.09 154.79C213.98 153.58 212.08 151.93 210.39 149.83C208.69 147.73 207.35 145.3 206.36 142.53C205.37 139.76 204.88 136.82 204.88 133.69C204.88 130.53 205.37 128.12 206.36 126.46C207.35 124.79 208.7 123.88 210.41 123.72C212.12 123.56 214.02 124.07 216.09 125.25C218.17 126.43 220.06 128.08 221.76 130.19C223.46 132.3 224.81 134.76 225.81 137.57ZM212.8 138.22C212.8 143.14 213.9 146.23 216.09 147.49C217.08 148.06 217.87 147.93 218.46 147.09C219.05 146.26 219.34 144.55 219.34 141.96C219.34 136.97 218.26 133.86 216.09 132.62C215.1 132.05 214.3 132.18 213.7 133.01C213.1 133.85 212.8 135.58 212.8 138.22Z"
            fill="url(#paint59_linear_78_10273)" />
        <path d="M251.63 152.32C252.63 155.14 253.14 158.14 253.14 161.32C253.14 164.47 252.64 166.87 251.63 168.51C250.63 170.15 249.26 171.04 247.55 171.19C245.83 171.33 243.93 170.8 241.83 169.6C239.71 168.38 237.79 166.71 236.08 164.6C234.37 162.49 233.02 160.04 232.02 157.26C231.02 154.48 230.52 151.52 230.52 148.38C230.52 145.21 231.02 142.79 232.02 141.12C233.02 139.45 234.38 138.53 236.11 138.38C237.84 138.22 239.75 138.74 241.84 139.93C243.93 141.12 245.84 142.78 247.56 144.91C249.26 147.02 250.62 149.5 251.63 152.32ZM238.51 152.94C238.51 157.88 239.62 160.99 241.83 162.26C242.83 162.83 243.63 162.7 244.22 161.87C244.81 161.03 245.11 159.32 245.11 156.72C245.11 151.71 244.02 148.58 241.83 147.33C240.83 146.76 240.03 146.89 239.42 147.71C238.81 148.55 238.51 150.29 238.51 152.94Z"
            fill="url(#paint60_linear_78_10273)" />
        <path d="M266.73 162.3L266.04 165.72C267.17 165.94 268.41 166.43 269.76 167.2C271.51 168.2 273.14 169.52 274.68 171.16C276.21 172.8 277.45 174.58 278.38 176.48C279.32 178.38 279.78 180.21 279.78 181.96C279.78 183.74 279.28 185.07 278.28 185.94C277.28 186.81 275.89 187.14 274.09 186.94C272.3 186.74 270.24 185.97 267.91 184.63C265.49 183.24 263.19 181.51 260.99 179.43C258.79 177.36 257.1 175.38 255.91 173.51L260.53 171.02C261.14 171.92 262.16 173.06 263.58 174.44C265 175.82 266.37 176.89 267.68 177.65C268.87 178.33 269.85 178.63 270.6 178.54C271.35 178.45 271.73 178 271.73 177.21C271.73 176.42 271.39 175.55 270.7 174.62C270.01 173.69 269.13 172.92 268.06 172.3C267.42 171.93 266.69 171.62 265.88 171.37C265.07 171.12 264.37 171.03 263.79 171.09L257.88 165.73L260.67 151.48L277.75 161.22V168.59L266.73 162.3Z"
            fill="url(#paint61_linear_78_10273)" />
        <path d="M91.0702 679.92L89.7002 692.77L80.6202 694.46L79.3802 706.11L88.6002 704.16L87.1202 717.17L77.9302 719.36L76.3802 733.96L60.9002 738.13L62.5602 723.04L49.7502 726.1L48.0002 741.61L30.6602 746.28L32.5302 730.21L20.7402 733.03L22.6802 718.07L34.1602 715.65L35.6602 702.84L24.1302 704.99L25.9302 690.25L37.3802 688.44L39.2002 672.79L55.9702 670.65L54.2702 685.77L66.9502 683.76L68.5602 669.04L83.5602 667.12L81.9502 681.38L91.0702 679.92ZM51.2602 712.04L64.1002 709.33L65.4302 697.29L52.6702 699.67L51.2602 712.04Z"
            fill="url(#paint62_linear_78_10273)" />
        <path d="M101.29 670.23L99.8698 683.56L90.4398 685.32L89.1498 697.41L98.7198 695.39L97.1798 708.89L87.6498 711.17L86.0398 726.32L69.9798 730.65L71.6998 714.99L58.3998 718.16L56.5898 734.25L38.5998 739.1L40.5398 722.43L28.2998 725.35L30.3198 709.82L42.2298 707.31L43.7898 694.01L31.8298 696.24L33.6998 680.94L45.5798 679.06L47.4698 662.82L64.8798 660.6L63.1098 676.29L76.2698 674.21L77.9498 658.93L93.5098 656.94L91.8398 671.74L101.29 670.23ZM59.9698 703.56L73.2898 700.75L74.6698 688.25L61.4198 690.72L59.9698 703.56Z"
            fill="#44D6FF" />
        <g opacity="0.6">
            <path d="M219.38 403.93C219.36 405.25 219.18 406.43 218.83 407.46C218.48 408.49 218.04 409.33 217.52 409.97C217 410.61 216.34 411.23 215.55 411.83C214.76 412.43 214 412.92 213.26 413.31C212.52 413.7 211.67 414.18 210.73 414.75C209.78 415.33 208.97 415.89 208.29 416.45C209.24 416.72 210.69 417.1 212.64 417.59C214.58 418.08 216.05 418.47 217.06 418.75C218.01 419.02 218.64 419.56 218.97 420.37C219.3 421.18 219.45 422.26 219.43 423.61C219.42 424.03 219.4 424.73 219.34 425.71C219.29 426.69 219.26 427.45 219.25 427.97L219.24 428.39C219.24 428.62 219.22 428.8 219.19 428.91C219.16 429.03 219.08 429.12 218.96 429.2C218.84 429.27 218.65 429.3 218.4 429.28L216.92 428.88C215.88 428.56 213.65 427.89 210.21 426.86C204.61 425.33 198.41 423.77 191.6 422.16V421.68C191.38 421.48 191.21 421.14 191.08 420.67C190.95 420.2 190.88 419.7 190.89 419.18L190.95 412.19C190.95 411.82 191.45 411.42 192.44 410.98C196.43 409.16 199.28 407.83 200.99 406.99L202.32 406.24C205.4 404.49 206.95 402.58 206.97 400.5C206.98 399.84 206.81 399.27 206.47 398.78C206.13 398.3 205.67 397.97 205.09 397.79C204.6 397.64 204.2 397.64 203.91 397.8C203.62 397.96 203.42 398.2 203.31 398.52C203.2 398.84 203.11 399.18 203.04 399.52C202.97 399.86 202.88 400.17 202.75 400.43C202.63 400.69 202.44 400.82 202.2 400.81L192.21 397.82C191.4 397.58 190.99 397.21 191 396.73C191.24 394.49 191.76 392.66 192.56 391.24C193.36 389.82 194.41 388.84 195.72 388.28C197.03 387.73 198.49 387.48 200.11 387.55C201.73 387.62 203.56 387.97 205.61 388.62C207.09 389.08 208.49 389.65 209.82 390.33C211.14 391 212.4 391.81 213.59 392.76C214.77 393.7 215.79 394.72 216.64 395.83C217.49 396.93 218.16 398.17 218.65 399.56C219.16 400.98 219.4 402.42 219.38 403.93Z"
                fill="url(#paint63_linear_78_10273)" />
            <path d="M221.76 420.37C221.76 420.03 221.97 419.87 222.39 419.88C222.8 419.89 223.41 420.01 224.21 420.24L227.52 421.18C228.11 421.35 228.98 421.62 230.12 421.99C231.26 422.36 232.15 422.64 232.79 422.82C233.01 422.91 233.18 423.11 233.29 423.4C233.4 423.69 233.47 423.99 233.51 424.29C233.55 424.59 233.65 424.89 233.82 425.18C233.99 425.47 234.24 425.67 234.59 425.76C235.91 426.13 236.58 425.04 236.62 422.5C236.63 421.95 236.61 421.47 236.58 421.06C236.55 420.65 236.47 420.2 236.36 419.73C236.25 419.26 236.06 418.86 235.79 418.55C235.52 418.24 235.19 418.02 234.78 417.9C234.3 417.76 233.96 417.8 233.73 418.01C233.51 418.22 233.39 418.49 233.37 418.82C233.35 419.15 233.28 419.43 233.14 419.67C233 419.91 232.77 419.98 232.44 419.88L223.52 417.31C223.12 416.53 222.93 415.53 222.95 414.31L223.17 397.01C223.17 396.62 223.19 396.33 223.2 396.14C223.22 395.95 223.26 395.74 223.34 395.5C223.42 395.26 223.53 395.07 223.68 394.93L245.51 401.76C245.78 401.84 246.03 401.99 246.27 402.2C246.51 402.41 246.65 402.64 246.7 402.9L246.63 407.28C246.63 407.39 246.63 407.54 246.62 407.73C246.59 409.37 246.54 410.34 246.47 410.64C246.39 410.94 246.16 411.03 245.76 410.91C242.97 410.07 238.85 408.85 233.37 407.26C233.32 407.71 233.27 408.39 233.2 409.3C233.13 410.22 233.08 410.9 233.03 411.34C233.7 410.99 234.55 410.81 235.59 410.82C236.62 410.82 237.63 410.97 238.63 411.27C241.53 412.14 243.82 413.85 245.52 416.41C247.21 418.95 248.03 421.82 247.98 425.01C247.95 426.9 247.67 428.52 247.14 429.89C246.61 431.26 245.92 432.32 245.07 433.06C244.22 433.8 243.22 434.35 242.06 434.68C240.9 435.02 239.72 435.16 238.5 435.11C237.28 435.06 236.01 434.85 234.7 434.5C233.82 434.26 232.99 434 232.22 433.71C231.45 433.42 230.63 433.06 229.79 432.64C228.94 432.21 228.16 431.73 227.46 431.21C226.75 430.69 226.07 430.06 225.39 429.33C224.72 428.6 224.14 427.81 223.66 426.96C223.18 426.11 222.76 425.12 222.43 423.99C222.06 422.86 221.85 421.65 221.76 420.37Z"
                fill="url(#paint64_linear_78_10273)" />
            <path d="M262.53 442.03C261.13 441.65 259.86 441.15 258.72 440.52C257.57 439.89 256.58 439.18 255.73 438.4C254.88 437.62 254.14 436.71 253.49 435.69C252.84 434.66 252.31 433.61 251.88 432.52C251.46 431.44 251.1 430.23 250.82 428.9C250.54 427.57 250.32 426.27 250.18 425C250.04 423.73 249.94 422.33 249.87 420.79C250.05 409.43 254.59 404.71 263.36 406.64C264.85 407.11 266.22 407.74 267.44 408.53C268.66 409.32 269.7 410.19 270.55 411.13C271.4 412.07 272.15 413.13 272.8 414.31C273.45 415.48 273.96 416.66 274.34 417.83C274.72 419 275.02 420.23 275.25 421.54C275.48 422.84 275.63 424.07 275.71 425.21C275.78 426.36 275.81 427.53 275.79 428.73C275.74 431.48 275.36 433.84 274.67 435.81C273.97 437.78 273.03 439.3 271.84 440.35C270.65 441.41 269.27 442.08 267.69 442.37C266.13 442.65 264.41 442.54 262.53 442.03ZM259.99 424.64C259.98 425.22 259.98 425.73 259.98 426.17C259.98 426.62 260 427.17 260.04 427.82C260.07 428.47 260.12 429.05 260.19 429.55C260.26 430.05 260.36 430.58 260.49 431.14C260.62 431.7 260.79 432.17 260.98 432.57C261.17 432.96 261.42 433.31 261.72 433.61C262.02 433.91 262.36 434.11 262.74 434.22C263.17 434.34 263.56 434.34 263.9 434.22C264.24 434.1 264.52 433.91 264.74 433.66C264.96 433.41 265.15 433.04 265.31 432.54C265.47 432.04 265.59 431.59 265.67 431.2C265.75 430.81 265.82 430.27 265.87 429.6C265.92 428.93 265.95 428.42 265.96 428.07C265.97 427.72 265.98 427.23 266 426.6C266 426.47 266 426.37 266.01 426.31C266.07 425.83 266.11 425.06 266.13 424C266.13 423.93 266.14 423.63 266.15 423.12C266.17 422.61 266.18 422.2 266.18 421.88C266.19 421.56 266.17 421.11 266.15 420.51C266.12 419.91 266.08 419.41 266.03 419.01C265.98 418.61 265.88 418.15 265.75 417.62C265.62 417.09 265.45 416.66 265.26 416.31C265.07 415.96 264.82 415.64 264.52 415.35C264.21 415.06 263.86 414.85 263.47 414.73C263.15 414.63 262.85 414.59 262.58 414.61C262.31 414.63 262.06 414.73 261.85 414.91C261.64 415.09 261.45 415.28 261.29 415.49C261.12 415.69 260.98 415.99 260.86 416.39C260.74 416.78 260.63 417.14 260.54 417.44C260.45 417.75 260.37 418.17 260.31 418.71C260.25 419.25 260.2 419.69 260.17 420.03C260.13 420.37 260.1 420.85 260.08 421.47C260.06 422.09 260.04 422.55 260.04 422.85C260.03 423.15 260.03 423.6 260.02 424.22C260 424.41 259.99 424.55 259.99 424.64Z"
                fill="url(#paint65_linear_78_10273)" />
            <path d="M279.14 446.03C278.88 445.96 278.68 445.87 278.54 445.77C278.4 445.67 278.32 445.57 278.28 445.47C278.24 445.37 278.17 445.19 278.08 444.92L278.67 414.11C278.68 413.79 278.68 413.56 278.69 413.42C278.7 413.28 278.72 413.11 278.76 412.93C278.8 412.75 278.86 412.63 278.94 412.57C279.02 412.51 279.13 412.48 279.27 412.47C279.41 412.46 279.59 412.48 279.81 412.55L287.07 414.82C288.75 415.35 289.58 415.87 289.57 416.38V416.42C289.41 421.72 289.31 425.67 289.26 428.27L294.39 417.26L297.94 418.39C302.74 419.89 305.12 420.78 305.11 421.06C305.11 421.12 305.09 421.14 305.04 421.12C302.75 425.36 300.42 429.58 298.05 433.78L298.04 434.37L298.73 435.12L305.45 452.21C305.45 452.43 305.31 452.64 305.05 452.84L294.17 449.87L289.47 436.63C289.38 437.39 289.31 438.52 289.24 440C289.17 441.48 289.13 442.46 289.09 442.92L288.99 447.95C288.9 448.44 288.2 448.5 286.88 448.15L279.14 446.03Z"
                fill="url(#paint66_linear_78_10273)" />
        </g>
        <path d="M253.74 382.27C253.72 383.59 253.54 384.77 253.19 385.8C252.84 386.83 252.4 387.67 251.88 388.31C251.36 388.95 250.7 389.57 249.91 390.17C249.12 390.77 248.36 391.26 247.62 391.65C246.88 392.04 246.03 392.52 245.09 393.09C244.14 393.67 243.33 394.23 242.65 394.79C243.6 395.06 245.05 395.44 247 395.93C248.94 396.42 250.41 396.81 251.42 397.09C252.37 397.36 253 397.9 253.33 398.71C253.66 399.52 253.81 400.6 253.79 401.95C253.78 402.37 253.76 403.07 253.7 404.05C253.65 405.03 253.62 405.79 253.61 406.31L253.6 406.73C253.6 406.96 253.58 407.14 253.55 407.25C253.52 407.37 253.44 407.46 253.32 407.54C253.2 407.61 253.01 407.64 252.76 407.62L251.28 407.22C250.24 406.9 248.01 406.23 244.57 405.2C238.97 403.67 232.77 402.11 225.96 400.5V400.02C225.74 399.82 225.57 399.48 225.44 399.01C225.31 398.54 225.24 398.04 225.25 397.52L225.31 390.53C225.31 390.16 225.81 389.76 226.8 389.32C230.79 387.5 233.64 386.17 235.35 385.33L236.68 384.58C239.76 382.83 241.31 380.92 241.33 378.84C241.34 378.18 241.17 377.61 240.83 377.12C240.49 376.64 240.03 376.31 239.45 376.13C238.96 375.98 238.56 375.98 238.27 376.14C237.98 376.3 237.78 376.54 237.67 376.86C237.56 377.18 237.47 377.52 237.4 377.86C237.33 378.2 237.24 378.51 237.11 378.77C236.99 379.03 236.8 379.16 236.56 379.15L226.57 376.16C225.76 375.92 225.35 375.55 225.36 375.07C225.6 372.83 226.12 371 226.92 369.58C227.72 368.16 228.77 367.18 230.08 366.62C231.39 366.07 232.85 365.82 234.47 365.89C236.09 365.96 237.92 366.31 239.97 366.96C241.45 367.42 242.85 367.99 244.18 368.67C245.5 369.34 246.76 370.15 247.95 371.1C249.13 372.04 250.15 373.06 251 374.17C251.85 375.27 252.52 376.51 253.01 377.9C253.53 379.32 253.76 380.76 253.74 382.27Z"
            fill="url(#paint67_linear_78_10273)" />
        <path d="M256.12 398.71C256.12 398.37 256.33 398.21 256.75 398.22C257.16 398.23 257.77 398.35 258.57 398.58L261.88 399.52C262.47 399.69 263.34 399.96 264.48 400.33C265.62 400.7 266.51 400.98 267.15 401.16C267.37 401.25 267.54 401.45 267.65 401.74C267.76 402.03 267.83 402.33 267.87 402.63C267.91 402.93 268.01 403.23 268.18 403.52C268.35 403.81 268.6 404.01 268.95 404.1C270.27 404.47 270.94 403.38 270.98 400.84C270.99 400.29 270.97 399.81 270.94 399.4C270.91 398.99 270.83 398.54 270.72 398.07C270.61 397.6 270.42 397.2 270.15 396.89C269.88 396.58 269.55 396.36 269.14 396.24C268.66 396.1 268.32 396.14 268.09 396.35C267.87 396.56 267.75 396.83 267.73 397.16C267.71 397.49 267.64 397.77 267.5 398.01C267.36 398.25 267.13 398.32 266.8 398.22L257.88 395.65C257.48 394.87 257.29 393.87 257.31 392.65L257.53 375.35C257.53 374.96 257.55 374.67 257.56 374.48C257.58 374.29 257.62 374.08 257.7 373.84C257.78 373.6 257.89 373.41 258.04 373.27L279.87 380.1C280.14 380.18 280.39 380.33 280.63 380.54C280.87 380.75 281.01 380.98 281.06 381.24L280.99 385.62C280.99 385.73 280.99 385.88 280.98 386.07C280.95 387.71 280.9 388.68 280.83 388.98C280.75 389.28 280.52 389.37 280.12 389.25C277.33 388.41 273.21 387.19 267.73 385.6C267.68 386.05 267.63 386.73 267.56 387.64C267.49 388.56 267.44 389.24 267.39 389.68C268.06 389.33 268.91 389.15 269.95 389.16C270.98 389.16 271.99 389.31 272.99 389.61C275.89 390.48 278.18 392.19 279.88 394.75C281.57 397.29 282.39 400.16 282.34 403.35C282.31 405.24 282.03 406.86 281.5 408.23C280.97 409.6 280.28 410.66 279.43 411.4C278.58 412.14 277.58 412.69 276.42 413.02C275.26 413.36 274.08 413.5 272.86 413.45C271.64 413.4 270.37 413.19 269.06 412.84C268.18 412.6 267.35 412.34 266.58 412.05C265.81 411.76 264.99 411.4 264.15 410.98C263.3 410.55 262.52 410.07 261.82 409.55C261.11 409.03 260.43 408.4 259.75 407.67C259.08 406.94 258.5 406.15 258.02 405.3C257.54 404.45 257.12 403.46 256.79 402.33C256.43 401.2 256.21 399.99 256.12 398.71Z"
            fill="url(#paint68_linear_78_10273)" />
        <path d="M296.9 420.37C295.5 419.99 294.23 419.49 293.09 418.86C291.94 418.23 290.95 417.52 290.1 416.74C289.25 415.96 288.51 415.05 287.86 414.03C287.21 413 286.68 411.95 286.25 410.86C285.83 409.78 285.47 408.57 285.19 407.24C284.91 405.91 284.69 404.61 284.55 403.34C284.41 402.07 284.31 400.67 284.24 399.13C284.42 387.77 288.96 383.05 297.73 384.98C299.22 385.45 300.59 386.08 301.81 386.87C303.03 387.66 304.07 388.53 304.92 389.47C305.77 390.41 306.52 391.47 307.17 392.65C307.82 393.82 308.33 395 308.71 396.17C309.09 397.34 309.39 398.57 309.62 399.88C309.85 401.18 310 402.41 310.08 403.55C310.15 404.7 310.18 405.87 310.16 407.07C310.11 409.82 309.73 412.18 309.04 414.15C308.34 416.12 307.4 417.64 306.21 418.69C305.02 419.75 303.64 420.42 302.06 420.71C300.5 420.99 298.77 420.88 296.9 420.37ZM294.36 402.98C294.35 403.56 294.35 404.07 294.35 404.51C294.35 404.96 294.37 405.51 294.41 406.16C294.44 406.81 294.49 407.39 294.56 407.89C294.63 408.39 294.73 408.92 294.86 409.48C294.99 410.04 295.16 410.51 295.35 410.91C295.54 411.3 295.79 411.65 296.09 411.95C296.39 412.25 296.73 412.45 297.11 412.56C297.54 412.68 297.93 412.68 298.27 412.56C298.61 412.44 298.89 412.25 299.11 412C299.33 411.75 299.52 411.38 299.68 410.88C299.84 410.38 299.96 409.93 300.04 409.54C300.12 409.14 300.19 408.61 300.24 407.94C300.29 407.27 300.32 406.76 300.33 406.41C300.34 406.06 300.35 405.57 300.37 404.94C300.37 404.81 300.37 404.71 300.38 404.65C300.44 404.17 300.48 403.4 300.5 402.34C300.5 402.27 300.51 401.97 300.52 401.46C300.54 400.95 300.55 400.54 300.55 400.22C300.56 399.9 300.54 399.45 300.52 398.85C300.49 398.25 300.45 397.75 300.4 397.35C300.35 396.95 300.25 396.49 300.12 395.96C299.99 395.43 299.82 395 299.63 394.65C299.44 394.3 299.19 393.98 298.89 393.69C298.58 393.4 298.23 393.19 297.84 393.07C297.52 392.97 297.22 392.93 296.95 392.95C296.68 392.97 296.43 393.07 296.22 393.25C296.01 393.43 295.82 393.62 295.66 393.83C295.49 394.03 295.35 394.33 295.23 394.73C295.11 395.12 295 395.48 294.91 395.78C294.82 396.09 294.74 396.51 294.68 397.05C294.62 397.59 294.57 398.03 294.54 398.37C294.5 398.71 294.47 399.19 294.45 399.81C294.43 400.43 294.41 400.89 294.41 401.19C294.41 401.49 294.4 401.94 294.39 402.56C294.36 402.75 294.36 402.89 294.36 402.98Z"
            fill="url(#paint69_linear_78_10273)" />
        <path d="M313.5 424.37C313.24 424.3 313.04 424.21 312.9 424.11C312.76 424.01 312.68 423.91 312.64 423.81C312.6 423.71 312.53 423.53 312.44 423.26L313.03 392.45C313.04 392.13 313.04 391.9 313.05 391.76C313.06 391.62 313.08 391.45 313.12 391.27C313.16 391.09 313.22 390.97 313.3 390.91C313.38 390.85 313.49 390.82 313.63 390.81C313.77 390.8 313.95 390.82 314.17 390.89L321.43 393.16C323.11 393.69 323.94 394.21 323.93 394.72V394.76C323.77 400.06 323.67 404.01 323.62 406.61L328.75 395.6L332.3 396.73C337.1 398.23 339.48 399.12 339.47 399.4C339.47 399.46 339.45 399.48 339.4 399.46C337.11 403.7 334.78 407.92 332.41 412.12L332.4 412.71L333.09 413.46L339.81 430.55C339.81 430.77 339.67 430.98 339.41 431.18L328.53 428.21L323.83 414.97C323.74 415.73 323.67 416.86 323.6 418.34C323.53 419.82 323.49 420.8 323.45 421.26L323.35 426.29C323.26 426.78 322.56 426.84 321.24 426.49L313.5 424.37Z"
            fill="url(#paint70_linear_78_10273)" />
        <path d="M657.15 902.06C647.36 929.72 638.34 952.34 638.34 952.34L619.17 944.71L616.38 1034.51L131.99 1035.09C129.03 978.31 129.93 865.25 178.48 816.71C269.48 831.81 267.63 938.04 385.01 946.21C502.4 954.38 552.71 921.79 576.83 879.18C594.78 847.46 620.58 844.55 617.05 868.78C610.93 910.87 657.15 902.06 657.15 902.06Z"
            fill="#00B8FF" />
        <path d="M212.8 911.64C267.86 899.38 289.23 1037.77 289.23 1037.77H201.73C201.73 1037.77 179.72 919.01 212.8 911.64Z"
            fill="#41E3D6" />
        <path d="M1838.85 1033.02C1823.72 1033.39 1808.99 1033.72 1794.67 1034.01L1792.89 1044.87L1371.61 1058.04L1363.99 990C1363.99 990 1332.3 1014.74 1241.4 1014.74C1230.06 1001.61 1224.41 983.85 1222.34 965.04C1221.79 960.06 1221.49 955 1221.41 949.94C1276.59 957.57 1379.19 897.71 1432.04 864.08C1484.89 830.45 1576.1 814.31 1628.19 807.5C1666.45 802.49 1795.87 822.17 1812.36 788.85C1836.26 846.39 1847.46 930.89 1838.85 1033.02Z"
            fill="#6100EE" />
        <path d="M215.68 381.37C215.68 381.37 197.5 403.34 175.08 396.02C152.66 388.7 134.48 354.87 134.48 354.87C134.48 354.87 152.66 332.9 175.08 340.22C197.5 347.54 215.68 381.37 215.68 381.37Z"
            fill="#73FFE4" />
        <path d="M186.111 385.12C193.062 380.604 193.643 369.161 187.406 359.56C181.17 349.959 170.479 345.836 163.527 350.351C156.576 354.867 155.995 366.31 162.232 375.912C168.468 385.513 179.159 389.635 186.111 385.12Z"
            fill="#0A7CB0" />
        <path d="M1609.33 241.03L1609.23 250.09L1602.05 255.36L1601.94 264.81L1594.87 269.99L1594.98 260.54L1587.82 265.79L1587.93 256.75L1595.08 251.5L1595.19 242.33L1602.25 237.14L1602.14 246.31L1609.33 241.03Z"
            fill="url(#paint71_linear_78_10273)" />
        <path d="M1642.07 229.09L1641.98 238.7L1639.06 240.84L1639.01 246.43L1628.81 253.89L1628.86 248.3L1614.19 259.04L1614.29 249.83L1628.51 214.02L1639.39 206.01L1639.16 231.22L1642.07 229.09ZM1628.96 238.7L1629.07 227.75L1623.35 242.82L1628.96 238.7Z"
            fill="url(#paint72_linear_78_10273)" />
        <path d="M1679.23 217.02L1665.47 227.08L1657.12 215.7L1656.98 233.29L1645.8 241.47L1646.17 199.54L1657.32 191.33L1657.19 207.61L1665.15 185.57L1678.78 175.53L1667.14 204.36L1679.23 217.02Z"
            fill="url(#paint73_linear_78_10273)" />
        <path d="M1723.97 146.39L1718.11 161.01C1715.95 160.72 1713.72 161.42 1711.42 163.11C1709.16 164.77 1707.36 166.98 1706.03 169.73C1704.7 172.48 1704.03 175.16 1704.02 177.77C1704.01 179.57 1704.32 180.95 1704.94 181.89C1705.56 182.83 1706.42 183.29 1707.52 183.27C1708.62 183.25 1709.84 182.74 1711.19 181.75C1712.39 180.87 1713.69 179.61 1715.11 177.94C1716.53 176.28 1717.79 174.52 1718.9 172.67L1724.39 178.87C1722.64 182.23 1720.63 185.27 1718.33 187.97C1716.04 190.67 1713.65 192.93 1711.16 194.75C1707.67 197.31 1704.49 198.68 1701.62 198.87C1698.76 199.06 1696.51 198.07 1694.89 195.88C1693.26 193.69 1692.47 190.48 1692.49 186.23C1692.52 181.98 1693.36 177.57 1695.02 172.98C1696.68 168.39 1698.97 164.08 1701.88 160.05C1704.79 156.01 1708.03 152.68 1711.61 150.04C1714 148.28 1716.25 147.07 1718.37 146.41C1720.51 145.73 1722.37 145.73 1723.97 146.39Z"
            fill="url(#paint74_linear_78_10273)" />
        <path d="M1756.61 122.37L1750.73 137.04C1748.55 136.76 1746.3 137.47 1743.99 139.17C1741.71 140.85 1739.9 143.07 1738.57 145.83C1737.24 148.59 1736.56 151.28 1736.56 153.89C1736.55 155.7 1736.86 157.08 1737.49 158.02C1738.12 158.96 1738.99 159.42 1740.09 159.39C1741.2 159.36 1742.43 158.85 1743.79 157.85C1744.99 156.97 1746.31 155.69 1747.74 154.02C1749.17 152.35 1750.44 150.58 1751.56 148.72L1757.12 154.91C1755.37 158.29 1753.33 161.33 1751.03 164.05C1748.72 166.76 1746.32 169.04 1743.81 170.87C1740.29 173.44 1737.08 174.83 1734.19 175.04C1731.3 175.25 1729.03 174.25 1727.39 172.07C1725.75 169.89 1724.93 166.67 1724.95 162.41C1724.97 158.15 1725.81 153.72 1727.48 149.11C1729.15 144.5 1731.45 140.17 1734.38 136.12C1737.31 132.06 1740.58 128.71 1744.18 126.05C1746.59 124.28 1748.86 123.06 1750.99 122.38C1753.12 121.72 1754.99 121.72 1756.61 122.37Z"
            fill="url(#paint75_linear_78_10273)" />
        <path d="M1789.78 128.06C1788.43 132.06 1786.54 135.73 1784.11 139.06C1781.68 142.4 1778.88 145.22 1775.71 147.54C1772.55 149.85 1769.75 151.12 1767.33 151.34C1764.91 151.56 1763.03 150.65 1761.7 148.63C1760.37 146.61 1759.71 143.5 1759.71 139.31L1759.76 115.9L1771.21 107.47L1771.18 130.9C1771.18 132.75 1771.52 134.12 1772.2 134.98C1772.88 135.85 1774.06 135.68 1775.72 134.46C1777.38 133.24 1778.56 131.7 1779.24 129.82C1779.93 127.94 1780.27 126.08 1780.27 124.22L1780.29 100.78L1791.79 92.3101V115.77C1791.8 119.97 1791.13 124.07 1789.78 128.06Z"
            fill="url(#paint76_linear_78_10273)" />
    </g>
    <defs>
        <linearGradient id="paint0_linear_78_10273"
            x1="1760.6"
            y1="203.534"
            x2="1760.6"
            y2="306.177"
            gradientUnits="userSpaceOnUse">
            <stop stop-color="#66F2BF" />
            <stop offset="1"
                stop-color="#0FAFBA" />
        </linearGradient>
        <linearGradient id="paint1_linear_78_10273"
            x1="2098.12"
            y1="228.446"
            x2="1756.51"
            y2="651.254"
            gradientUnits="userSpaceOnUse">
            <stop stop-color="#66F2BF" />
            <stop offset="1"
                stop-color="#0F5A8A" />
        </linearGradient>
        <linearGradient id="paint2_linear_78_10273"
            x1="2115.44"
            y1="242.437"
            x2="1773.82"
            y2="665.246"
            gradientUnits="userSpaceOnUse">
            <stop stop-color="#66F2BF" />
            <stop offset="1"
                stop-color="#0F5A8A" />
        </linearGradient>
        <linearGradient id="paint3_linear_78_10273"
            x1="2087.58"
            y1="219.929"
            x2="1745.96"
            y2="642.738"
            gradientUnits="userSpaceOnUse">
            <stop stop-color="#66F2BF" />
            <stop offset="1"
                stop-color="#0F5A8A" />
        </linearGradient>
        <linearGradient id="paint4_linear_78_10273"
            x1="2087.27"
            y1="219.678"
            x2="1745.65"
            y2="642.487"
            gradientUnits="userSpaceOnUse">
            <stop stop-color="#66F2BF" />
            <stop offset="1"
                stop-color="#0F5A8A" />
        </linearGradient>
        <linearGradient id="paint5_linear_78_10273"
            x1="2085.85"
            y1="218.528"
            x2="1744.23"
            y2="641.337"
            gradientUnits="userSpaceOnUse">
            <stop stop-color="#66F2BF" />
            <stop offset="1"
                stop-color="#0F5A8A" />
        </linearGradient>
        <linearGradient id="paint6_linear_78_10273"
            x1="2088.12"
            y1="220.36"
            x2="1746.5"
            y2="643.17"
            gradientUnits="userSpaceOnUse">
            <stop stop-color="#66F2BF" />
            <stop offset="1"
                stop-color="#0F5A8A" />
        </linearGradient>
        <linearGradient id="paint7_linear_78_10273"
            x1="1469.88"
            y1="757.211"
            x2="1469.88"
            y2="76.6321"
            gradientUnits="userSpaceOnUse">
            <stop stop-color="#00AB15" />
            <stop offset="0.6704"
                stop-color="#35FF53" />
            <stop offset="1"
                stop-color="#35FFFF" />
        </linearGradient>
        <linearGradient id="paint8_linear_78_10273"
            x1="-27.5702"
            y1="285.891"
            x2="185.99"
            y2="285.891"
            gradientUnits="userSpaceOnUse">
            <stop stop-color="#00C2FA" />
            <stop offset="1"
                stop-color="#125AFF" />
        </linearGradient>
        <linearGradient id="paint9_linear_78_10273"
            x1="53.1508"
            y1="853.938"
            x2="164.542"
            y2="853.938"
            gradientUnits="userSpaceOnUse">
            <stop stop-color="#4E60FF" />
            <stop offset="1"
                stop-color="#4E3EFF" />
        </linearGradient>
        <linearGradient id="paint10_linear_78_10273"
            x1="-22.3188"
            y1="539.868"
            x2="325.641"
            y2="539.868"
            gradientUnits="userSpaceOnUse">
            <stop stop-color="#4E7AFF" />
            <stop offset="1"
                stop-color="#1C20B2" />
        </linearGradient>
        <linearGradient id="paint11_linear_78_10273"
            x1="70.9732"
            y1="535.874"
            x2="258.111"
            y2="535.874"
            gradientUnits="userSpaceOnUse">
            <stop stop-color="#18B3FF" />
            <stop offset="1"
                stop-color="#1C66FF" />
        </linearGradient>
        <linearGradient id="paint12_linear_78_10273"
            x1="92.2995"
            y1="861.522"
            x2="177.016"
            y2="861.522"
            gradientUnits="userSpaceOnUse">
            <stop stop-color="#2BBDD3" />
            <stop offset="1"
                stop-color="#09B9F6"
                stop-opacity="0.2151" />
        </linearGradient>
        <linearGradient id="paint13_linear_78_10273"
            x1="1481.35"
            y1="758.485"
            x2="1980.75"
            y2="658.91"
            gradientUnits="userSpaceOnUse">
            <stop offset="5.43435e-07"
                stop-color="#276ADC" />
            <stop offset="1"
                stop-color="#49BC6C" />
        </linearGradient>
        <linearGradient id="paint14_linear_78_10273"
            x1="726.819"
            y1="768.398"
            x2="817.968"
            y2="982.866"
            gradientUnits="userSpaceOnUse">
            <stop offset="0.014"
                stop-color="#B25FF1" />
            <stop offset="0.4273"
                stop-color="#8A5FF1" />
            <stop offset="1"
                stop-color="#8172FD" />
        </linearGradient>
        <radialGradient id="paint15_radial_78_10273"
            cx="0"
            cy="0"
            r="1"
            gradientUnits="userSpaceOnUse"
            gradientTransform="translate(741.861 868.78) scale(178.369 178.369)">
            <stop offset="0.1657"
                stop-color="#D66DFF" />
            <stop offset="1"
                stop-color="#A35FF1"
                stop-opacity="0" />
        </radialGradient>
        <linearGradient id="paint16_linear_78_10273"
            x1="302.15"
            y1="709.504"
            x2="450.771"
            y2="709.504"
            gradientUnits="userSpaceOnUse">
            <stop offset="0.3766"
                stop-color="#A242FF" />
            <stop offset="1"
                stop-color="#BE5FF1" />
        </linearGradient>
        <linearGradient id="paint17_linear_78_10273"
            x1="378.726"
            y1="640.199"
            x2="347.066"
            y2="744.369"
            gradientUnits="userSpaceOnUse">
            <stop offset="0.4106"
                stop-color="#8A5FF1" />
            <stop offset="1"
                stop-color="#8848E3"
                stop-opacity="0" />
        </linearGradient>
        <linearGradient id="paint18_linear_78_10273"
            x1="318.19"
            y1="567.722"
            x2="450.19"
            y2="662.956"
            gradientUnits="userSpaceOnUse">
            <stop offset="0.3822"
                stop-color="#9547F1" />
            <stop offset="1"
                stop-color="#BE5FF1" />
        </linearGradient>
        <radialGradient id="paint19_radial_78_10273"
            cx="0"
            cy="0"
            r="1"
            gradientUnits="userSpaceOnUse"
            gradientTransform="translate(357.446 556.168) scale(135.504 135.504)">
            <stop offset="0.5146"
                stop-color="#1D1259" />
            <stop offset="1"
                stop-color="#8848E3" />
        </radialGradient>
        <linearGradient id="paint20_linear_78_10273"
            x1="328.807"
            y1="602.374"
            x2="472.891"
            y2="602.374"
            gradientUnits="userSpaceOnUse">
            <stop stop-color="#4EE2F1" />
            <stop offset="1"
                stop-color="white" />
        </linearGradient>
        <linearGradient id="paint21_linear_78_10273"
            x1="1174.93"
            y1="822.589"
            x2="1092.43"
            y2="930.441"
            gradientUnits="userSpaceOnUse">
            <stop stop-color="#00B7FF" />
            <stop offset="0.7704"
                stop-color="#008CFF" />
            <stop offset="1"
                stop-color="#009EFF" />
        </linearGradient>
        <linearGradient id="paint22_linear_78_10273"
            x1="43.4934"
            y1="361.694"
            x2="43.4934"
            y2="267.648"
            gradientUnits="userSpaceOnUse">
            <stop stop-color="#00B8FF"
                stop-opacity="0" />
            <stop offset="1"
                stop-color="#54D4A6" />
        </linearGradient>
        <linearGradient id="paint23_linear_78_10273"
            x1="192.106"
            y1="200.341"
            x2="172.957"
            y2="296.852"
            gradientUnits="userSpaceOnUse">
            <stop stop-color="#54D4A6" />
            <stop offset="1"
                stop-color="#00B8FF"
                stop-opacity="0" />
        </linearGradient>
        <linearGradient id="paint24_linear_78_10273"
            x1="143.019"
            y1="237.008"
            x2="262.013"
            y2="237.008"
            gradientUnits="userSpaceOnUse">
            <stop stop-color="#4E34FF" />
            <stop offset="1"
                stop-color="#1032CE" />
        </linearGradient>
        <linearGradient id="paint25_linear_78_10273"
            x1="92.2997"
            y1="788.418"
            x2="154.659"
            y2="788.418"
            gradientUnits="userSpaceOnUse">
            <stop stop-color="#2BBDD3" />
            <stop offset="1"
                stop-color="#09B9F6"
                stop-opacity="0.2151" />
        </linearGradient>
        <linearGradient id="paint26_linear_78_10273"
            x1="127.511"
            y1="759.89"
            x2="242.191"
            y2="664.182"
            gradientUnits="userSpaceOnUse">
            <stop stop-color="#0278FF" />
            <stop offset="1"
                stop-color="#2BCCF1"
                stop-opacity="0" />
        </linearGradient>
        <linearGradient id="paint27_linear_78_10273"
            x1="67.9232"
            y1="805.611"
            x2="152.689"
            y2="794.376"
            gradientUnits="userSpaceOnUse">
            <stop stop-color="#2BBDD3" />
            <stop offset="1"
                stop-color="#09B9F6"
                stop-opacity="0.2151" />
        </linearGradient>
        <linearGradient id="paint28_linear_78_10273"
            x1="71.8098"
            y1="834.936"
            x2="156.576"
            y2="823.702"
            gradientUnits="userSpaceOnUse">
            <stop stop-color="#2BBDD3" />
            <stop offset="1"
                stop-color="#09B9F6"
                stop-opacity="0.2151" />
        </linearGradient>
        <linearGradient id="paint29_linear_78_10273"
            x1="73.051"
            y1="844.301"
            x2="157.817"
            y2="833.067"
            gradientUnits="userSpaceOnUse">
            <stop stop-color="#2BBDD3" />
            <stop offset="1"
                stop-color="#09B9F6"
                stop-opacity="0.2151" />
        </linearGradient>
        <linearGradient id="paint30_linear_78_10273"
            x1="78.1784"
            y1="882.99"
            x2="162.944"
            y2="871.756"
            gradientUnits="userSpaceOnUse">
            <stop stop-color="#2BBDD3" />
            <stop offset="1"
                stop-color="#09B9F6"
                stop-opacity="0.2151" />
        </linearGradient>
        <linearGradient id="paint31_linear_78_10273"
            x1="347.492"
            y1="603.726"
            x2="470.681"
            y2="603.726"
            gradientUnits="userSpaceOnUse">
            <stop stop-color="#100C46" />
            <stop offset="1"
                stop-color="#E646F1" />
        </linearGradient>
        <radialGradient id="paint32_radial_78_10273"
            cx="0"
            cy="0"
            r="1"
            gradientUnits="userSpaceOnUse"
            gradientTransform="translate(311.531 501.298) scale(14.5848 14.5848)">
            <stop stop-color="#100C46" />
            <stop offset="0.49"
                stop-color="#1D1259" />
            <stop offset="1"
                stop-color="#512CA5" />
        </radialGradient>
        <radialGradient id="paint33_radial_78_10273"
            cx="0"
            cy="0"
            r="1"
            gradientUnits="userSpaceOnUse"
            gradientTransform="translate(293.752 599.193) scale(0.608206 0.608205)">
            <stop stop-color="#100C46" />
            <stop offset="0.49"
                stop-color="#1D1259" />
            <stop offset="1"
                stop-color="#512CA5" />
        </radialGradient>
        <linearGradient id="paint34_linear_78_10273"
            x1="376.941"
            y1="639.682"
            x2="415.069"
            y2="583.852"
            gradientUnits="userSpaceOnUse">
            <stop stop-color="#8A5FF1"
                stop-opacity="0" />
            <stop offset="1"
                stop-color="#683EDA" />
        </linearGradient>
        <linearGradient id="paint35_linear_78_10273"
            x1="924.911"
            y1="741.063"
            x2="1003.46"
            y2="789.143"
            gradientUnits="userSpaceOnUse">
            <stop offset="0.3822"
                stop-color="#8A5FF1" />
            <stop offset="1"
                stop-color="#BE5FF1" />
        </linearGradient>
        <linearGradient id="paint36_linear_78_10273"
            x1="1001.03"
            y1="691.243"
            x2="964.774"
            y2="798.99"
            gradientUnits="userSpaceOnUse">
            <stop stop-color="#0095EB" />
            <stop offset="0.3223"
                stop-color="#008CFF" />
        </linearGradient>
        <linearGradient id="paint37_linear_78_10273"
            x1="972.593"
            y1="727.824"
            x2="997.614"
            y2="658.377"
            gradientUnits="userSpaceOnUse">
            <stop offset="0.3822"
                stop-color="#8A5FF1" />
            <stop offset="1"
                stop-color="#BE5FF1" />
        </linearGradient>
        <linearGradient id="paint38_linear_78_10273"
            x1="992.415"
            y1="734.966"
            x2="1017.44"
            y2="665.519"
            gradientUnits="userSpaceOnUse">
            <stop offset="0.3822"
                stop-color="#8A5FF1" />
            <stop offset="1"
                stop-color="#BE5FF1" />
        </linearGradient>
        <linearGradient id="paint39_linear_78_10273"
            x1="1008.67"
            y1="740.824"
            x2="1033.69"
            y2="671.377"
            gradientUnits="userSpaceOnUse">
            <stop offset="0.3822"
                stop-color="#8A5FF1" />
            <stop offset="1"
                stop-color="#BE5FF1" />
        </linearGradient>
        <linearGradient id="paint40_linear_78_10273"
            x1="950.979"
            y1="720.037"
            x2="976"
            y2="650.59"
            gradientUnits="userSpaceOnUse">
            <stop offset="0.3822"
                stop-color="#8A5FF1" />
            <stop offset="1"
                stop-color="#BE5FF1" />
        </linearGradient>
        <linearGradient id="paint41_linear_78_10273"
            x1="907.214"
            y1="774.237"
            x2="946.566"
            y2="685.006"
            gradientUnits="userSpaceOnUse">
            <stop offset="0.3822"
                stop-color="#8A5FF1" />
            <stop offset="1"
                stop-color="#BE5FF1" />
        </linearGradient>
        <linearGradient id="paint42_linear_78_10273"
            x1="1010.89"
            y1="805.396"
            x2="1103.39"
            y2="805.396"
            gradientUnits="userSpaceOnUse">
            <stop stop-color="#4EE2F1" />
            <stop offset="1"
                stop-color="white" />
        </linearGradient>
        <linearGradient id="paint43_linear_78_10273"
            x1="1442.27"
            y1="737.624"
            x2="1577.08"
            y2="1001.11"
            gradientUnits="userSpaceOnUse">
            <stop stop-color="#9800CF" />
            <stop offset="1"
                stop-color="#5D00FF" />
        </linearGradient>
        <linearGradient id="paint44_linear_78_10273"
            x1="1504.84"
            y1="632.743"
            x2="1666.22"
            y2="646.068"
            gradientUnits="userSpaceOnUse">
            <stop stop-color="#30BCFF" />
            <stop offset="0.3179"
                stop-color="#0099FF" />
            <stop offset="0.6888"
                stop-color="#0099FF" />
            <stop offset="1"
                stop-color="#16C7B8" />
        </linearGradient>
        <linearGradient id="paint45_linear_78_10273"
            x1="1571.55"
            y1="620.464"
            x2="1618.53"
            y2="674.081"
            gradientUnits="userSpaceOnUse">
            <stop offset="0.2095"
                stop-color="#007CFF" />
            <stop offset="1"
                stop-color="#007CFF"
                stop-opacity="0" />
        </linearGradient>
        <linearGradient id="paint46_linear_78_10273"
            x1="1433.07"
            y1="575.585"
            x2="1622.45"
            y2="601.404"
            gradientUnits="userSpaceOnUse">
            <stop stop-color="#15DFFF" />
            <stop offset="0.4654"
                stop-color="#0099FF" />
        </linearGradient>
        <linearGradient id="paint47_linear_78_10273"
            x1="1379.2"
            y1="517.25"
            x2="1546.69"
            y2="574.441"
            gradientUnits="userSpaceOnUse">
            <stop offset="0.4393"
                stop-color="white" />
            <stop offset="1"
                stop-color="#8AF7FF" />
        </linearGradient>
        <linearGradient id="paint48_linear_78_10273"
            x1="1453.69"
            y1="560.672"
            x2="1555.9"
            y2="560.672"
            gradientUnits="userSpaceOnUse">
            <stop stop-color="#693EDB" />
            <stop offset="1"
                stop-color="#100C46" />
        </linearGradient>
        <linearGradient id="paint49_linear_78_10273"
            x1="1817.21"
            y1="485.769"
            x2="1817.21"
            y2="714.556"
            gradientUnits="userSpaceOnUse">
            <stop stop-color="#2BBDD3" />
            <stop offset="1"
                stop-color="#09B9F6"
                stop-opacity="0" />
        </linearGradient>
        <linearGradient id="paint50_linear_78_10273"
            x1="1711.2"
            y1="578.818"
            x2="1869.49"
            y2="578.818"
            gradientUnits="userSpaceOnUse">
            <stop stop-color="#7CADD6" />
            <stop offset="1"
                stop-color="#B8FFD0" />
        </linearGradient>
        <linearGradient id="paint51_linear_78_10273"
            x1="1478.88"
            y1="498.878"
            x2="1503.39"
            y2="586.197"
            gradientUnits="userSpaceOnUse">
            <stop stop-color="#623EC8"
                stop-opacity="0" />
            <stop offset="1"
                stop-color="#623EC8"
                stop-opacity="0.5" />
        </linearGradient>
        <linearGradient id="paint52_linear_78_10273"
            x1="1832.8"
            y1="588.129"
            x2="1720.97"
            y2="582.767"
            gradientUnits="userSpaceOnUse">
            <stop offset="0.00949762"
                stop-color="#46BC72" />
            <stop offset="1"
                stop-color="#39995D" />
        </linearGradient>
        <linearGradient id="paint53_linear_78_10273"
            x1="1832.1"
            y1="602.766"
            x2="1720.27"
            y2="597.404"
            gradientUnits="userSpaceOnUse">
            <stop offset="0.00949762"
                stop-color="#46BC72" />
            <stop offset="1"
                stop-color="#39995D" />
        </linearGradient>
        <linearGradient id="paint54_linear_78_10273"
            x1="118.73"
            y1="85.2738"
            x2="350.815"
            y2="207.061"
            gradientUnits="userSpaceOnUse">
            <stop stop-color="#00C2FA" />
            <stop offset="1"
                stop-color="#1646F7" />
        </linearGradient>
        <linearGradient id="paint55_linear_78_10273"
            x1="123.102"
            y1="76.9415"
            x2="355.188"
            y2="198.729"
            gradientUnits="userSpaceOnUse">
            <stop stop-color="#00C2FA" />
            <stop offset="1"
                stop-color="#1646F7" />
        </linearGradient>
        <linearGradient id="paint56_linear_78_10273"
            x1="118.774"
            y1="85.1909"
            x2="350.859"
            y2="206.978"
            gradientUnits="userSpaceOnUse">
            <stop stop-color="#00C2FA" />
            <stop offset="1"
                stop-color="#1646F7" />
        </linearGradient>
        <linearGradient id="paint57_linear_78_10273"
            x1="118.16"
            y1="86.3615"
            x2="350.245"
            y2="208.149"
            gradientUnits="userSpaceOnUse">
            <stop stop-color="#00C2FA" />
            <stop offset="1"
                stop-color="#1646F7" />
        </linearGradient>
        <linearGradient id="paint58_linear_78_10273"
            x1="117.621"
            y1="87.3885"
            x2="349.706"
            y2="209.176"
            gradientUnits="userSpaceOnUse">
            <stop stop-color="#00C2FA" />
            <stop offset="1"
                stop-color="#1646F7" />
        </linearGradient>
        <linearGradient id="paint59_linear_78_10273"
            x1="117.226"
            y1="88.1406"
            x2="349.311"
            y2="209.928"
            gradientUnits="userSpaceOnUse">
            <stop stop-color="#00C2FA" />
            <stop offset="1"
                stop-color="#1646F7" />
        </linearGradient>
        <linearGradient id="paint60_linear_78_10273"
            x1="116.72"
            y1="89.1046"
            x2="348.805"
            y2="210.892"
            gradientUnits="userSpaceOnUse">
            <stop stop-color="#00C2FA" />
            <stop offset="1"
                stop-color="#1646F7" />
        </linearGradient>
        <linearGradient id="paint61_linear_78_10273"
            x1="116.091"
            y1="90.3031"
            x2="348.176"
            y2="212.09"
            gradientUnits="userSpaceOnUse">
            <stop stop-color="#00C2FA" />
            <stop offset="1"
                stop-color="#1646F7" />
        </linearGradient>
        <linearGradient id="paint62_linear_78_10273"
            x1="53.5447"
            y1="663.522"
            x2="56.949"
            y2="725.479"
            gradientUnits="userSpaceOnUse">
            <stop stop-color="#2BBDD3" />
            <stop offset="1"
                stop-color="#09B9F6"
                stop-opacity="0.2151" />
        </linearGradient>
        <linearGradient id="paint63_linear_78_10273"
            x1="205.158"
            y1="359.386"
            x2="205.158"
            y2="428.339"
            gradientUnits="userSpaceOnUse">
            <stop stop-color="#3089FF" />
            <stop offset="1"
                stop-color="#00B8FF"
                stop-opacity="0" />
        </linearGradient>
        <linearGradient id="paint64_linear_78_10273"
            x1="234.863"
            y1="359.386"
            x2="234.863"
            y2="428.34"
            gradientUnits="userSpaceOnUse">
            <stop stop-color="#3089FF" />
            <stop offset="1"
                stop-color="#00B8FF"
                stop-opacity="0" />
        </linearGradient>
        <linearGradient id="paint65_linear_78_10273"
            x1="262.844"
            y1="359.386"
            x2="262.844"
            y2="428.339"
            gradientUnits="userSpaceOnUse">
            <stop stop-color="#3089FF" />
            <stop offset="1"
                stop-color="#00B8FF"
                stop-opacity="0" />
        </linearGradient>
        <linearGradient id="paint66_linear_78_10273"
            x1="291.771"
            y1="359.386"
            x2="291.771"
            y2="428.34"
            gradientUnits="userSpaceOnUse">
            <stop stop-color="#3089FF" />
            <stop offset="1"
                stop-color="#00B8FF"
                stop-opacity="0" />
        </linearGradient>
        <linearGradient id="paint67_linear_78_10273"
            x1="338.481"
            y1="409.329"
            x2="229.715"
            y2="383.286"
            gradientUnits="userSpaceOnUse">
            <stop stop-color="#00C2FA" />
            <stop offset="1"
                stop-color="#73FFE4" />
        </linearGradient>
        <linearGradient id="paint68_linear_78_10273"
            x1="338.102"
            y1="410.912"
            x2="229.336"
            y2="384.869"
            gradientUnits="userSpaceOnUse">
            <stop stop-color="#00C2FA" />
            <stop offset="1"
                stop-color="#73FFE4" />
        </linearGradient>
        <linearGradient id="paint69_linear_78_10273"
            x1="337.755"
            y1="412.36"
            x2="228.989"
            y2="386.317"
            gradientUnits="userSpaceOnUse">
            <stop stop-color="#00C2FA" />
            <stop offset="1"
                stop-color="#73FFE4" />
        </linearGradient>
        <linearGradient id="paint70_linear_78_10273"
            x1="337.463"
            y1="413.579"
            x2="228.697"
            y2="387.537"
            gradientUnits="userSpaceOnUse">
            <stop stop-color="#00C2FA" />
            <stop offset="1"
                stop-color="#73FFE4" />
        </linearGradient>
        <linearGradient id="paint71_linear_78_10273"
            x1="1785.98"
            y1="99.6458"
            x2="1584.53"
            y2="265.093"
            gradientUnits="userSpaceOnUse">
            <stop offset="0.00949762"
                stop-color="#46BC72" />
            <stop offset="1"
                stop-color="#39995D" />
        </linearGradient>
        <linearGradient id="paint72_linear_78_10273"
            x1="1788.71"
            y1="102.971"
            x2="1587.26"
            y2="268.418"
            gradientUnits="userSpaceOnUse">
            <stop offset="0.00949762"
                stop-color="#46BC72" />
            <stop offset="1"
                stop-color="#39995D" />
        </linearGradient>
        <linearGradient id="paint73_linear_78_10273"
            x1="1789.6"
            y1="104.054"
            x2="1588.15"
            y2="269.5"
            gradientUnits="userSpaceOnUse">
            <stop offset="0.00949762"
                stop-color="#46BC72" />
            <stop offset="1"
                stop-color="#39995D" />
        </linearGradient>
        <linearGradient id="paint74_linear_78_10273"
            x1="1791.61"
            y1="106.504"
            x2="1590.16"
            y2="271.951"
            gradientUnits="userSpaceOnUse">
            <stop offset="0.00949762"
                stop-color="#46BC72" />
            <stop offset="1"
                stop-color="#39995D" />
        </linearGradient>
        <linearGradient id="paint75_linear_78_10273"
            x1="1793.01"
            y1="108.205"
            x2="1591.56"
            y2="273.652"
            gradientUnits="userSpaceOnUse">
            <stop offset="0.00949762"
                stop-color="#46BC72" />
            <stop offset="1"
                stop-color="#39995D" />
        </linearGradient>
        <linearGradient id="paint76_linear_78_10273"
            x1="1794.38"
            y1="109.875"
            x2="1592.93"
            y2="275.323"
            gradientUnits="userSpaceOnUse">
            <stop offset="0.00949762"
                stop-color="#46BC72" />
            <stop offset="1"
                stop-color="#39995D" />
        </linearGradient>
        <clipPath id="clip0_78_10273">
            <rect width="1920"
                height="1030.47"
                fill="white" />
        </clipPath>
    </defs>
</svg>
