<?xml version="1.0" encoding="UTF-8"?>
<svg id="Layer_1" data-name="Layer 1" xmlns="http://www.w3.org/2000/svg" viewBox="0 0 512 512">
  <defs>
    <style>
      .cls-1 {
        fill: #f3f3f3;
      }

      .cls-2, .cls-3 {
        fill: #002b13;
      }

      .cls-4, .cls-5 {
        fill: #00ca5e;
      }

      .cls-6, .cls-7 {
        fill: #f26945;
      }

      .cls-8 {
        fill: #fff;
      }

      .cls-9 {
        fill: #ffc780;
      }

      .cls-10 {
        fill: #e4e4e4;
      }

      .cls-11 {
        fill: #803403;
      }

      .cls-12 {
        fill: #d0d0d0;
      }

      .cls-13 {
        fill: #954212;
      }

      .cls-14 {
        stroke: #f26945;
      }

      .cls-14, .cls-15 {
        fill: none;
        stroke-linecap: round;
        stroke-linejoin: round;
        stroke-width: 1.15px;
      }

      .cls-15 {
        stroke: #fff;
      }

      .cls-3, .cls-5, .cls-16 {
        opacity: .2;
      }

      .cls-7 {
        opacity: .5;
      }
    </style>
  </defs>
  <g id="_1_-_Error_404" data-name="1 - Error 404">
    <path class="cls-1" d="M460.8,269.7c-11.21,69.89-43.84,131.7-82.03,169.04-38.77,38.01-83.11,51.53-131.03,40.2-47.88-11.35-92.63-42.5-131.29-77.27-38.13-35.46-70.17-74.54-80.49-117.84-10.32-43.24,5.11-85.6,43.78-125.32,38.14-39.02,99.53-75.4,168.99-90.61,69.41-15.29,131.36-3.6,169.54,33.54,38.76,36.48,53.74,98.41,42.53,168.24Z"/>
    <g>
      <path class="cls-10" d="M371.12,216.23l2.19-2.05-.88-1.73c.67-.78,1.27-1.61,1.78-2.48l1.92,.29,1.24-2.74-1.47-1.25c.32-.97,.55-1.96,.7-2.97l1.89-.47,.1-3-1.84-.6c-.08-1.02-.24-2.02-.48-3.01l1.55-1.16-1.06-2.81-1.93,.15c-.46-.89-.99-1.76-1.61-2.59l1-1.66-2.05-2.2-1.72,.88c-.79-.67-1.61-1.27-2.48-1.78l.28-1.92-2.74-1.25-1.25,1.47c-.97-.31-1.97-.54-2.97-.69l-.47-1.88-3-.11-.6,1.85c-1.01,.08-2.02,.24-3.01,.49l-1.15-1.56-2.82,1.05,.16,1.93c-.89,.46-1.77,.99-2.59,1.61l-1.67-1-2.19,2.05,.88,1.73c-.68,.78-1.26,1.61-1.78,2.48l-1.92-.29-1.24,2.74,1.47,1.25c-.32,.97-.55,1.96-.7,2.97l-1.89,.47-.1,3,1.84,.59c.08,1.01,.24,2.02,.48,3.01l-1.56,1.15,1.06,2.81,1.93-.15c.46,.89,.99,1.76,1.61,2.59l-1,1.66,2.05,2.2,1.72-.88c.79,.67,1.61,1.26,2.48,1.78l-.28,1.91,2.74,1.25,1.26-1.47c.97,.31,1.96,.54,2.97,.69l.47,1.88,3,.11,.6-1.85c1.01-.08,2.02-.24,3.01-.49l1.15,1.56,2.82-1.05-.16-1.93c.89-.46,1.76-.99,2.59-1.61l1.66,.99Zm-15.63-12.66c-1.61-1.73-1.52-4.44,.21-6.05,1.73-1.62,4.44-1.52,6.05,.21,1.61,1.73,1.52,4.44-.21,6.05-1.73,1.61-4.44,1.52-6.05-.21Z"/>
      <path class="cls-10" d="M370.61,389.48l-8.29-5.72s0-.01,0-.02c-.82-3.01-1.95-5.91-3.33-8.63l2.12-8.33-12.02-12.87-8.46,1.55c-2.62-1.56-5.43-2.89-8.38-3.91,0,0-.01,0-.02,0l-5.14-8.66-17.6-.6-5.72,8.29s-.02,0-.03,0c-3.01,.82-5.9,1.95-8.62,3.33l-8.33-2.12-12.87,12.02,1.55,8.44s0,0,0,0c-1.6,2.65-2.89,5.46-3.91,8.41l-8.66,5.14-.6,17.6,8.29,5.73c.82,3.03,1.91,5.92,3.32,8.67t0,0l-2.12,8.31,12.02,12.87,8.41-1.54c2.65,1.57,5.47,2.9,8.45,3.92,0,0,0,0,0,0l5.14,8.65,17.6,.6,5.72-8.28c3.04-.82,5.94-1.95,8.69-3.33,0,0,0,0,0,0l8.29,2.11,12.87-12.02-1.55-8.45c1.6-2.65,2.89-5.46,3.91-8.41,0,0,0,0,0,0l8.66-5.14,.6-17.6Zm-54.85,26.75c-10.94-.37-19.49-9.56-19.11-20.47,.37-10.94,9.53-19.49,20.47-19.11,10.94,.37,19.49,9.53,19.11,20.47-.37,10.91-9.53,19.49-20.47,19.11Z"/>
      <g>
        <polygon class="cls-12" points="429.29 160.78 418.76 157.95 415.93 147.42 420.05 143.3 424.4 152.31 433.41 156.66 429.29 160.78"/>
        <path class="cls-12" d="M429.94,153.73c1.92-1.92,1.92-5.04,0-6.96-1.92-1.92-5.03-1.9-6.95,.01l5.24-7.86,7.02,3.55,1.54,7.38-6.85,3.87Z"/>
        <path class="cls-10" d="M419.22,144.13l7.72-7.72,10.53,2.83,2.83,10.53-7.72,7.72-10.53-2.83-2.83-10.53Zm14.01,6.31c1.92-1.92,1.92-5.04,0-6.96-1.92-1.92-5.03-1.9-6.95,.01-1.92,1.92-1.92,5.02,0,6.93,1.92,1.92,5.03,1.93,6.95,.01Z"/>
      </g>
      <g>
        <polygon class="cls-12" points="167.4 416.83 179.8 413.5 183.13 401.1 178.28 396.24 173.15 406.85 162.55 411.97 167.4 416.83"/>
        <path class="cls-12" d="M166.63,408.53c-2.26-2.26-2.26-5.94,0-8.2,2.26-2.26,5.92-2.24,8.18,.02l-6.17-9.25-8.27,4.18-1.81,8.69,8.07,4.56Z"/>
        <path class="cls-10" d="M179.26,397.22l-9.09-9.09-12.4,3.33-3.33,12.4,9.09,9.09,12.4-3.33,3.33-12.4Zm-16.5,7.43c-2.26-2.26-2.26-5.94,0-8.2,2.26-2.26,5.92-2.24,8.18,.02,2.26,2.26,2.26,5.91,0,8.17s-5.92,2.28-8.18,.02Z"/>
      </g>
      <g>
        <path class="cls-10" d="M161.18,123.26l7.88,7.88c2.05,2.05,5.41,2.05,7.46,0h0c2.05-2.05,2.05-5.41,0-7.46l-7.88-7.88c-2.05-2.05-5.41-2.05-7.46,0h0c-2.05,2.05-2.05,5.41,0,7.46Z"/>
        <path class="cls-12" d="M155.62,103.63c6.07-2.18,12.66,.67,14.71,6.37,2.05,5.7-1.22,12.09-7.29,14.27-6.07,2.18-12.66-.67-14.71-6.37-2.05-5.7,1.22-12.09,7.29-14.27Z"/>
        <rect class="cls-10" x="157.64" y="101.49" width="3.38" height="24.92" transform="translate(105.95 302.42) rotate(-109.76)"/>
      </g>
    </g>
    <g>
      <path class="cls-5" d="M231.68,321.73c-1.9-2.09-3.62-4.5-5.17-7.22-6.31-11.14-9.58-26.37-9.84-45.72,.1,.22,.22,.44,.33,.66l5.33,9.84,9.34,42.45Z"/>
      <g>
        <path class="cls-2" d="M149.61,362.97h-35.4v-47.12H31.69v-35.4l82.53-106.2h35.4v106.2h23.56v35.4h-23.56v47.12Zm-35.4-82.53v-48.88l-37.98,48.88h37.98Z"/>
        <path class="cls-2" d="M318.89,213.4c-5.24-14.11-13.09-24.93-23.56-32.47-.33-.24-.67-.48-1.02-.69-7.17-4.95-15.55-8.15-25.11-9.64-4.15-.66-8.54-.98-13.14-.98-.99,0-1.96,.01-2.93,.05h-.01c-5.56,.17-10.77,.83-15.64,1.98-4.79,1.12-9.24,2.71-13.36,4.8-2.62,1.29-5.1,2.79-7.45,4.49-1.83,1.33-3.59,2.75-5.26,4.28-7.89,7.15-13.99,16.55-18.3,28.19-.36,.96-.69,1.93-1.03,2.91-4.56,13.5-6.83,34-6.83,52.3,0,19.69,2.62,36.56,7.85,50.64,5.24,14.07,13.09,24.87,23.56,32.41,10.47,7.54,23.6,11.32,39.39,11.32s28.79-3.77,39.26-11.32c10.47-7.54,18.33-18.34,23.56-32.41,5.24-14.07,7.85-30.95,7.85-50.64s-2.62-41.1-7.85-55.2Zm-33.39,101.11c-6.57,11.61-16.38,17.42-29.44,17.42-10.05,0-18.18-3.39-24.38-10.2-1.9-2.09-3.62-4.5-5.17-7.22-6.31-11.14-9.58-26.37-9.84-45.72-.02-.83-.02-1.66-.02-2.5,0-20.53,3.29-36.6,9.86-48.21,2.16-3.82,4.67-7.01,7.54-9.57,5.85-5.24,13.18-7.85,22.01-7.85,7.79,0,14.42,2.06,19.9,6.21,3.7,2.79,6.89,6.53,9.54,11.22,1.85,3.26,3.43,6.87,4.75,10.84,3.4,10.15,5.1,22.61,5.1,37.37,0,20.54-3.29,36.61-9.85,48.22Z"/>
        <path class="cls-2" d="M456.75,362.97h-35.4v-47.12h-82.53v-35.4l82.53-106.2h35.4v106.2h23.56v35.4h-23.56v47.12Zm-35.4-82.53v-48.88l-37.98,48.88h37.98Z"/>
      </g>
      <g>
        <path class="cls-9" d="M276,207.56h0c-4.03,8.09-8.81,14.12-12.92,18.35-.66,.68-1.3,1.3-1.93,1.89-.62,.59-1.22,1.13-1.79,1.63-3.26,2.86-5.56,4.24-5.74,4.35h-.01c-.43-.25-.84-.53-1.25-.81-.45-.3-.88-.59-1.29-.9-.2-.14-.39-.28-.58-.42-.35-.24-.68-.51-1.02-.78-.17-.14-.35-.28-.52-.42-.02-.02-.06-.05-.08-.07-.37-.3-.73-.6-1.07-.91-.22-.18-.44-.38-.66-.59-.22-.2-.44-.4-.65-.61-.45-.42-.89-.85-1.3-1.29-.43-.44-.83-.88-1.23-1.33l-.03-.03c-.38-.44-.76-.88-1.12-1.33-.36-.42-.69-.84-1-1.27-.07-.07-.12-.14-.16-.2-.33-.44-.65-.88-.96-1.31h-.01c-.32-.48-.65-.95-.95-1.42-.31-.48-.61-.96-.9-1.44-.29-.47-.57-.95-.84-1.43h0c-.03-.07-.07-.12-.09-.17-.13-.22-.24-.43-.35-.63-.03-.07-.07-.14-.1-.21-.01-.02-.03-.06-.05-.08-.01-.02-.03-.06-.03-.08-.07-.12-.14-.23-.2-.36-.12-.21-.23-.43-.32-.65-.2-.36-.37-.73-.53-1.08-.02-.06-.06-.1-.08-.16-.13-.25-.24-.51-.35-.76-.02-.06-.05-.1-.07-.16-.33-.72-.63-1.43-.91-2.15-.05-.1-.08-.21-.12-.3-.22-.52-.42-1.03-.59-1.53-.03-.09-.07-.2-.1-.29-.02-.03-.03-.08-.05-.12-.23-.67-.45-1.33-.66-1.97-.16-.52-.31-1.03-.46-1.53-.05-.17-.09-.33-.14-.5-.12-.43-.23-.84-.33-1.25-.15-.58-.29-1.14-.42-1.7-.9-3.86-1.3-7.21-1.49-9.53l2.71,.48,7.43,1.34,.88,.16,.05-.73,.68-11.45c5.01,4.3,10.5,5.42,13.36,4.97,5.2-.83,8.71-3.69,11.08-7.06-.52,6.63,1.3,13.45,5.24,18.81,1.2,1.65,2.6,3.2,3.32,5.08,.06,.12,.1,.24,.15,.37,.38,1.14,.5,2.34,.54,3.56Z"/>
        <path class="cls-6" d="M242.3,181.83l24.44-2.09,1.39,5.31s-5.17,5.56-12.39,6.34c-8.16,.87-13.79-3.69-13.79-3.69l.35-5.87Z"/>
        <path class="cls-11" d="M291.17,228.29c-1.02,.71-2.06,1.41-3.09,2.11,.15-3.68-2.47-6.87-5.11-9.43-2.65-2.57-5.62-5.16-6.53-8.74-.39-1.51-.37-3.09-.45-4.66h0c-.05-1.23-.16-2.43-.54-3.58-.7-2.04-2.2-3.69-3.48-5.44-3.93-5.36-5.75-12.18-5.23-18.81,4.33-6.17,4.83-14.03,4.83-14.03,3.52,.35,6.72-2.71,7.19-6.87,.46-4.19-.81-7.22-4.25-7.98-2.23-.21-3.57,1.75-3.57,1.75-13.04-5.91-16.07-20.06-16.07-20.06-7.63,14.6-26.51,16.26-26.51,16.26,0,0,1.23,16.2,9.66,28.25,1.32,1.91,2.78,3.47,4.28,4.77l-.73,12.18-11.02-1.99-6.89-1.24c-.15-1.19-.18-2.38-.11-3.52,.28-4.83,1.53-9.9-.33-14.37-1.33-3.2-4.12-5.69-5.08-9.02-.55-1.96-.41-3.96-.07-5.97h0c5.94-6.62,1.83-17.33,.41-21.25v-.02c-.05-.68-.06-1.36-.05-2.05,.06-2.77,.65-5.52,1.69-8.1,1.89-.03,5.02,3.28,6.3,1.49,.37-.52,.44-1.24,.26-2.05,1.59-.17,2.22-1.15,2.4-2.22,.09-.63-.03-1.28-.31-1.9,1.63-2.06,1.1-4.12-.5-5.79,.53-.39,1.1-.72,1.65-1.08,7.95-5.33,17.96-2.4,17.96-2.4,5.28-4.46,22.1-7.1,29.52,4.16,4.52,6.84,2.97,14.63,6.34,22.11,1.92,4.29,5.56,7.51,8.7,11.02,3.12,3.5,6.44,7.82,6.63,12.51,.27,6.84-3.97,12.94-4.86,17.71-.98,5.32,2.08,10.36,4.19,15.33,8.23,19.43,1.31,26.87-7.23,32.92Z"/>
        <path class="cls-9" d="M278.76,158.84c-.46,4.16-3.67,7.22-7.19,6.87,0,0-.58,18.17-15.92,21.08-2.84,.54-8.35-.67-13.36-4.97-1.5-1.29-2.95-2.86-4.28-4.76-8.43-12.05-9.65-28.25-9.65-28.25,0,0,18.88-1.66,26.51-16.26,0,0,3.03,14.15,16.07,20.06,0,0,1.35-1.96,3.58-1.75,3.44,.76,4.71,3.79,4.24,7.98Z"/>
        <g>
          <ellipse cx="241.1" cy="159.8" rx="1.79" ry="2.72" transform="translate(-15.26 25.84) rotate(-5.95)"/>
          <path class="cls-11" d="M262.27,151.69s-6.27-.43-9.73-2.76l-.29,.92s3.8,4.42,10.01,1.84Z"/>
          <ellipse cx="255.74" cy="158.27" rx="1.79" ry="2.72" transform="translate(-15.02 27.35) rotate(-5.95)"/>
          <path class="cls-11" d="M232.92,154.08s6.21-1,9.43-3.64l.47,.84s-3.48,4.8-9.9,2.8Z"/>
          <path class="cls-6" d="M248.96,160.33s.07,4.35-2.88,7.36c-.55,.56-.4,1.5,.33,1.78,1.01,.38,2.53,.66,4.57,.22l-2.73-1.33s1.63-3.48,.71-8.03Z"/>
          <path class="cls-6" d="M274.71,155s-4.43,.33-4.31,7.7c0,0,2.05-4.26,4.59-2.98,0,0,.97-2.33-1.15-1.94-2.12,.39,.87-2.77,.87-2.77Z"/>
          <path class="cls-14" d="M250.39,176.36c2.26-2.95,6.61-2.95,6.61-2.95"/>
        </g>
        <line class="cls-15" x1="179.97" y1="187.79" x2="175.08" y2="187.48"/>
        <path class="cls-4" d="M295.35,266.28c0,20.54-3.29,36.61-9.85,48.22-6.57,11.62-16.38,17.42-29.44,17.42-1.67,0-3.29-.09-4.86-.29-7.84-.93-14.36-4.23-19.53-9.91l-2.76-12.55-6.59-29.9-5.33-9.84c-.12-.22-.23-.44-.33-.66-.9-1.71-1.65-3.48-2.25-5.28h0c-2.71-8-2.72-16.74,.07-24.83l.99-2.85-.22-.25c-3.64-4.29-8.18-7.73-13.28-10.08l-9.91-4.57-38.12-17.59c-1.63-.76-3.09-1.75-4.35-2.94-3.2-3.01-5.09-7.26-5.09-11.8v-.21c.06-4.45,1.94-8.62,5.09-11.58,1.02-.98,2.18-1.82,3.46-2.5l51.65-27.74s.59,.42,1.5,1.26c2.12,1.95,5.99,6.23,8.06,12.95,.36,1.13,.66,2.34,.89,3.61l-37.15,22.05,44.31,4.1,1.33,.24,3.58,.65,3.32,.6h0c.18,2.33,.59,5.67,1.49,9.54,.13,.55,.27,1.12,.42,1.7,.1,.4,.22,.82,.33,1.25,.05,.16,.09,.32,.14,.5,.15,.51,.3,1.02,.46,1.53,.21,.65,.43,1.3,.66,1.97,.01,.03,.02,.08,.05,.12,.03,.09,.07,.2,.1,.29,.17,.51,.37,1.02,.59,1.53,.03,.09,.07,.2,.12,.3,.28,.72,.58,1.43,.91,2.15,.02,.06,.05,.1,.07,.16,.1,.25,.22,.51,.35,.76,.02,.06,.06,.1,.08,.16,.16,.36,.33,.73,.53,1.08,.09,.22,.21,.44,.32,.65,.06,.13,.13,.24,.2,.36,0,.02,.02,.06,.03,.08,.01,.02,.03,.06,.05,.08,.03,.07,.07,.14,.1,.21,.1,.21,.22,.42,.35,.63,.02,.06,.06,.1,.09,.16h0c.28,.5,.55,.97,.84,1.44,.29,.48,.59,.96,.9,1.44,.3,.47,.62,.93,.95,1.41h.01c.31,.45,.62,.89,.96,1.33,.05,.06,.09,.13,.16,.2,.31,.43,.65,.85,1,1.27,.36,.45,.74,.89,1.12,1.33l.03,.03c.4,.45,.81,.89,1.23,1.33,.42,.44,.85,.88,1.3,1.29,.21,.21,.43,.42,.65,.61,.22,.21,.44,.4,.66,.59,.35,.32,.7,.62,1.07,.91,.02,.02,.06,.05,.08,.07,.17,.14,.35,.28,.52,.42,.33,.28,.67,.54,1.02,.78,.18,.14,.38,.28,.58,.42,.42,.31,.84,.6,1.29,.9,.4,.28,.82,.54,1.25,.81h.01c.18-.12,2.48-1.5,5.74-4.35,.57-.5,1.16-1.04,1.79-1.63,.62-.59,1.27-1.21,1.93-1.89,4.11-4.23,8.89-10.27,12.92-18.34,.08,1.57,.06,3.14,.45,4.65,.08,.31,.17,.61,.29,.9,1.13,3.13,3.83,5.49,6.24,7.84,2.64,2.56,5.26,5.74,5.11,9.42,.73-.48,1.45-.97,2.17-1.48,1.55,4.64,2.76,9.76,3.6,15.36,.95,6.25,1.44,13.1,1.49,20.55,.01,.48,.01,.97,.01,1.45Z"/>
        <path class="cls-3" d="M215.48,235.83l.37-1.08c.95-2.75,1.57-5.59,1.85-8.49l.44-4.58s-1.6,8.22-5.14,11.44c-3.54,3.22,0,.67,0,.67l2.48,2.04Z"/>
        <path class="cls-9" d="M228.77,121.8c.29,.62,.4,1.27,.31,1.9-.17,1.06-.81,2.04-2.4,2.21,.18,.81,.12,1.53-.25,2.05-1.28,1.79-4.42-1.52-6.31-1.49-.24,0-.46,.05-.65,.17-1.74,1.08-2.49,5.49-1.26,9.23,.07,.21,.16,.46,.27,.75h0c1.42,3.93,5.54,14.65-.4,21.26h0c-.97,1.1-2.21,2.06-3.79,2.88-2.08-6.72-5.94-11-8.06-12.95,.66-1.36,1.44-3.41,1.36-5.35-.14-3.25-4.21-10.59-3.25-15.47,1.23-6.21,9.17-14.04,12.95-14.66,3.52-.59,8.51,1.08,10.99,3.67,1.6,1.67,2.13,3.73,.5,5.79Z"/>
        <path class="cls-14" d="M209.74,123.72s5.89-8.17,9.38-8.04c2.41,.09,8.19,2.91,9.65,6.12"/>
        <path class="cls-14" d="M213.34,125.93s3.92-6.54,7.62-5.81c2.73,.54,5.21,3.49,5.72,5.8"/>
        <g>
          <path class="cls-13" d="M258.62,121.8c6.85,1.07,11.09,7.3,12.27,13.78,.48,2.05,1.62,3.89,2.84,5.63,2.49,3.48,5.35,6.81,7.48,10.66,2.65,4.8,3.97,10.45,3.4,15.93-.18,3.24-1.24,6.48-1.65,9.62-2.52,16.37,13.19,20.57,7.21,36.8,5.49-19.02-13.62-18.85-7.08-43.34,.34-1.44,.39-3.28,.52-4.75,.31-10.35-4.92-16.53-10.61-24.42-.91-1.31-1.76-2.86-2.35-4.36-.83-2.56-1.12-5.3-2.39-7.71-1.83-3.83-5.39-6.91-9.64-7.84h0Z"/>
          <path class="cls-13" d="M247.7,122.09c-2.79,9.93-11.4,18.27-21.41,20.73,9.45-4.09,17.02-11.41,21.41-20.73h0Z"/>
          <path class="cls-13" d="M245.06,121.04c-4.08,5.19-10.04,9.01-16.47,10.53,5.88-3.05,11.24-6.47,16.47-10.53h0Z"/>
        </g>
        <path class="cls-8" d="M276.73,213.12c-8.99,14.61-20.93,22.66-21.53,23.06l-1.46,.98-1.53-.87c-18.54-10.39-23.68-35.64-24.96-44.88l3.32,.6h0s2.71,.5,2.71,.5c1.55,9.2,6.37,28.88,20.18,37.82,3.96-3.01,15.13-12.36,21.85-26.7,.06,.12,.1,.24,.15,.37,.38,1.14,.5,2.34,.54,3.56h0c.08,1.58,.06,3.15,.45,4.66,.08,.31,.17,.61,.29,.9Z"/>
        <g class="cls-16">
          <path class="cls-2" d="M295.34,264.83c.01,.48,.01,.97,.01,1.45,0,20.54-3.29,36.61-9.85,48.22-6.57,11.62-16.38,17.42-29.44,17.42-1.67,0-3.29-.09-4.86-.29,.68-.45,1.36-.91,2.03-1.4,6.57-4.76,12.1-11.45,13.86-19.38,1.16-5.21,.73-10.92,3.36-15.57,1.29-2.27,3.23-4.11,4.75-6.23,1.52-2.12,2.66-4.8,2.01-7.32-1.19-4.53-7.06-5.95-9.7-9.82,7.52,1.36,15.63,.98,22.32-2.73,2.04-1.13,3.91-2.62,5.5-4.36Z"/>
        </g>
        <path class="cls-7" d="M270.94,152.61c-11.45-2.95-17.67-11.72-17.67-11.72-8.8,7.6-24.91,7.92-24.91,7.92,0,0,18.88-1.66,26.51-16.26,0,0,3.03,14.15,16.07,20.06Z"/>
        <polygon class="cls-3" points="178.02 186.43 174.25 188.72 205.87 189 178.02 186.43"/>
      </g>
    </g>
    <g>
      <path class="cls-8" d="M303.28,153.51l8.63-15.64c-12.26-19.48-6.41-45.2,13.07-57.46,19.48-12.26,45.2-6.41,57.46,13.07,12.26,19.48,6.41,45.2-13.07,57.46-14.68,9.24-33.55,8.42-47.37-2.06h0l-18.72,4.63Z"/>
      <path class="cls-4" d="M365.77,132.13c1.06,.31,1.83,.87,2.29,1.68,.46,.81,.57,1.66,.3,2.55-.27,.91-.82,1.58-1.64,2.01-.83,.43-1.78,.49-2.84,.18-1.06-.31-1.83-.88-2.29-1.69s-.56-1.67-.29-2.58c.26-.89,.8-1.55,1.63-1.98,.83-.43,1.77-.49,2.84-.18Zm6.06-20.76h.04c1.65,.49,3.09,1.11,4.33,1.86,1.24,.75,2.24,1.64,2.99,2.68,.76,1.03,1.23,2.21,1.42,3.51s.05,2.78-.42,4.4v.04c-.41,1.37-1.02,2.47-1.83,3.3-.81,.84-1.7,1.46-2.67,1.86-.97,.4-1.95,.63-2.92,.67s-1.83-.04-2.57-.26l-.53-.16-.52,1.79-5.51-1.62,1.71-5.82,1.37,.4c.63,.19,1.36,.34,2.17,.47,.81,.13,1.61,.16,2.37,.08,.76-.08,1.46-.29,2.07-.65s1.04-.93,1.27-1.71v-.04c.22-.71,.24-1.35,.06-1.93-.17-.57-.48-1.08-.91-1.53-.43-.44-.97-.83-1.6-1.15-.63-.32-1.31-.59-2.02-.8h-.04c-1.27-.38-2.43-.56-3.48-.54s-2.09,.18-3.12,.49l-1.65-5.48c1.45-.45,2.98-.69,4.57-.72,1.59-.03,3.4,.26,5.43,.85Z"/>
      <path class="cls-4" d="M336.38,90.24h.07c2.93,0,5.59,.32,7.99,.95,2.39,.63,4.46,1.61,6.19,2.94,1.74,1.33,3.08,3.02,4.03,5.08,.95,2.05,1.42,4.52,1.42,7.41v.07c0,2.44-.46,4.53-1.39,6.3-.93,1.76-2.09,3.2-3.49,4.33-1.4,1.13-2.89,1.96-4.47,2.51-1.58,.54-3.02,.81-4.33,.81h-.95v3.18h-9.81v-10.36h2.44c1.13,0,2.39-.09,3.79-.27,1.4-.18,2.71-.52,3.93-1.02,1.22-.5,2.24-1.18,3.08-2.06,.83-.88,1.25-2.02,1.25-3.42v-.07c0-1.26-.28-2.32-.85-3.18-.56-.86-1.31-1.55-2.23-2.06-.93-.52-1.99-.89-3.18-1.12-1.2-.23-2.43-.34-3.69-.34h-.07c-2.26,0-4.24,.27-5.96,.81-1.72,.54-3.34,1.31-4.87,2.3l-5.35-8.19c2.17-1.44,4.55-2.57,7.14-3.38,2.59-.81,5.7-1.22,9.31-1.22Zm.07,36.96c1.9,0,3.42,.55,4.57,1.66,1.15,1.11,1.73,2.45,1.73,4.03s-.58,2.99-1.73,4.1-2.67,1.66-4.57,1.66-3.42-.55-4.57-1.66-1.73-2.47-1.73-4.1,.58-2.92,1.73-4.03c1.15-1.1,2.67-1.66,4.57-1.66Z"/>
    </g>
  </g>
</svg>