<?xml version="1.0" encoding="UTF-8"?>
<svg xmlns="http://www.w3.org/2000/svg" xmlns:xlink="http://www.w3.org/1999/xlink" viewBox="0 0 512 512">
  <defs>
    <style>
      .cls-1, .cls-2, .cls-3 {
        fill: none;
      }

      .cls-4 {
        clip-path: url(#clippath);
      }

      .cls-5 {
        fill: #f3f3f3;
      }

      .cls-6 {
        fill: #00ca5e;
      }

      .cls-7, .cls-8 {
        fill: #f26945;
      }

      .cls-9 {
        fill: #fff;
      }

      .cls-10 {
        fill: #ffbb80;
      }

      .cls-11 {
        fill: #e4e4e4;
      }

      .cls-12 {
        fill: #009c41;
      }

      .cls-13 {
        fill: #b53e39;
      }

      .cls-14 {
        fill: #342420;
      }

      .cls-15 {
        fill: #d0d0d0;
      }

      .cls-16 {
        fill: #c75654;
      }

      .cls-2 {
        stroke: #803403;
        stroke-width: 1.27px;
      }

      .cls-2, .cls-3 {
        stroke-miterlimit: 10;
      }

      .cls-17 {
        fill: #002b13;
        opacity: .2;
      }

      .cls-3 {
        stroke: #e4e4e4;
      }

      .cls-18 {
        isolation: isolate;
      }

      .cls-19 {
        mix-blend-mode: multiply;
      }

      .cls-19, .cls-8 {
        opacity: .5;
      }
    </style>
    <clipPath id="clippath">
      <path class="cls-1" d="M467.9,253.6c-11.21,69.89-43.84,131.7-82.03,169.04-38.77,38.01-83.11,51.53-131.03,40.2-47.88-11.35-92.63-42.5-131.29-77.27-38.13-35.46-70.17-74.54-80.49-117.84-10.32-43.24,5.11-85.6,43.78-125.32,38.14-39.02,99.53-75.4,168.99-90.61,69.41-15.29,131.36-3.6,169.54,33.54,38.76,36.48,53.74,98.41,42.53,168.24Z"/>
    </clipPath>
  </defs>
  <g class="cls-18">
    <g id="Layer_1" data-name="Layer 1">
      <g id="_4_-_Resume_where_you_left" data-name="4 - Resume where you left">
        <path class="cls-5" d="M467.9,253.6c-11.21,69.89-43.84,131.7-82.03,169.04-38.77,38.01-83.11,51.53-131.03,40.2-47.88-11.35-92.63-42.5-131.29-77.27-38.13-35.46-70.17-74.54-80.49-117.84-10.32-43.24,5.11-85.6,43.78-125.32,38.14-39.02,99.53-75.4,168.99-90.61,69.41-15.29,131.36-3.6,169.54,33.54,38.76,36.48,53.74,98.41,42.53,168.24Z"/>
        <g class="cls-4">
          <g>
            <path class="cls-11" d="M118.36,313.25c-1.58,.38-3.16-.59-3.54-2.17,0-.02,0-.03-.01-.05-.02-.21-.02-.42,0-.64,0-.68,.24-1.34,.68-1.87,3.87-4.71,23.51-27.43,32.71-17.87,11.06,11.42-19.01,19.98-29.83,22.6Z"/>
            <path class="cls-11" d="M114.75,321.63c.03,.21,.03,.42,0,.64-.35,1.59-1.92,2.59-3.5,2.24-.02,0-.03,0-.05-.01-10.72-2.62-40.89-11.16-29.79-22.64,9.19-9.51,28.84,13.21,32.73,17.87,.42,.54,.64,1.22,.62,1.91Z"/>
            <path class="cls-11" d="M116.97,298.59c-.08,.68-.4,1.31-.89,1.79-.15,.15-.31,.27-.5,.38-.34,.22-.72,.35-1.11,.4-1.18,.17-2.35-.4-2.96-1.43-5.5-9.57-20.06-37.24-4.17-37.24,13.27,.18,10.37,30.07,9.63,36.1Z"/>
            <path class="cls-11" d="M118.36,337.36c-1.16,.29-2.38-.16-3.08-1.13-.23-.33-.39-.7-.48-1.09-.02-.21-.02-.42,0-.64,0-.68,.24-1.34,.68-1.87,3.87-4.69,23.51-27.41,32.71-17.87,11.06,11.44-19.01,20-29.83,22.6Z"/>
            <path class="cls-11" d="M114.75,345.74c.03,.21,.03,.42,0,.64-.08,.39-.25,.76-.48,1.09-.7,.97-1.92,1.42-3.08,1.13-10.72-2.6-40.89-11.16-29.79-22.64,9.19-9.49,28.84,13.23,32.73,17.87,.42,.54,.64,1.22,.62,1.91Z"/>
            <path class="cls-11" d="M118.36,360.08c-1.16,.29-2.38-.16-3.08-1.13-.23-.33-.39-.7-.48-1.09-.02-.2-.02-.41,0-.62-.02-.72,.22-1.43,.68-1.99,3.87-4.69,23.51-27.41,32.71-17.87,11.06,11.54-19.01,20.1-29.83,22.7Z"/>
            <path class="cls-15" d="M115.28,391.22v-96.96c-.08-.6-.63-1.02-1.23-.94-.49,.07-.87,.45-.94,.94v96.96h2.16Z"/>
          </g>
          <g>
            <rect class="cls-3" x="404.35" y="353.85" width="41.25" height="14.74"/>
            <rect class="cls-11" x="65.63" y="210.97" width="41.25" height="14.74"/>
            <rect class="cls-3" x="393.36" y="267.93" width="51.26" height="14.74"/>
            <rect class="cls-3" x="246.6" y="100.09" width="51.26" height="14.74" transform="translate(544.45 214.92) rotate(180)"/>
            <rect class="cls-11" x="361.29" y="253.53" width="51.26" height="14.74" transform="translate(773.85 521.81) rotate(180)"/>
            <rect class="cls-11" x="281.11" y="114.83" width="41.25" height="14.74"/>
          </g>
          <g>
            <path class="cls-13" d="M381.61,370.28l-30.21-37.1c-3.87-14.71-126.33-17.7-130.2-2.99l-47.42,38.82c-40.46-68.9,26.55-100.76,43.6-132.02,15.05-27.6,2.86-55.2,15.59-78.4,12.28-22.38,39.8-13.72,39.8-13.72,0,0,33.31-13.77,49.16,16.26,12.35,23.41,.53,48.26,15.59,75.86,17.15,31.45,86.04,63.5,44.11,133.29Z"/>
            <g class="cls-19">
              <path class="cls-13" d="M255.89,229.65c-16.02,17.89-11.62,39.71-30.56,58.31,14.02,2.9,38.11-6.35,43.32-19.69s-.5-30.03-12.78-37.39"/>
              <path class="cls-13" d="M302.02,225.83c-.81,9.95,5.72,18.9,12.44,26.29,6.72,7.38,14.3,14.85,16.39,24.61,.68,3.18,.34,7.2-2.55,8.68-1.9,.97-4.18,.45-6.24-.09-7.2-1.89-14.41-3.78-21.61-5.67-4.5-1.18-9.28-2.53-12.32-6.05-3-3.47-3.67-8.34-3.93-12.93-.39-7.03-.1-14.11,.88-21.08,.59-4.22,1.53-8.62,4.34-11.82s8.06-4.63,11.41-2"/>
            </g>
            <g>
              <path class="cls-10" d="M322.67,279.24c-14.76,15.77-45.22,45.37-45.22,45.37,0,0-32.79-29.9-47.52-45.6l25.87-11.13,.22-10.53,.1-4.47,.22-10.2,.02-.84,.07-3.78,10.11-.3,16.09-.45,11.89-.35,.2,3.84,.07,1.26,.53,10.02,.24,4.5,.49,9.16,26.62,13.5Z"/>
              <path class="cls-7" d="M295.56,256.58c-5.9,4.4-13.47,6.73-20.33,6.73-1.01,0-2.04-.05-3.07-.15-5.39-.53-11.43-2.51-16.14-5.81l.1-4.47,.22-10.2,.02-.84,38.36-1.04,.07,1.26,.53,10.02,.24,4.5Z"/>
            </g>
            <path class="cls-10" d="M318.62,219.88c-2.16,6.33-8.22,10.02-13.59,8.26-2.4,6.36-5.65,12.36-9.69,17.11-5.84,6.9-13.35,11.22-22.43,10.33-5.98-.57-11.09-3.43-15.31-7.74-.6-.61-1.18-1.23-1.74-1.89-.32-.37-.61-.74-.9-1.11-2.43-3.07-4.5-6.67-6.24-10.54-.97-2.16-1.79-4.42-2.54-6.72l.09,.56c-5.36,1.77-11.43-1.93-13.58-8.26-2.17-6.38-.24-12.47,3.87-13.92,2.72-.88,5.04,.6,5.86,1.23-.1-1.94-.15-3.85-.1-5.7,.06-1.98,.19-4.22,.34-6.33,12.64-2.92,24.35-20.24,24.35-20.24,14.76,14.65,40.95,17.66,40.95,17.66h.01c.89,6.94,.58,14.88,.58,14.88,0,0,2.78-2.59,6.19-1.5,4.12,1.45,6.05,7.55,3.87,13.92Z"/>
            <g>
              <path class="cls-7" d="M314.9,212.03s-7.59-.3-8.83,12.23c0,0,4.32-6.84,8.38-4.17,0,0,2.11-3.76-1.57-3.52-3.68,.24,2.02-4.55,2.02-4.55Z"/>
              <path class="cls-7" d="M236.41,212.03s7.59-.3,8.83,12.23c0,0-4.32-6.84-8.38-4.17,0,0-2.11-3.76,1.57-3.52,3.68,.24-2.02-4.55-2.02-4.55Z"/>
              <ellipse class="cls-14" cx="261.03" cy="213.8" rx="4.66" ry="3.07" transform="translate(44.43 472.5) rotate(-89.38)"/>
              <path class="cls-13" d="M248.22,204.73s10.32-3.02,17.24-1.32l-.08-1.64s-8.72-4.86-17.17,2.96Z"/>
              <ellipse class="cls-14" cx="286.21" cy="214.07" rx="4.66" ry="3.07" transform="translate(69.06 497.95) rotate(-89.38)"/>
              <path class="cls-13" d="M296.76,205.26s-10.25-3.24-17.21-1.69l-.08-1.64s9.01-4.66,17.28,3.33Z"/>
              <path class="cls-9" d="M263.41,235.36s11.03,3.64,22.29-.59c0,0-2.05,11.23-11.15,11.18-9.29-.05-11.14-10.59-11.14-10.59Z"/>
              <path class="cls-7" d="M275.12,214.46s-.73,7.4-6.34,11.94c-1.04,.84-.97,2.47,.22,3.09,1.64,.85,4.17,1.62,7.72,1.27l-4.38-2.79s3.45-5.59,2.77-13.51Z"/>
              <path class="cls-7" d="M314.9,212.03s-7.59-.3-8.83,12.23c0,0,4.32-6.84,8.38-4.17,0,0,2.11-3.76-1.57-3.52-3.68,.24,2.02-4.55,2.02-4.55Z"/>
            </g>
            <g>
              <g>
                <path class="cls-12" d="M374.59,411.06l-2.14-14.98c8.94-1.18,15.52-.59,16.39,2.45,0,.01,.01,.04,.01,.05,.87,3.26-5.08,8.4-14.27,12.48Z"/>
                <path class="cls-10" d="M380.46,452.07l-39.91,7.61-5.08-31.5v-.04c.35-3.27,.74-6.46,1.17-9.54,.58-4.19,1.22-8.2,1.91-11.99,6.03-3.1,13.54-6.02,20.38-7.82,4.79-1.25,9.4-2.18,13.52-2.72l1.18,8.26,.96,6.73,5.87,41.01Z"/>
                <path class="cls-7" d="M373.63,404.33c-16.16,2.77-31.16,10.85-36.99,14.27,.58-4.19,1.22-8.2,1.91-11.99,6.03-3.1,13.54-6.02,20.38-7.82,4.79-1.25,9.4-2.18,13.52-2.72l1.18,8.26Z"/>
              </g>
              <path class="cls-6" d="M388.85,398.52c-.87-3.04-7.45-3.63-16.39-2.45-4.12,.54-8.74,1.47-13.53,2.71-.7,.19-1.42,.38-2.15,.59-6.23,1.81-12.82,4.46-18.23,7.23-1.19,6.6-2.26,13.81-3.08,21.53v.04c-.98,9.29-1.6,19.31-1.6,29.82l.65,6.49-53.61,17.63-62.16-24.13c0-10.5-.62-20.5-1.6-29.79-.82-7.73-1.89-14.97-3.07-21.58-6.05-3.09-13.53-6.03-20.38-7.83-4.79-1.24-9.4-2.17-13.53-2.71-8.99-1.19-15.6-.58-16.4,2.5l9.87-37.42,12.39-46.96c3.83-14.56,14.57-26.3,28.71-31.42l23.22-8.43c.34,.38,11.08,29.35,38.27,29.35s38.07-28.99,38.39-29.35l23.22,8.43c14.14,5.13,24.88,16.87,28.71,31.42l12.73,48.22,9.53,36.11Z"/>
              <path class="cls-12" d="M180.2,396.07l-2.14,14.98c-9.19-4.09-15.13-9.23-14.27-12.48,.8-3.08,7.42-3.7,16.4-2.5Z"/>
              <path class="cls-17" d="M356.78,399.38c-6.23,1.81-12.82,4.46-18.23,7.23,4.42-24.69,10.45-40.66,10.67-41.27,0,0,.35,24.08,7.55,34.04Z"/>
              <path class="cls-17" d="M195.88,399.38c6.23,1.81,12.82,4.46,18.23,7.23-4.42-24.69-10.45-40.66-10.67-41.27,0,0-.35,24.08-7.55,34.04Z"/>
              <path class="cls-10" d="M217.17,428.2l-4.95,31.5-40.02-7.63,5.87-41.02,2.14-14.98c4.12,.54,8.74,1.47,13.53,2.71,6.85,1.8,14.33,4.74,20.38,7.83,1.18,6.61,2.25,13.85,3.07,21.58Z"/>
              <path class="cls-7" d="M179.01,404.34c16.16,2.77,31.16,10.85,36.99,14.27-.58-4.19-1.22-8.2-1.91-11.99-6.03-3.1-13.54-6.02-20.38-7.82-4.79-1.25-9.4-2.18-13.52-2.72l-1.18,8.26Z"/>
            </g>
            <path class="cls-17" d="M221.19,389.98s61.08,10.42,105.53,0c0,0-29.45,21.69-53.86,21.69s-51.67-21.69-51.67-21.69Z"/>
            <path class="cls-8" d="M307.92,192.58c-1.25,.2-26.98,4.24-41.62-9.58,0,0-11.66,13.94-23.65,12.16,12.64-2.92,24.36-20.24,24.36-20.24,14.41,14.33,39.76,17.52,40.91,17.66Z"/>
            <path class="cls-13" d="M267.01,174.92s3.65,12.03-7.59,19.74c0,0,7.68-10.4,4.08-19.74h3.51Z"/>
            <path class="cls-2" d="M202.04,260.38c-14.72,10.7-29.71,21.67-40.23,36.51-5.3,7.48-9.41,16.01-10.58,25.11-1.16,9.1,.86,18.82,6.66,25.93"/>
            <g>
              <path class="cls-16" d="M271.05,163.08c8.47,6.99,18.32,11.82,29.03,14.28-11.14,.39-22.53-5.23-29.03-14.28h0Z"/>
              <path class="cls-16" d="M266.16,163.62c-1.17,8.83-7.43,17.03-15.65,20.47,6.57-5.78,11.8-12.61,15.65-20.47h0Z"/>
              <path class="cls-16" d="M274.33,159.01c12.55,5.39,26.51,6.56,39.79,3.37-12.5,6-28.47,4.64-39.79-3.37h0Z"/>
              <path class="cls-16" d="M233.89,242.42c-4.17,19.72-24,29.65-37.86,41.87-14.39,12.48-22.59,31.29-22.47,50.36-1.28-14.38,2.94-29.29,11.38-41.07,13.54-19.77,41.56-26.95,48.95-51.16h0Z"/>
              <path class="cls-16" d="M316.57,237.53c4.44,20.17,24.04,30.02,37.62,43.7,13.92,14.06,23.15,32.88,25.25,52.54-3.65-19.22-12.9-37.28-26.67-51.14-13.32-13.43-33.41-24.55-36.2-45.11h0Z"/>
            </g>
          </g>
        </g>
        <g>
          <g>
            <path class="cls-9" d="M219.52,173.7c0-32.51-26.36-58.87-58.87-58.87s-58.87,26.36-58.87,58.87,25.39,57.86,57.06,58.82l18.51,18.3v-20.67c24.37-7.2,42.17-29.74,42.17-56.45Z"/>
            <g>
              <circle class="cls-6" cx="138.52" cy="174.61" r="5.43"/>
              <circle class="cls-6" cx="160.65" cy="174.61" r="5.43"/>
              <circle class="cls-6" cx="182.78" cy="174.61" r="5.43"/>
            </g>
          </g>
          <g>
            <path class="cls-6" d="M471.87,119.9l-20.77,92.32c-1.05,4.67-5.77,7.54-10.41,6.31l-35.82-9.49h-.01l-29.63,17.73c-2.66,1.59-5.81-1.15-4.6-4l8.69-20.5-29.59-7.85c-2.52-.67-4.27-2.95-4.27-5.55V120.9c0-3.18,2.51-5.79,5.68-5.93l112.66-4.74c5.21-.22,9.22,4.57,8.07,9.66Z"/>
            <g>
              <circle class="cls-9" cx="379.04" cy="159.85" r="6.25"/>
              <circle class="cls-9" cx="404.53" cy="159.85" r="6.25"/>
              <circle class="cls-9" cx="430.02" cy="159.85" r="6.25"/>
            </g>
          </g>
        </g>
      </g>
    </g>
  </g>
</svg>