<svg width="1192"
    height="236"
    viewBox="0 0 1192 236"
    fill="none"
    xmlns="http://www.w3.org/2000/svg">
    <g clip-path="url(#clip0_2114_42021)">
        <path d="M1733.23 0V236H755.811C752.448 234.277 749.084 232.531 745.733 230.796C725.874 220.483 706.015 210.17 686.167 199.857C665.482 189.119 644.56 178.286 621.975 172.551C600.452 167.1 576.462 165.79 559.647 151.3C543.34 137.246 538.23 111.746 547.859 92.5002C554.762 78.7296 568.733 69.089 583.825 66.4104H583.837C583.837 66.4104 583.861 66.3986 583.873 66.3986C586.185 65.7732 588.51 65.2068 590.823 64.6994C603.13 61.9618 615.933 59.9912 626.836 53.6546C638.861 46.6454 647.77 34.7628 660.525 29.2168C674.438 23.1634 690.592 25.6296 705.189 21.4996C719.054 17.5702 730.464 8.0476 742.465 0L1733.23 0Z"
            fill="url(#paint0_linear_2114_42021)" />
        <path d="M529.205 66.7055C530.476 66.7055 531.506 65.6753 531.506 64.4045C531.506 63.1336 530.476 62.1035 529.205 62.1035C527.935 62.1035 526.904 63.1336 526.904 64.4045C526.904 65.6753 527.935 66.7055 529.205 66.7055Z"
            fill="#00C167" />
        <path d="M471.36 190.723C472.63 190.723 473.661 189.693 473.661 188.422C473.661 187.152 472.63 186.121 471.36 186.121C470.089 186.121 469.059 187.152 469.059 188.422C469.059 189.693 470.089 190.723 471.36 190.723Z"
            fill="#00C167" />
        <path d="M502.04 121.269C502.574 121.269 503.007 120.835 503.007 120.301C503.007 119.767 502.574 119.333 502.04 119.333C501.505 119.333 501.072 119.767 501.072 120.301C501.072 120.835 501.505 121.269 502.04 121.269Z"
            fill="#00C167" />
        <path d="M453.968 32.0606C454.502 32.0606 454.935 31.6274 454.935 31.093C454.935 30.5586 454.502 30.1254 453.968 30.1254C453.433 30.1254 453 30.5586 453 31.093C453 31.6274 453.433 32.0606 453.968 32.0606Z"
            fill="#00C167" />
        <path d="M543.024 149.895C543.559 149.895 543.992 149.462 543.992 148.928C543.992 148.393 543.559 147.96 543.024 147.96C542.49 147.96 542.057 148.393 542.057 148.928C542.057 149.462 542.49 149.895 543.024 149.895Z"
            fill="#00C167" />
        <path d="M542.054 194.358C542.588 194.358 543.021 193.925 543.021 193.39C543.021 192.856 542.588 192.423 542.054 192.423C541.519 192.423 541.086 192.856 541.086 193.39C541.086 193.925 541.519 194.358 542.054 194.358Z"
            fill="#00C167" />
        <path d="M646.911 195.325C647.445 195.325 647.879 194.892 647.879 194.358C647.879 193.823 647.445 193.39 646.911 193.39C646.377 193.39 645.943 193.823 645.943 194.358C645.943 194.892 646.377 195.325 646.911 195.325Z"
            fill="#00C167" />
        <mask id="mask0_2114_42021"
            style="mask-type:luminance"
            maskUnits="userSpaceOnUse"
            x="519"
            y="0"
            width="237"
            height="236">
            <path d="M755.81 0H519.008V236H755.81V0Z"
                fill="white" />
        </mask>
        <g mask="url(#mask0_2114_42021)">
            <path d="M684.855 92.1108C684.324 92.394 683.77 92.6536 683.203 92.8896L679.628 90.2464L675.722 87.3554C677.587 86.5884 679.156 85.7388 680.466 84.8302C680.466 84.8302 680.501 84.8066 680.513 84.7948C691.57 77.0068 683.734 64.9 676.253 67.968C676.253 67.968 676.218 67.968 676.206 67.9916C674.33 68.7704 673.008 69.7144 672.088 70.6938C672.052 70.7174 672.029 70.7528 672.005 70.7882C670.908 72.0036 670.412 73.3016 670.235 74.4698C670.235 74.5996 670.2 74.7176 670.176 74.8356C670.023 76.2516 670.294 77.4552 670.483 78.0806C670.53 78.234 670.589 78.3992 670.648 78.5526C670.648 78.5526 670.624 78.5526 670.613 78.5526C670.518 78.5172 670.188 78.3874 669.692 78.1278C666.813 76.7 658.518 71.5906 660.713 60.9706C660.713 60.9706 654.234 64.5106 645.526 58.5044C645.526 58.5044 635.614 64.133 627.661 62.953C627.661 62.953 628.522 67.8146 629.36 71.803C624.274 68.9002 622.41 64.4044 621.985 60.3806C621.891 60.298 621.808 60.2154 621.713 60.121C614.681 53.0646 623.307 42.8812 623.307 42.8812C623.307 42.8812 602.208 16.9448 633.891 19.3874C633.891 19.3874 662.199 -14.6202 688.313 26.7034C688.313 26.7034 697.859 22.1368 701.21 41.0876C703.523 54.1856 702.39 83.2844 684.844 92.1462L684.855 92.1108Z"
                fill="black" />
            <path d="M632.831 76.051C632.831 76.051 635.25 88.8068 631.556 96.76C630.955 98.0698 631.191 99.592 632.595 99.9224C634.53 100.383 637.362 100.536 640.985 99.238C640.985 99.238 635.604 84.134 632.831 76.051Z"
                fill="#F26945" />
            <path d="M696.454 115.428L666.399 140.774L660.735 123.959L657.608 114.684C655.685 115.003 653.585 114.731 652.074 114.259C639.908 110.448 634.469 93.4914 632.592 86.022C631.389 81.1604 630.28 76.1572 629.383 71.7676C628.675 68.322 628.085 65.254 627.672 62.9176C635.637 64.0976 645.537 58.469 645.537 58.469C653.939 64.2746 660.275 61.1594 660.7 60.947C660.7 60.947 660.708 60.947 660.724 60.947C658.541 71.567 666.836 76.6764 669.703 78.1042C669.998 78.3402 670.305 78.4936 670.624 78.529C670.624 78.529 670.647 78.529 670.659 78.529C670.588 78.3756 670.529 78.2222 670.494 78.057C670.305 77.4316 670.022 76.228 670.187 74.812C670.211 74.694 670.234 74.576 670.246 74.4462C670.518 73.1128 671.131 71.8384 672.016 70.7646C672.04 70.7292 672.063 70.6938 672.099 70.6702C673.019 69.679 674.341 68.735 676.217 67.968C679.887 66.9532 685.185 68.2984 685.704 75.107C685.645 76.0628 685.468 77.1248 685.15 78.2576C684.961 79.001 684.678 79.768 684.312 80.5586C683.498 81.951 682.389 83.19 681.173 84.2284C680.973 84.4054 680.748 84.5942 680.536 84.7594C680.536 84.7594 680.5 84.783 680.489 84.7948C679.179 85.7034 677.609 86.553 675.745 87.32C676.925 88.5708 678.317 89.5148 679.651 90.211L683.226 92.8542C683.793 92.63 684.335 92.3704 684.878 92.0754L696.478 115.392L696.454 115.428Z"
                fill="#FFC780" />
            <path d="M670.483 78.0924C670.094 77.0422 670.011 75.933 670.176 74.8474C670.023 76.2634 670.294 77.467 670.483 78.0924Z"
                fill="#FFC780" />
            <path d="M676.204 68.0034C674.328 68.7822 673.006 69.7262 672.086 70.7056C672.086 70.682 672.11 70.6584 672.133 70.6348C672.322 70.4106 672.534 70.1864 672.735 69.9976C673.372 69.384 674.092 68.8766 674.883 68.4872C675.296 68.2984 675.732 68.1214 676.204 68.0034Z"
                fill="#FFC780" />
            <path d="M680.464 84.842C678.848 86.1046 677.137 87.0014 675.721 87.3672C677.585 86.6002 679.154 85.7506 680.464 84.842Z"
                fill="#FFC780" />
            <path d="M684.856 92.1108C684.325 92.394 683.771 92.6536 683.204 92.8896L679.629 90.2464C682.343 91.6742 684.833 92.0872 684.833 92.0872V92.1108H684.856Z"
                fill="#FFC780" />
            <path d="M657.621 114.708L660.736 123.971C669.763 119.121 676.053 108.867 675.168 98.6716L674.908 95.7688L674.731 95.934C670.873 110.011 659.922 114.271 657.609 114.72L657.621 114.708Z"
                fill="#F26945" />
            <path d="M680.229 71.567C680.229 71.567 674.424 71.9328 674.459 81.597C674.459 81.597 677.209 76.0392 680.524 77.7502C680.524 77.7502 681.834 74.7176 679.049 75.1896C676.265 75.6616 680.229 71.567 680.229 71.567Z"
                fill="#F26945" />
            <path d="M644.24 101.763C644.24 101.763 651.084 99.415 656.217 94.7776C656.217 94.7776 658.164 102.4 652.606 104.678C647.993 106.566 644.252 101.751 644.252 101.751L644.24 101.763Z"
                fill="white" />
            <path d="M639.668 87.6195C640.776 87.1791 641.132 85.4572 640.463 83.7735C639.794 82.0898 638.353 81.082 637.245 81.5223C636.137 81.9627 635.781 83.6846 636.45 85.3683C637.119 87.0519 638.559 88.0599 639.668 87.6195Z"
                fill="black" />
            <path d="M643.392 75.7442C643.392 75.7442 636.324 76.3224 632.218 79.1898L631.25 76.759C631.25 76.759 636.088 73.219 642.295 74.6232C643.062 74.8002 643.251 74.93 643.392 75.7324V75.7442Z"
                fill="black" />
            <path d="M673.281 47.2708C666.295 51.7666 655.026 51.0232 650.684 43.2588C653.232 45.0406 655.628 46.492 658.578 47.1882C663.392 48.439 668.348 47.967 673.281 47.2708Z"
                fill="#4A342E" />
            <path d="M665.031 39.943C656.794 40.9696 646.953 35.4118 646.41 26.5264C647.932 29.2404 649.466 31.5886 651.815 33.4884C655.614 36.7098 660.287 38.4326 665.031 39.9312V39.943Z"
                fill="#4A342E" />
            <path d="M647.412 47.2C637.299 44.8518 627.588 35.6478 628.331 24.6738C628.39 23.9658 628.461 23.2696 628.555 22.5852C628.768 23.5764 628.945 24.6384 629.098 25.6414C629.263 26.2904 629.747 27.8834 629.924 28.556C630.833 31.0222 632.084 33.4058 633.618 35.5416C637.311 40.3796 642.184 44.0612 647.424 47.2H647.412Z"
                fill="#4A342E" />
            <path d="M641.832 53.2652C637.501 55.3538 630.516 53.749 629.383 48.557C633.112 51.6132 637.194 52.0498 641.832 53.2652Z"
                fill="#4A342E" />
            <path opacity="0.5"
                d="M660.692 60.9706C652.704 68.6996 644.928 62.4574 644.928 62.4574C638.131 66.0564 631.24 66.0564 631.24 66.0564L629.363 71.7912C628.655 68.3456 628.065 65.2776 627.652 62.9412C635.617 64.1212 645.518 58.4926 645.518 58.4926C653.919 64.2982 660.256 61.183 660.681 60.9706H660.692Z"
                fill="#F26945" />
            <path d="M562.995 157.719L560.293 159.029C559.55 159.394 558.653 159.076 558.287 158.332L556.151 153.907C558.027 151.701 559.491 149.317 558.016 148.503C557.095 147.984 555.361 147.913 553.402 148.208L553.142 147.665C555.691 146.013 556.718 143.476 555.632 142.048C555.077 141.329 552.67 140.951 549.944 141.045L547.372 135.747C548.387 133.635 548.93 130.768 547.183 129.835C546.345 129.387 545.354 129.753 544.564 129.906L539.454 119.322L535.843 111.84C535.478 111.097 535.796 110.2 536.54 109.834L539.242 108.525C539.985 108.159 540.882 108.477 541.248 109.221L547.962 123.133L563.691 155.701C564.057 156.444 563.739 157.341 562.995 157.707V157.719Z"
                fill="black" />
            <path d="M542.026 110.849L539.666 112.147L560.788 156.114L563.301 154.887L542.026 110.849Z"
                fill="url(#paint1_linear_2114_42021)" />
            <path d="M636.629 218.335C636.629 218.335 633.325 216.672 630.941 211.373L637.632 206.028L636.629 218.335Z"
                fill="#005828" />
            <path d="M636.017 209.226C636.017 209.226 624.748 216.506 620.547 218.536C615.001 221.226 610.588 219.669 607.697 216.306L564.78 167.619L559.813 166.876C555.576 166.227 551.694 164.197 548.721 161.117C546.361 158.663 544.036 155.819 543.824 153.919C543.753 153.258 544.024 152.621 544.508 152.031C545.747 150.556 548.685 149.907 551.199 148.621C555.293 146.532 557.417 147.122 558.019 148.491C558.703 150.037 558.031 151.689 556.155 153.896L558.29 158.321C558.656 159.064 559.541 159.383 560.296 159.017L562.999 157.707C563.742 157.341 564.061 156.456 563.695 155.701L547.965 123.133L560.532 128.773C563.022 128.231 565.665 128.549 567.978 129.729L570.763 131.122C575.79 133.67 579.412 138.32 580.651 143.818L582.197 153.176L616.252 182.853L624.748 175.513C627.332 180.811 633.917 195.184 636.017 209.226Z"
                fill="#FFC780" />
            <path d="M653.304 138.343C651.404 142.06 655.511 147.5 654.343 152.031C651.263 163.973 645.634 181.496 644.407 202.889L647.876 206.028C647.699 209.474 644.525 209.556 644.313 213.073L636.631 218.347C636.702 215.374 636.466 212.306 636.005 209.238C633.905 195.196 626.742 179.62 624.158 174.321L653.292 138.355L653.304 138.343Z"
                fill="#009C41" />
            <path d="M549.946 141.045C548.53 141.081 547.019 141.258 545.674 141.576C543.751 140.621 540.789 138.768 539.892 136.349C538.83 133.482 541.945 130.378 544.931 129.824C544.978 129.812 546.358 129.411 547.196 129.835C548.954 130.732 548.4 133.623 547.385 135.724L549.957 141.034L549.946 141.045Z"
                fill="#FFC780" />
            <path d="M553.148 147.665C552.569 148.031 551.932 148.361 551.201 148.621C548.463 149.317 545.749 150.556 544.51 152.031C542.988 150.627 540.545 147.866 540.994 144.869C541.241 143.217 543.224 142.155 545.678 141.576C547.035 141.246 554.316 139.759 555.637 142.048C556.888 144.208 555.708 146.013 553.148 147.665Z"
                fill="#FFC780" />
            <path d="M544.885 130.567L533.168 123.475C532.129 122.838 531.586 121.705 531.634 120.584C531.657 120.089 531.799 119.581 532.058 119.133C532.884 117.729 534.631 117.162 536.118 117.835L539.457 119.333L544.885 130.579V130.567Z"
                fill="#FFC780" />
            <path d="M560.531 128.785C559.716 128.962 558.914 129.222 558.147 129.588L555.221 130.945C553.899 131.57 553.344 133.139 553.97 134.437C554.383 135.311 555.244 135.865 556.176 135.912C556.353 135.912 556.542 135.912 556.719 135.877L561.132 135.169C562.666 134.909 564.236 135.358 565.404 136.373C566.631 137.435 567.28 138.98 567.198 140.585C567.198 140.739 567.186 140.88 567.162 141.034C566.773 144.184 566.702 149.435 569.829 153.164"
                stroke="#F26945"
                stroke-width="2"
                stroke-linecap="round"
                stroke-linejoin="round" />
            <path d="M551.754 158.332C551.754 158.332 554.185 156.208 556.155 153.907"
                stroke="#F26945"
                stroke-width="2"
                stroke-linecap="round"
                stroke-linejoin="round" />
            <path d="M553.143 147.665C552.565 148.031 551.928 148.361 551.197 148.621C548.459 149.317 545.745 150.556 544.506 152.031"
                stroke="#F26945"
                stroke-width="2"
                stroke-linecap="round"
                stroke-linejoin="round" />
            <path d="M540.979 144.869C541.226 143.217 543.209 142.155 545.663 141.576C547.02 141.246 548.519 141.081 549.935 141.045"
                stroke="#F26945"
                stroke-width="2"
                stroke-linecap="round"
                stroke-linejoin="round" />
            <path d="M547.373 135.747C546.689 137.187 545.934 138.355 545.934 138.355"
                stroke="#F26945"
                stroke-width="2"
                stroke-linecap="round"
                stroke-linejoin="round" />
            <path d="M733.143 185.236C733.143 185.236 731.892 187.455 727.868 188.328L726.889 182.64L733.143 185.225V185.236Z"
                fill="#002B13"
                fill-opacity="0.9" />
            <path d="M692.939 107.132L690.072 105.516L661.752 128.183L661.174 134.083H673.658L694.745 111.132L692.939 107.132Z"
                fill="#FFC780" />
            <path d="M729.99 185.225V224.306C729.99 231.787 729.99 235.386 725.117 245.947L718.863 259.128H684.596L692.974 232.448L686.909 195.432C702.284 186.393 721.589 185.295 730.002 185.213L729.99 185.225Z"
                fill="#FFC780" />
            <path d="M733.14 185.236C733.14 185.236 731.996 185.201 729.99 185.225C721.576 185.307 702.271 186.405 686.896 195.443L692.961 232.46L684.583 259.14H639.873C641.171 245.652 641.513 230.596 641.667 215.999C641.702 212.825 641.749 209.674 641.761 206.571H641.773C641.962 187.266 642.209 169.637 644.475 158.757C645.336 154.639 646.646 150.851 648.204 147.417C652.381 138.19 658.281 131.546 661.738 128.172C661.668 130.496 662.352 133.576 667.06 130.744C678.789 123.735 692.926 107.132 692.926 107.132L698.637 109.303C709.682 113.504 718.119 122.637 721.411 133.977C725.824 149.14 731.524 170.593 733.128 185.248L733.14 185.236Z"
                fill="#00CA5E" />
            <path d="M695.57 232.46L687.192 259.14H681.977L690.319 231.256L684.596 200.824L680.891 201.804L674.885 155.937L684.325 197.084C685.163 196.505 688.549 194.299 690.189 193.65L695.57 232.46Z"
                fill="#009C41" />
            <path d="M616.252 182.865L617.963 189.98"
                stroke="#F26945"
                stroke-width="2"
                stroke-linecap="round"
                stroke-linejoin="round" />
        </g>
        <path opacity="0.2"
            d="M891.225 192.859C897.097 192.859 901.857 188.099 901.857 182.227C901.857 176.356 897.097 171.596 891.225 171.596C885.354 171.596 880.594 176.356 880.594 182.227C880.594 188.099 885.354 192.859 891.225 192.859Z"
            stroke="#002B13"
            stroke-opacity="0.9"
            stroke-width="2"
            stroke-miterlimit="10" />
        <path d="M846.423 43.4358C850.6 43.4358 853.987 40.0493 853.987 35.872C853.987 31.6946 850.6 28.3082 846.423 28.3082C842.246 28.3082 838.859 31.6946 838.859 35.872C838.859 40.0493 842.246 43.4358 846.423 43.4358Z"
            fill="#00C768" />
        <path d="M1104.09 157.613C1106.17 157.613 1107.86 155.922 1107.86 153.837C1107.86 151.751 1106.17 150.061 1104.09 150.061C1102 150.061 1100.31 151.751 1100.31 153.837C1100.31 155.922 1102 157.613 1104.09 157.613Z"
            fill="#00C768" />
        <path d="M801.346 116.265C803.432 116.265 805.122 114.575 805.122 112.489C805.122 110.404 803.432 108.713 801.346 108.713C799.261 108.713 797.57 110.404 797.57 112.489C797.57 114.575 799.261 116.265 801.346 116.265Z"
            fill="#00C768" />
        <path d="M713.566 101.291C716.062 101.291 718.086 99.2678 718.086 96.7718C718.086 94.2758 716.062 92.2524 713.566 92.2524C711.07 92.2524 709.047 94.2758 709.047 96.7718C709.047 99.2678 711.07 101.291 713.566 101.291Z"
            stroke="#00C768"
            stroke-miterlimit="10" />
        <path opacity="0.2"
            d="M843.819 106.613C845.768 106.613 847.347 105.033 847.347 103.085C847.347 101.136 845.768 99.5565 843.819 99.5565C841.871 99.5565 840.291 101.136 840.291 103.085C840.291 105.033 841.871 106.613 843.819 106.613Z"
            fill="#002B13"
            fill-opacity="0.9" />
        <path opacity="0.2"
            d="M783.784 199.267C785.237 199.267 786.415 198.088 786.415 196.635C786.415 195.182 785.237 194.004 783.784 194.004C782.33 194.004 781.152 195.182 781.152 196.635C781.152 198.088 782.33 199.267 783.784 199.267Z"
            fill="#002B13"
            fill-opacity="0.9" />
        <path d="M1101.73 220.518C1090.69 223.173 1079.53 216.353 1076.88 205.308C1074.22 194.263 1081.05 183.112 1092.09 180.457C1103.13 177.802 1114.29 184.623 1116.94 195.668C1119.6 206.712 1112.78 217.863 1101.73 220.518Z"
            fill="#00C669" />
        <path d="M1106.44 202.287C1105.8 205.957 1103.04 209.084 1099.19 210.016C1095.35 210.948 1091.46 209.414 1089.22 206.441"
            stroke="white"
            stroke-width="1.63"
            stroke-linecap="round"
            stroke-linejoin="round" />
        <path d="M1085.93 198.606C1086.47 199.172 1087.29 199.444 1088.1 199.243C1088.87 199.054 1089.45 198.511 1089.69 197.827"
            stroke="white"
            stroke-width="1.63"
            stroke-linecap="round"
            stroke-linejoin="round" />
        <path d="M1105.8 193.815C1105.58 194.57 1104.97 195.184 1104.16 195.373C1103.39 195.561 1102.64 195.337 1102.1 194.842"
            stroke="white"
            stroke-width="1.63"
            stroke-linecap="round"
            stroke-linejoin="round" />
        <path d="M957.853 63.4013C970.496 63.4013 980.745 53.1522 980.745 40.5093C980.745 27.8664 970.496 17.6173 957.853 17.6173C945.21 17.6173 934.961 27.8664 934.961 40.5093C934.961 53.1522 945.21 63.4013 957.853 63.4013Z"
            fill="#00C669" />
        <path d="M948.049 33.7243C948.249 32.7567 949.193 32.1195 950.161 32.3201C951.129 32.5207 951.766 33.4647 951.565 34.4323C951.364 35.3999 950.421 36.0371 949.453 35.8365C948.485 35.6359 947.848 34.6919 948.049 33.7243Z"
            fill="white" />
        <path d="M966.006 37.3233C966.206 36.3557 967.15 35.7185 968.118 35.9191C969.085 36.1197 969.723 37.0637 969.522 38.0313C969.321 38.9989 968.377 39.6361 967.41 39.4355C966.442 39.2349 965.805 38.2909 966.006 37.3233Z"
            fill="white" />
        <path d="M967.896 45.9963C965.559 50.2797 960.639 52.7459 955.6 51.7311C950.561 50.7163 946.974 46.5509 946.467 41.7011L967.896 45.9963Z"
            fill="white" />
        <path d="M1133.97 83.1428C1135.77 79.7326 1137.4 75.0952 1136.49 71.2484C1135.58 67.3898 1132.16 65.1242 1128.78 63.5784C1128.71 63.543 1128.63 63.5312 1128.56 63.5076C1128.52 63.484 1128.47 63.4486 1128.42 63.425C1126.27 62.5282 1123.57 61.655 1120.94 60.6048C1119.89 55.7904 1118.85 50.9642 1117.88 46.1262C1120.99 46.2914 1123.76 47.5304 1125.87 50.0202C1126.3 50.5158 1127.14 50.563 1127.68 50.2562C1129.98 48.911 1132.28 47.5658 1134.58 46.2206C1135.01 45.9728 1135.36 45.4418 1135.31 44.9344C1135.17 43.4122 1133.41 41.949 1132.38 40.9696C1130.17 38.9046 1127.3 37.9724 1124.34 37.6302C1121.68 37.3116 1119.06 37.6892 1116.72 38.6214C1116.29 36.285 1115.87 33.9368 1115.49 31.6004C1115.18 29.7124 1112.32 30.5148 1112.62 32.391C1113.05 34.9516 1113.5 37.5122 1113.97 40.061C1111.84 41.4888 1110.1 43.483 1108.96 45.9374C1102.57 51.0822 1100.85 62.481 1108.56 67.4488C1111.98 69.6554 1116.17 69.8796 1120.09 70.564C1121.12 75.4374 1122.09 80.3108 1122.98 85.2078C1122.32 85.0544 1121.68 84.8302 1121.07 84.5116C1118.26 83.0366 1117.9 80.7592 1116.55 78.234C1115.87 76.9596 1114.83 76.4286 1113.37 76.6646C1110.78 77.0894 1107.89 78.9774 1105.48 80.0158C1104.94 80.2518 1104.59 81.1368 1104.8 81.6914C1107.1 87.5796 1112.29 91.922 1118.7 92.4766C1120.45 92.63 1122.32 92.4766 1124.15 92.0518C1124.43 93.869 1124.71 95.698 1124.95 97.5152C1125.2 99.3914 1128.17 99.415 1127.93 97.5152C1127.64 95.3676 1127.32 93.2318 1126.99 91.096C1130.44 89.5974 1133.27 86.9306 1133.97 83.131V83.1428ZM1129.9 83.6148C1128.78 84.5352 1127.43 85.1134 1126.03 85.3258C1125.19 80.6294 1124.26 75.9566 1123.29 71.2838C1124.93 71.7676 1126.49 72.4756 1127.7 73.7146C1129.74 75.815 1131.02 79.2606 1131.08 82.2224C1130.75 82.7416 1130.36 83.2018 1129.91 83.6266L1129.9 83.6148ZM1111.43 47.849C1112.55 47.2 1113.68 46.728 1114.91 46.4094C1115.76 50.6338 1116.66 54.8582 1117.57 59.0708C1113.18 56.7698 1109.93 53.4894 1111.43 47.849ZM1123.9 40.533C1126.22 40.7808 1128.53 41.5006 1130.27 43.0582C1130.65 43.4004 1130.99 43.8016 1131.35 44.1674C1131.42 44.2382 1131.5 44.368 1131.61 44.4978C1130.15 45.3592 1128.67 46.2088 1127.21 47.0702C1124.27 44.1556 1120.22 42.8458 1116.08 43.1526C1115.99 43.1526 1115.89 43.1762 1115.81 43.1998C1115.76 43.1998 1115.73 43.1998 1115.68 43.1998C1115.21 43.2706 1114.75 43.365 1114.29 43.4712C1116.83 41.2056 1120.43 40.1436 1123.9 40.5094V40.533ZM1107.94 62.7406C1105.64 59.236 1106 54.6458 1108.13 51.2002C1108.35 54.398 1109.91 57.3008 1112.67 59.5192C1114.53 61.0178 1116.62 62.0798 1118.81 62.9884C1118.94 63.071 1119.08 63.13 1119.23 63.1654C1121.92 64.251 1124.72 65.1124 1127.37 66.198C1129.96 67.378 1132.98 69.0064 1133.63 72.039C1133.97 73.6438 1133.71 75.5082 1133.18 77.3136C1132.45 75.1542 1131.29 73.1246 1129.8 71.6024C1127.84 69.6082 1125.27 68.6406 1122.6 68.0388C1122.46 67.3426 1122.31 66.6582 1122.17 65.962C1121.77 64.0858 1118.9 64.8764 1119.3 66.7526C1119.35 66.9886 1119.4 67.2246 1119.45 67.4606C1115.41 66.847 1110.4 66.4694 1107.95 62.7406H1107.94ZM1118.7 89.503C1114.13 89.0192 1110.2 86.0928 1108.19 82.0454C1109.39 81.5026 1110.59 80.9362 1111.83 80.476C1112.34 80.2872 1113.45 79.65 1114 79.9568C1114.2 80.0748 1114.57 81.5498 1114.64 81.715C1115.58 83.8272 1117.19 85.668 1119.18 86.8598C1120.83 87.8392 1122.64 88.323 1124.46 88.3584C1124.54 88.3584 1124.63 88.3584 1124.73 88.3584C1125.18 88.3584 1125.64 88.323 1126.09 88.2758C1123.78 89.3496 1121.07 89.7508 1118.71 89.503H1118.7Z"
            fill="white" />
        <path d="M851.882 181.036C851.268 184.375 847.799 185.26 844.885 185.177C844.814 185.177 844.743 185.166 844.672 185.154C844.247 186.098 843.775 186.983 843.221 187.726C841.569 189.956 839.221 188.824 837.085 187.986C835.22 193.237 833.356 198.5 831.492 203.762C831.008 205.143 830.666 207.114 829.037 207.562C827.716 207.928 825.898 207.291 824.695 206.842C820.553 205.285 821.886 203.113 823.173 199.644C825.025 194.676 826.878 189.697 828.718 184.717C827.35 184.186 825.969 183.643 824.6 183.112C824.317 182.994 824.069 182.735 823.916 182.428C812.305 181.98 800.741 180.906 789.153 180.044C788.646 180.009 788.327 179.773 788.15 179.454C787.914 179.171 787.82 178.782 787.973 178.298C791.926 165.967 796.044 153.754 800.8 141.706C801.024 141.14 801.437 140.892 801.885 140.868C802.287 140.762 802.735 140.857 803.124 141.258C811.491 149.884 821.52 156.645 830.052 165.094C830.394 164.952 830.795 164.94 831.232 165.129C836.152 167.206 841.191 168.929 846.218 170.722C846.348 170.77 846.454 170.817 846.548 170.888C848.896 172.079 848.472 173.944 847.752 176.056C850.065 176.776 852.401 178.192 851.882 181.036Z"
            fill="#00C669" />
        <path d="M793.507 143.854C792.268 143.205 791.124 142.45 790.038 141.576C788.551 140.373 786.581 142.615 788.067 143.807C789.354 144.833 790.722 145.742 792.186 146.521C793.885 147.417 795.206 144.751 793.507 143.854Z"
            fill="#00C669" />
        <path d="M788.115 156.81C786.699 156.527 785.33 156.138 783.996 155.595C782.226 154.887 780.893 157.542 782.675 158.262C784.256 158.899 785.884 159.394 787.56 159.737C789.436 160.114 790.014 157.188 788.126 156.81H788.115Z"
            fill="#00C669" />
        <path d="M785.258 169.035C783.37 168.752 781.282 169.259 779.418 169.566C777.541 169.873 777.754 172.846 779.642 172.54C780.515 172.398 781.388 172.256 782.261 172.15C783.04 172.044 783.913 171.843 784.692 171.961C786.58 172.245 787.158 169.318 785.258 169.035Z"
            fill="#00C669" />
        <path d="M847.752 176.056C848.472 173.944 848.897 172.079 846.537 170.888C846.443 170.829 846.336 170.77 846.207 170.722C841.18 168.929 836.129 167.206 831.221 165.129C830.784 164.94 830.383 164.952 830.041 165.094C821.509 156.645 811.479 149.884 803.113 141.258C802.724 140.857 802.275 140.774 801.886 140.868C801.437 140.892 801.013 141.14 800.788 141.706C796.033 153.754 791.915 165.967 787.974 178.298C787.82 178.782 787.915 179.171 788.139 179.454C788.316 179.773 788.646 180.009 789.154 180.044C800.741 180.906 812.305 181.98 823.916 182.428C824.07 182.735 824.318 183.006 824.589 183.112C825.97 183.643 827.338 184.186 828.719 184.717C826.866 189.697 825.014 194.676 823.161 199.644C821.875 203.102 820.553 205.285 824.683 206.83C825.887 207.279 827.704 207.916 829.026 207.55C830.654 207.102 830.996 205.131 831.48 203.751C833.345 198.488 835.209 193.225 837.073 187.974C839.209 188.812 841.546 189.945 843.209 187.714C843.764 186.971 844.236 186.086 844.661 185.142C844.732 185.142 844.791 185.166 844.873 185.166C847.788 185.248 851.257 184.363 851.871 181.024C852.39 178.18 850.065 176.764 847.752 176.044V176.056ZM802.688 145.034C810.889 153.093 820.435 159.642 828.554 167.796C827.22 171.702 825.793 175.572 824.471 179.49C813.426 179.089 802.429 178.097 791.419 177.248C794.912 166.404 798.558 155.654 802.688 145.034ZM830.973 196.399C830.395 198.051 829.805 199.691 829.226 201.343C828.955 202.122 828.778 203.515 828.259 204.093C827.633 204.765 827.81 204.695 826.548 204.341C824.176 203.668 825.368 202.264 826.052 200.447C826.654 198.818 827.256 197.202 827.869 195.573C829.085 192.316 830.288 189.06 831.504 185.803C832.46 186.169 833.404 186.546 834.359 186.912C833.238 190.074 832.117 193.237 830.996 196.399H830.973ZM843.198 180.103C842.619 181.661 841.723 185.815 839.882 185.885C839.186 185.921 837.309 184.882 836.66 184.623C835.587 184.21 834.513 183.785 833.439 183.36C831.339 182.534 829.226 181.72 827.126 180.894C827.126 180.882 827.126 180.87 827.126 180.859C828.507 176.693 830.029 172.575 831.457 168.421C835.882 170.215 840.401 171.773 844.897 173.377C845.947 173.838 843.611 178.994 843.198 180.092V180.103ZM848.862 180.8C848.425 181.991 847.021 182.216 845.782 182.239C846.159 181.095 846.502 179.938 846.832 178.864C847.906 179.124 849.31 179.584 848.862 180.811V180.8Z"
            fill="white" />
        <path d="M793.507 143.854C792.268 143.205 791.124 142.45 790.038 141.576C788.551 140.373 786.581 142.615 788.067 143.807C789.354 144.833 790.722 145.742 792.186 146.521C793.885 147.417 795.206 144.751 793.507 143.854Z"
            fill="white" />
        <path d="M788.115 156.81C786.699 156.527 785.33 156.138 783.996 155.595C782.226 154.887 780.893 157.542 782.675 158.262C784.256 158.899 785.884 159.394 787.56 159.737C789.436 160.114 790.014 157.188 788.126 156.81H788.115Z"
            fill="white" />
        <path d="M785.258 169.035C783.37 168.752 781.282 169.259 779.418 169.566C777.541 169.873 777.754 172.846 779.642 172.54C780.515 172.398 781.388 172.256 782.261 172.15C783.04 172.044 783.913 171.843 784.692 171.961C786.58 172.245 787.158 169.318 785.258 169.035Z"
            fill="white" />
        <path d="M958.716 118.212C958.881 117.504 958.622 116.537 957.89 116.195C950.845 112.891 941.748 112.336 934.078 111.298C925.877 110.177 917.652 109.28 909.416 108.477C899.279 107.486 889.12 106.613 878.96 105.917C877.65 105.822 876.682 107.522 877.414 108.607C886.158 121.481 895.704 133.6 905.616 145.6C909.298 150.061 913.015 154.497 916.755 158.899C918.679 161.153 920.626 163.383 922.525 165.66C923.894 167.3 925.074 169.672 926.903 170.805C930.49 173.035 932.544 168.056 934.16 165.601C936.957 161.353 939.612 157.011 942.161 152.609C945.63 155.17 949.016 157.825 952.332 160.586C953.76 161.778 955.589 160.633 955.318 158.852C954.138 150.957 952.946 143.051 951.766 135.157C951.848 135.063 951.919 134.957 951.978 134.827C954.775 129.517 957.312 124.089 958.704 118.224L958.716 118.212ZM931.399 114.507C935.14 115.003 938.88 115.534 942.597 116.159C946.597 116.832 951.046 117.28 954.869 118.767C953.583 123.428 951.601 127.794 949.37 132.077C938.101 129.493 927.328 125.363 916.602 121.139C907.351 117.493 898.099 113.846 888.86 110.212C895.114 110.708 901.368 111.262 907.622 111.864C915.563 112.631 923.493 113.469 931.399 114.507ZM941.984 148.055C931.777 140.916 921.322 134.166 910.844 127.452C904.79 123.57 898.737 119.723 892.86 115.616C900.459 118.614 908.059 121.611 915.658 124.596C926.325 128.797 937.039 132.903 948.226 135.488C949.205 142.001 950.185 148.527 951.164 155.04C948.155 152.633 945.099 150.308 941.984 148.043V148.055ZM928.614 167.56C927.682 166.84 926.856 165.33 926.219 164.539C925.003 163.017 923.717 161.554 922.443 160.067C919.575 156.728 916.732 153.365 913.911 150.002C908.424 143.453 903.008 136.845 897.663 130.166C893.84 125.387 890.182 120.525 886.63 115.581C903.421 128.207 922.018 138.544 939.258 150.497C937.653 153.282 936.013 156.043 934.314 158.757C932.673 161.377 930.927 165.2 928.614 167.548V167.56Z"
            fill="#00C669" />
        <path d="M1215.46 91.4854C1215.34 90.8128 1214.64 90.4352 1214.02 90.388C1208.78 90.0458 1203.39 91.6152 1198.3 93.987C1198.28 93.987 1198.26 93.9634 1198.22 93.9516C1191.65 92.0046 1185.09 94.7068 1179.29 97.763C1173.64 100.748 1168.73 104.973 1164.83 110.011C1164.24 110.767 1164.24 112.312 1165.49 112.501C1167.85 112.843 1170.2 113.068 1172.57 113.174C1169.41 116.643 1166.48 120.313 1163.8 124.006C1163.35 124.62 1163.49 125.222 1163.9 125.635C1163.94 125.729 1164.01 125.823 1164.1 125.918C1164.29 126.142 1164.49 126.354 1164.67 126.579C1162.35 127.782 1159.98 129.127 1158.4 131.275C1156.27 134.178 1156.56 137.73 1155.91 141.104C1155.74 141.954 1156.31 143.099 1157.35 142.992C1157.95 142.922 1158.54 142.863 1159.14 142.792C1158.18 146.521 1158.14 150.285 1158.86 154.143C1158.95 154.627 1159.44 155.076 1159.9 155.182C1161.12 155.477 1162.86 155.005 1164.45 154.285C1164.47 154.899 1164.63 155.489 1164.96 155.949C1166.16 157.648 1169.14 156.291 1170.57 155.689C1176.24 153.341 1181.31 149.907 1184.89 144.892C1185.42 145.116 1186.07 144.892 1186.48 144.538C1189.34 142.037 1192.22 139.393 1194.97 136.585C1195.53 138.733 1196.11 140.88 1196.68 143.04C1196.95 144.078 1198.41 144.538 1199.17 143.7C1203.79 138.497 1207.66 132.679 1210.48 126.307C1213.01 120.608 1215.47 114.177 1213.26 108.029C1215.27 102.613 1216.45 96.9252 1215.45 91.4854H1215.46ZM1179.13 101.279C1183.48 98.7306 1188.7 96.1582 1193.87 96.2762C1190.93 97.9282 1188.17 99.7454 1185.67 101.492C1182 104.041 1178.56 107.038 1175.34 110.283C1175.31 110.283 1175.28 110.283 1175.25 110.283C1173.08 110.283 1170.93 110.177 1168.77 109.952C1171.75 106.542 1175.2 103.592 1179.14 101.291L1179.13 101.279ZM1174.1 150.651C1172.79 151.394 1171.41 152.078 1170.04 152.704C1169.94 152.751 1168 153.66 1167.33 153.719C1167.72 153.553 1167.97 152.102 1168.17 151.807C1169.12 150.356 1167.03 148.881 1165.83 150.002C1164.82 150.957 1163.49 151.311 1162.2 151.736C1162.04 151.783 1161.78 151.854 1161.5 151.937C1161.05 148.385 1161.44 144.916 1162.65 141.482C1162.94 140.632 1162.14 139.5 1161.21 139.594C1160.49 139.677 1159.77 139.747 1159.06 139.83C1159.27 137.623 1159.36 135.311 1160.5 133.47C1161.85 131.275 1164.37 130.083 1166.57 128.95C1166.62 128.927 1166.66 128.891 1166.7 128.868C1166.95 129.139 1167.21 129.399 1167.46 129.67C1167.39 129.729 1167.32 129.776 1167.26 129.859C1164.27 133.529 1164.98 139.57 1166.13 143.842C1166.35 144.68 1167.16 145.01 1167.96 144.88C1168.32 144.821 1168.67 144.739 1169.03 144.668C1168.91 145.341 1168.86 146.037 1168.86 146.78C1168.86 147.736 1169.82 148.479 1170.75 148.22C1174.67 147.087 1178 144.975 1180.6 141.824C1180.63 141.801 1180.64 141.765 1180.66 141.742C1181.27 142.214 1181.88 142.686 1182.49 143.158C1180.31 146.296 1177.43 148.774 1174.09 150.639L1174.1 150.651ZM1185.36 141.6C1178.62 136.668 1172.49 131.004 1166.99 124.714C1172.6 117.091 1179.41 109.469 1187.17 104.064C1194.29 99.0964 1203.7 93.3144 1212.76 93.338C1213.28 97.9046 1211.87 102.636 1210.34 106.884C1208.69 111.463 1206.58 115.97 1204.15 120.207C1199.47 128.325 1192.37 135.393 1185.36 141.6ZM1207.1 126.638C1204.88 131.275 1202.09 135.582 1198.85 139.547C1198.36 137.73 1197.88 135.901 1197.4 134.083C1201.27 129.883 1204.76 125.351 1207.4 120.454C1208.65 118.142 1209.95 115.664 1211.15 113.079C1211.21 117.752 1209.08 122.496 1207.1 126.626V126.638Z"
            fill="#00C669" />
        <path d="M1199.21 105.598C1197.04 104.536 1194.25 104.843 1192.55 106.637C1190.38 108.914 1190.59 112.808 1193.11 114.743C1195.99 116.962 1200.12 115.38 1201.69 112.395C1201.81 112.242 1201.89 112.065 1201.95 111.84C1202.02 111.663 1202.05 111.498 1202.06 111.333C1202.44 108.973 1201.48 106.707 1199.23 105.598H1199.21ZM1194.26 111.557C1193.67 110.318 1194.16 108.725 1195.45 108.171C1197.47 107.286 1199.58 108.926 1199.07 111.05C1198.33 112.938 1195.21 113.54 1194.26 111.557Z"
            fill="#00C669" />
        <path d="M1183.6 118.189C1180.57 118.779 1178.59 121.717 1179.48 124.714C1179.52 124.844 1179.57 124.95 1179.63 125.045C1179.63 125.045 1179.63 125.056 1179.63 125.068C1180.82 127.865 1184.32 129.139 1187.01 127.688C1189.07 126.579 1190.26 124.042 1189.67 121.752C1188.98 119.121 1186.18 117.67 1183.59 118.177L1183.6 118.189ZM1185.76 124.997C1184.44 125.823 1183 125.08 1182.34 123.841C1181.59 120.95 1186.47 119.923 1186.85 122.732C1186.97 123.605 1186.49 124.537 1185.76 124.997Z"
            fill="#00C669" />
        <path d="M810.32 74.635C810.45 75.4374 810.037 76.2162 809.222 76.4286C798.378 79.2488 787.593 82.2224 776.784 85.1606C769.822 87.0604 762.919 89.2316 755.886 90.8482C754.671 91.1314 752.311 92.0872 751.237 91.037C750.553 90.3762 750.6 88.8422 750.458 87.9926C750.234 86.6474 749.868 85.3966 749.562 84.075C748.346 78.9892 748.063 73.75 746.812 68.6406C745.444 63.012 744.075 57.3834 742.706 51.7548C742.588 51.2828 742.729 50.8226 743.013 50.4686C743.237 50.1382 743.591 49.914 744.016 49.8904C747.178 48.9936 750.34 48.1086 753.515 47.259C752.264 43.011 751.225 38.7158 750.411 34.3498C750.27 33.5946 750.683 32.6978 751.509 32.5444C754.293 32.0252 756.842 30.8924 759.544 30.0428C762.306 29.1932 765.173 28.733 767.97 28.0014C773.681 26.5028 779.132 24.1546 784.973 23.1516C785.776 23.01 786.555 23.423 786.767 24.249C788.018 29.0634 789.705 33.7598 791.227 38.4916C793.104 38.114 794.98 37.7246 796.868 37.4178C797.859 37.2526 798.968 36.993 799.901 37.5476C800.998 38.1966 801.281 39.5418 801.671 40.651C802.449 42.8576 803.157 45.0878 803.842 47.3298C806.591 56.2742 808.727 65.4074 810.32 74.635Z"
            fill="#00C669" />
        <path d="M803.842 47.3298C803.157 45.0878 802.438 42.8576 801.671 40.651C801.281 39.5418 800.998 38.2084 799.901 37.5476C798.968 36.993 797.859 37.2526 796.868 37.4178C794.98 37.7246 793.104 38.114 791.227 38.4916C789.693 33.7598 788.018 29.0752 786.767 24.249C786.555 23.4348 785.776 23.0218 784.973 23.1516C779.132 24.1546 773.681 26.5028 767.97 28.0014C765.173 28.733 762.306 29.1932 759.544 30.0546C756.842 30.8924 754.293 32.0252 751.509 32.5562C750.683 32.7096 750.27 33.5946 750.411 34.3498C751.225 38.7158 752.264 43.011 753.503 47.259C750.329 48.1204 747.166 48.9936 744.016 49.9022C743.579 49.9258 743.237 50.15 743.013 50.4804C742.729 50.8226 742.588 51.2828 742.706 51.7666C744.075 57.3952 745.444 63.0238 746.812 68.6524C748.051 73.75 748.346 78.9892 749.55 84.075C749.868 85.4084 750.222 86.6474 750.447 87.9926C750.588 88.8422 750.553 90.3762 751.226 91.0488C752.299 92.099 754.659 91.1432 755.875 90.86C762.919 89.2316 769.81 87.0604 776.784 85.1606C787.593 82.2224 798.378 79.2488 809.222 76.4286C810.037 76.2162 810.45 75.4374 810.32 74.635C808.739 65.4074 806.603 56.2742 803.853 47.318L803.842 47.3298ZM795.959 40.6156C796.042 40.6038 796.184 40.5566 796.349 40.5094C795.228 41.8428 794.13 43.188 793.033 44.5332C792.75 43.4712 792.443 42.4092 792.124 41.3472C793.399 41.0994 794.673 40.8516 795.947 40.6038L795.959 40.6156ZM768.678 30.8924C773.929 29.5236 778.944 27.435 784.254 26.3258C786.212 33.4412 789.021 40.297 790.732 47.495C789.646 48.8874 788.584 50.2916 787.534 51.7076C785.776 54.0912 784.077 56.5102 782.413 58.9528C781.634 60.0974 780.926 61.6668 779.97 62.658C779.699 63.5784 779.074 63.9678 778.094 63.8262C777.445 63.4958 776.796 63.1772 776.147 62.8468C770.672 60.1446 765.067 57.7138 759.391 55.4482C756.901 48.8284 754.978 42.0552 753.609 35.1168C755.875 34.5268 758.022 33.63 760.264 32.9338C763.025 32.0724 765.893 31.6122 768.689 30.8806L768.678 30.8924ZM755.709 54.0204C753.503 53.1826 751.296 52.3566 749.066 51.566C750.836 51.0704 752.606 50.5866 754.388 50.1028C754.813 51.4126 755.249 52.7224 755.709 54.0204ZM757.774 87.3436C756.571 87.6386 755.367 87.9336 754.152 88.205C754.022 88.2286 753.857 88.2522 753.68 88.2758C753.538 87.5324 753.255 86.6592 753.172 86.258C752.83 84.5706 752.311 82.9304 752.028 81.2076C751.202 76.3578 750.6 71.6142 749.432 66.8234C748.37 62.4574 747.308 58.0914 746.246 53.7254C751.391 55.5426 756.512 57.4424 761.551 59.531C764.619 60.7936 767.651 62.1152 770.66 63.5194C772.135 64.2038 773.61 64.9118 775.073 65.6434C776.123 66.1626 777.351 67.083 778.519 67.2954C780.49 67.6494 781.256 66.139 782.189 64.6758C783.888 62.0326 785.646 59.4248 787.463 56.8642C791.098 51.7194 794.968 46.7516 799.039 41.9372C799.169 42.3738 799.263 42.7868 799.346 43.0228C800.526 46.5392 801.611 50.0792 802.603 53.6546C804.455 60.3334 805.966 67.0948 807.169 73.9152C790.673 78.2458 774.33 83.2726 757.774 87.3554V87.3436Z"
            fill="white" />
        <path d="M759.96 41.8192C766.698 39.9194 773.506 38.3382 780.386 37.0638C782.274 36.7216 781.566 33.8306 779.678 34.1728C772.798 35.4354 765.978 37.0284 759.252 38.9282C757.411 39.4474 758.107 42.3384 759.96 41.8192Z"
            fill="white" />
        <path d="M763.059 48.7694C761.207 49.2414 761.903 52.1324 763.767 51.6604C770.375 49.9966 776.983 48.321 783.591 46.6572C785.444 46.1852 784.748 43.2942 782.883 43.7662C776.275 45.43 769.667 47.1056 763.059 48.7694Z"
            fill="white" />
        <path d="M991.261 213.261C991.934 210.748 992.548 208.211 993.02 205.65C993.94 200.683 994.341 195.644 994.849 190.629C994.919 189.886 994.259 189.001 993.539 188.847C986.188 187.301 978.93 185.378 971.791 183.053C970.729 182.711 969.384 183.608 969.455 184.776C969.833 191.018 969.88 197.331 968.983 203.538C968.853 204.423 968.688 205.308 968.511 206.205C968.075 205.768 967.591 205.367 967.024 205.108C963.036 203.267 958.611 205.945 957.49 209.981C956.392 213.958 958.245 218.925 962.446 220.164C964.369 220.731 966.529 220.4 968.122 219.161C969.656 217.958 970.399 215.999 970.529 214.087C971.201 210.654 972.098 207.291 972.594 203.821C973.384 198.358 973.455 192.812 973.208 187.301C979.084 189.13 985.031 190.7 991.049 192.01C990.636 196.281 990.258 200.565 989.468 204.777C988.996 207.279 988.406 209.757 987.745 212.223C987.721 212.294 987.71 212.376 987.686 212.447C986.966 210.665 985.621 209.226 983.733 208.884C979.214 208.069 976.736 213.379 977.373 217.12C977.739 219.291 979.143 221.285 981.255 222.029C983.414 222.796 985.81 222.029 987.497 220.613C989.692 218.784 990.542 215.893 991.25 213.238L991.261 213.261Z"
            fill="white" />
        <g opacity="0.2">
            <path d="M1045.17 59.0472C1044.01 58.3628 1043.56 57.1828 1043.06 56.0146C1042.01 53.513 1040.94 51.0232 1039.83 48.439C1039.58 48.6278 1039.35 48.793 1039.13 48.9818C1035.6 52.1442 1032.12 51.7076 1028.87 48.3564C1026.16 45.5716 1025.52 42.126 1026.52 38.3972C1027.43 35.046 1030.55 33.3114 1033.92 34.2554C1034.18 34.3262 1034.44 34.397 1034.85 34.515C1034.8 34.0666 1034.81 33.6772 1034.71 33.3232C1034.44 32.3674 1034.12 31.4234 1033.82 30.4794C1033.66 29.9602 1033.47 29.4528 1033.34 28.9218C1033.01 27.553 1033.21 26.9866 1034.45 26.3612C1035.82 25.665 1037.24 25.0986 1038.65 24.485C1039.23 24.2372 1039.81 24.0248 1040.5 23.7534C1040.1 23.2224 1039.73 22.774 1039.42 22.3138C1037.79 19.9774 1037 17.4168 1037.79 14.6084C1038.6 11.7292 1040.52 9.87656 1043.49 9.20396C1044.75 8.92076 1045.91 9.32196 1047.01 9.85296C1049.99 11.3044 1052.29 15.4698 1051.22 18.88C1051.12 19.175 1051.07 19.4818 1050.97 19.9302C1051.38 19.8004 1051.71 19.706 1052.03 19.5998C1054.08 18.9272 1056.11 18.1602 1058.2 17.5938C1060.14 17.0746 1060.93 17.7 1061.4 19.6588C1061.85 21.4996 1062.38 23.3168 1062.89 25.193C1063.7 25.075 1064 24.5204 1064.41 24.1428C1066.63 22.1014 1069.19 21.4406 1072.07 22.3728C1072.86 22.6324 1073.69 23.069 1074.25 23.659C1076.17 25.7476 1077.36 28.202 1077.28 31.1284C1077.25 32.4972 1076.76 33.6772 1075.8 34.6684C1074 36.5092 1071.92 37.6302 1069.27 37.3706C1068.96 37.3352 1068.64 37.3706 1068.16 37.3706C1068.3 37.76 1068.4 38.0786 1068.51 38.3854C1069.18 39.9784 1069.9 41.536 1070.47 43.1526C1070.89 44.2972 1071.13 45.489 1071.42 46.6808C1071.59 47.4242 1071.36 47.7664 1070.5 48.2856C1069.38 48.9582 1068.23 49.6072 1067.13 50.3152C1066.53 50.7046 1065.97 51.1648 1065.4 51.625C1064.84 52.0734 1064.31 52.2386 1063.55 52.156C1062.48 52.0498 1061.98 51.6014 1061.62 50.622C1060.88 48.5924 1060.14 46.5392 1059.15 44.6158C1057.81 42.0552 1056.03 41.5124 1053.86 43.9786C1052.07 46.02 1051.38 48.4508 1052.07 51.153C1052.21 51.7194 1052.41 52.274 1052.6 52.8404C1053.16 54.5042 1052.93 55.2004 1051.37 56.0854C1050.04 56.8524 1048.66 57.5368 1047.31 58.2802C1046.92 58.4926 1046.58 58.7758 1046.21 59.0354H1045.13L1045.17 59.0472ZM1048.41 22.184C1048.74 21.063 1049.12 20.001 1049.35 18.9036C1049.94 16.1542 1048.58 13.3812 1046.13 12.1894C1044.67 11.4814 1043.45 11.6702 1042.27 12.744C1041.03 13.865 1040.48 15.3164 1040.19 16.9212C1039.77 19.3048 1040.57 21.063 1042.67 22.302C1043.06 22.5262 1043.48 22.7268 1043.84 22.9864C1044.21 23.2578 1044.56 23.5882 1044.36 24.1192C1044.17 24.5912 1043.79 24.8626 1043.3 24.8036C1042.27 24.6856 1041.47 25.1694 1040.63 25.6178C1039.36 26.2904 1038.05 26.9276 1036.76 27.5884C1036.37 27.789 1036.02 28.0368 1035.6 28.2964C1035.82 28.8864 1035.97 29.3466 1036.15 29.8186C1036.7 31.3054 1037.28 32.7804 1037.81 34.2672C1038 34.81 1038.16 35.4 1038.2 35.9782C1038.28 37.2526 1037.75 37.6302 1036.54 37.229C1035.8 36.993 1035.12 36.5918 1034.38 36.4266C1031.29 35.7304 1029.48 36.4266 1028.47 39.707C1027.53 42.6924 1028.45 45.2176 1030.78 47.1174C1033.54 49.383 1035 48.9818 1037.34 47.2354C1037.82 46.8814 1038.13 46.2678 1038.46 45.7368C1039.01 44.8518 1039.05 44.8164 1040.18 44.9934C1041.92 48.6632 1043.65 52.3212 1045.41 56.0382C1047.4 55.2712 1049.19 54.4806 1050.89 53.3832C1049.8 51.4716 1049.71 49.4892 1049.59 47.495C1049.47 45.5008 1050.15 43.8606 1051.63 42.539C1051.96 42.2322 1052.27 41.9018 1052.61 41.6068C1056.01 38.7158 1059.84 39.7188 1061.92 42.9992C1062.69 44.2028 1063.12 45.6188 1063.7 46.9404C1063.85 47.2944 1063.95 47.6838 1064.09 48.1322C1065.01 47.6248 1065.81 47.141 1066.65 46.7044C1067.51 46.256 1068.4 45.8666 1069.31 45.43C1069.05 44.7928 1068.88 44.3326 1068.67 43.8842C1067.94 42.3738 1067.16 40.887 1066.46 39.3648C1065.84 38.0078 1065.26 36.6272 1064.75 35.2348C1064.62 34.8808 1064.72 34.3144 1064.93 33.9958C1065.23 33.5592 1065.73 33.7716 1066.15 33.9958C1066.69 34.2554 1067.19 34.5504 1067.75 34.751C1070.25 35.6242 1072.55 34.8572 1074.2 32.627C1075.39 31.0222 1075.22 28.5088 1073.79 26.55C1073.19 25.724 1072.43 25.1458 1071.41 24.8626C1068.3 24.0248 1065.33 25.2638 1063.7 28.1548C1063.29 28.8982 1062.7 29.0634 1062.06 28.4852C1061.58 28.0486 1061.1 27.494 1060.86 26.904C1060.42 25.8656 1060.12 24.7682 1059.82 23.6826C1059.49 22.5616 1059.2 21.4406 1058.86 20.1898C1058.11 20.3904 1057.46 20.5438 1056.82 20.7444C1055.05 21.299 1053.29 21.8536 1051.52 22.4318C1050.5 22.7622 1049.5 22.892 1048.42 22.2312L1048.41 22.184Z"
                fill="#002B13"
                fill-opacity="0.9" />
        </g>
        <path d="M1030.55 94.8012C1023.69 96.0048 1016.89 97.4208 1010.06 98.7778C1007.83 99.4976 1005.71 100.406 1003.98 101.751C999.566 105.162 999.295 110.023 999.838 115.18C1000.83 124.738 1001.99 134.319 1002.67 143.901C1002.94 145.282 1003.31 146.627 1003.87 147.913C1007.45 156.126 1015.41 153.518 1022.54 153.435C1028.64 152.468 1034.72 151.359 1040.84 150.568C1044.77 150.061 1048.96 149.707 1052.7 148.314C1058.28 146.226 1059.06 142.686 1059.62 137.175C1059.62 137.116 1059.64 137.081 1059.66 137.033C1059.66 131.086 1058.27 124.679 1057.66 119.31C1056.95 113.197 1057.02 105.409 1054.24 99.7808C1049.72 90.6358 1038.65 93.397 1030.58 94.813M1047.7 121.752C1041.5 130.85 1030.52 139.535 1020.89 144.774C1020.11 145.199 1019.45 144.703 1019.24 144.066C1019.17 143.995 1019.11 143.925 1019.06 143.818C1014.6 134.296 1014 121.398 1015.08 111.05C1015.2 109.976 1016.19 109.587 1016.97 109.834C1017.02 109.834 1017.07 109.834 1017.12 109.834C1022.58 110.33 1027.69 111.427 1032.82 113.41C1037.55 115.239 1043.11 117.221 1047.04 120.466C1047.06 120.49 1047.07 120.513 1047.1 120.537C1047.63 120.62 1048.08 121.198 1047.7 121.752Z"
            fill="#00C669" />
        <path d="M1017.87 112.655C1017.74 122.708 1019.26 132.184 1020.54 142.119C1029.85 136.656 1037.36 128.797 1045.34 121.682C1040.76 120.277 1036.46 117.681 1031.95 116.053C1027.28 114.377 1022.74 113.363 1017.87 112.666"
            fill="#00C669" />
        <path d="M997.019 107.935C996.086 112.43 997.184 117.434 997.727 121.894C998.151 125.34 998.541 128.797 998.966 132.243C998.966 138.792 999.438 146.013 1002.61 151.536C1005.85 157.141 1012.55 156.928 1018.68 156.055C1028.64 155.725 1038.98 153.506 1048.67 151.724C1055.75 150.426 1061.74 147.075 1061.6 139.889C1062.67 133.198 1060.74 125.304 1060.05 119.074C1059.23 111.557 1059.2 102.636 1055.13 95.993C1051.55 90.152 1043.81 90.0458 1037.82 90.7066C1029.65 91.6034 1020.61 92.8896 1012.55 95.403C1005.38 96.76 998.564 100.335 996.995 107.923M1010.03 98.766C1016.87 97.409 1023.66 95.993 1030.53 94.7894C1038.61 93.3734 1049.68 90.6122 1054.19 99.7572C1056.97 105.398 1056.9 113.174 1057.61 119.286C1058.23 124.655 1059.62 131.074 1059.62 137.01C1059.62 137.057 1059.58 137.092 1059.58 137.151C1059.03 142.662 1058.25 146.202 1052.67 148.291C1048.94 149.695 1044.74 150.037 1040.81 150.544C1034.68 151.335 1028.61 152.444 1022.51 153.412C1015.38 153.494 1007.41 156.09 1003.84 147.889C1003.27 146.603 1002.91 145.258 1002.64 143.877C1001.95 134.296 1000.79 124.714 999.803 115.156C999.261 109.988 999.532 105.138 1003.95 101.728C1005.68 100.383 1007.79 99.474 1010.02 98.7542"
            fill="white" />
        <path d="M1019.21 144.043C1019.43 144.68 1020.1 145.175 1020.88 144.751C1030.51 139.511 1041.49 130.827 1047.69 121.729C1048.06 121.174 1047.62 120.584 1047.08 120.513C1047.06 120.49 1047.05 120.466 1047.03 120.443C1043.1 117.186 1037.54 115.203 1032.81 113.386C1027.67 111.404 1022.56 110.306 1017.11 109.811C1017.07 109.811 1017.01 109.811 1016.96 109.811C1016.18 109.563 1015.19 109.952 1015.07 111.026C1013.99 121.375 1014.59 134.272 1019.05 143.795C1019.09 143.901 1019.15 143.972 1019.22 144.043M1017.88 112.655C1022.75 113.351 1027.28 114.366 1031.96 116.041C1036.48 117.67 1040.78 120.254 1045.35 121.67C1037.37 128.797 1029.86 136.644 1020.55 142.107C1019.27 132.184 1017.75 122.708 1017.88 112.643"
            fill="white" />
        <path d="M898.139 45.3946V52.982"
            stroke="white"
            stroke-linecap="round"
            stroke-linejoin="round" />
        <path d="M898.139 61.6667V69.2541"
            stroke="white"
            stroke-linecap="round"
            stroke-linejoin="round" />
        <path d="M910.08 57.3244H902.492"
            stroke="white"
            stroke-linecap="round"
            stroke-linejoin="round" />
        <path d="M893.794 57.3244H886.207"
            stroke="white"
            stroke-linecap="round"
            stroke-linejoin="round" />
    </g>
    <defs>
        <linearGradient id="paint0_linear_2114_42021"
            x1="431.098"
            y1="142.037"
            x2="1729"
            y2="103.368"
            gradientUnits="userSpaceOnUse">
            <stop stop-color="#002F16" />
            <stop offset="1"
                stop-color="#00BD55" />
        </linearGradient>
        <linearGradient id="paint1_linear_2114_42021"
            x1="541.66"
            y1="138.202"
            x2="554.192"
            y2="132.136"
            gradientUnits="userSpaceOnUse">
            <stop stop-color="#002F16" />
            <stop offset="1"
                stop-color="#00DE4D" />
        </linearGradient>
        <clipPath id="clip0_2114_42021">
            <rect width="1192"
                height="236"
                fill="white" />
        </clipPath>
    </defs>
</svg>
