<?xml version="1.0" encoding="UTF-8"?>
<svg xmlns="http://www.w3.org/2000/svg"
  xmlns:xlink="http://www.w3.org/1999/xlink"
  viewBox="0 0 512 512">
  <defs>
    <style>
      .cls-1, .cls-2 {
        fill: none;
      }

      .cls-3 {
        clip-path: url(#clippath);
      }

      .cls-4 {
        fill: #f3f3f3;
      }

      .cls-5 {
        fill: #00ca5e;
      }

      .cls-6, .cls-7 {
        fill: #f26945;
      }

      .cls-8 {
        fill: #fff;
      }

      .cls-9 {
        fill: #ffc780;
      }

      .cls-10 {
        fill: #e4e4e4;
      }

      .cls-11 {
        fill: #803403;
      }

      .cls-12 {
        fill: #d0d0d0;
      }

      .cls-13, .cls-14 {
        fill: #132d28;
      }

      .cls-15 {
        fill: #954212;
      }

      .cls-14 {
        mix-blend-mode: multiply;
      }

      .cls-14, .cls-7 {
        opacity: .5;
      }

      .cls-16 {
        fill: #002b13;
        opacity: .2;
      }

      .cls-17 {
        isolation: isolate;
      }

      .cls-2 {
        stroke: #f26945;
        stroke-linecap: round;
        stroke-linejoin: round;
        stroke-width: 1.07px;
      }
    </style>
    <clipPath id="clippath">
      <path class="cls-1"
        d="M95.04,175.44c45.91-53.87,56.22-125.65,108.26-137.68,52.88-12.3,165.37,13.12,200.42,47.72,34.99,34.6,54,31.41,68.94,81.21,14.13,50.12,6.32,175.25-7.39,217.61-13.68,42.3-48.88,70.46-102.56,84.27-52.87,13.49-124.23,12.64-191.46-10.49-67.23-23.03-114.08-65.24-127.37-116.82-14.14-51.31,5.28-112.01,51.16-165.82Z" />
    </clipPath>
  </defs>
  <g class="cls-17">
    <g id="Layer_1"
      data-name="Layer 1">
      <g id="_3_-_no_creators_found"
        data-name="3 - no creators found">
        <g>
          <path class="cls-4"
            d="M95.04,175.44c45.91-53.87,105.93-89.7,157.97-101.73,52.88-12.3,97.79-.8,132.83,33.8,34.99,34.6,57.02,84.48,71.96,134.27,14.13,50.12,21.17,100.16,7.47,142.51-13.68,42.3-48.88,70.46-102.56,84.27-52.87,13.49-124.23,12.64-191.46-10.49-67.23-23.03-114.08-65.24-127.37-116.82-14.14-51.31,5.28-112.01,51.16-165.82Z" />
          <g class="cls-3">
            <g>
              <path class="cls-5"
                d="M116.67,376.22c9.03-4.66,19.67-5.27,29.69-3.61,5.39,.89,11,2.5,14.67,6.55,3.67,4.05,4.36,11.17,.15,14.64-2.51,2.07-6,2.38-9.25,2.35-7.85-.09-16.56-1.47-22.83,3.25-3.58,2.69-5.96,7.17-10.24,8.5-4.18,1.3-8.91-1.17-11.13-4.95-2.22-3.78-2.29-8.5-1.26-12.75,0,0,1.09-9.28,10.19-13.97Z" />
              <path class="cls-5"
                d="M95.98,336.28c5.52,7.89,16.26,5.28,21.23,.46,4.98-4.81,7.08-11.79,8.99-18.45,4.37-15.2,8.79-31.15,5.53-46.63-.97-4.63-2.7-9.24-5.96-12.68-3.25-3.43-8.25-5.48-12.83-4.27-5.41,1.43-8.78,6.73-11.21,11.77-7.15,14.82-10.93,31.25-10.98,47.71-.03,7.68,.88,15.74,5.21,22.09" />
              <path class="cls-5"
                d="M80.81,347.59c6-7.12,7.13-17.5,4.47-26.41-2.67-8.92-8.7-16.5-15.64-22.69-8.14-7.26-17.72-12.91-28.01-16.53-4.05-1.42-8.32-2.55-12.6-2.14-4.27,.41-8.58,2.59-10.57,6.4-2.95,5.62-.12,12.44,2.94,18.01,5.39,9.8,11.54,19.18,18.4,28.02,5.51,7.11,11.83,14.12,20.24,17.34,8.4,3.21,17.13,2.83,21.59-2.99" />
              <path class="cls-13"
                d="M95.6,455.25c.1,0,.27-1.27,.5-3.58,.25-2.61,.57-5.88,.95-9.78,.46-4.12,1.06-9.01,2.2-14.35,1.14-5.32,2.92-11.09,5.21-16.93,2.37-5.81,5.27-11.1,8.65-15.32,3.36-4.24,7.26-7.32,10.93-9.09,3.66-1.81,6.94-2.54,9.21-2.87,2.29-.23,3.57-.42,3.57-.52,0-.1-1.28-.12-3.63-.06-2.33,.16-5.74,.74-9.6,2.5-3.87,1.72-8.01,4.83-11.53,9.17-3.55,4.31-6.55,9.71-8.96,15.63-2.33,5.95-4.09,11.77-5.18,17.21-1.09,5.43-1.58,10.38-1.91,14.53-.31,4.15-.43,7.52-.48,9.84-.05,2.32-.03,3.61,.08,3.62Z" />
              <path class="cls-13"
                d="M96.28,447.73c.05,0,.08-.58,.1-1.66,0-1.25,0-2.82-.01-4.76-.01-4.13,0-10.1,.21-17.47,.37-14.75,1.64-30.62,4.09-53,2.32-21.04,5.44-45.54,8.73-61.46,.71-3.62,1.42-6.88,2.09-9.73,.64-2.86,1.18-5.33,1.71-7.32,.45-1.88,.82-3.41,1.11-4.62,.24-1.06,.34-1.63,.29-1.64-.05-.01-.25,.52-.58,1.56-.36,1.2-.82,2.71-1.38,4.56-.61,1.98-1.24,4.43-1.96,7.28-.75,2.84-1.53,6.09-2.3,9.71-3.26,14.43-6.7,34.59-9.18,57.03-2.46,22.43-3.57,42.85-3.66,57.63-.09,7.39,.07,13.38,.26,17.51,.12,1.93,.21,3.5,.29,4.75,.08,1.09,.15,1.65,.2,1.65Z" />
              <path class="cls-13"
                d="M96.38,408.34c.1,0,.09-1.77-.03-4.97-.18-3.19-.62-7.81-1.52-13.46-.95-5.64-2.29-12.33-4.38-19.61-.91-3.33-3.04-11.3-8.2-23.2-6.8-16.13-16.04-29.33-24.08-37.5-1.89-2.17-3.99-3.73-5.67-5.27-.87-.73-1.64-1.47-2.42-2.05-.79-.54-1.52-1.05-2.2-1.51-2.65-1.81-4.13-2.76-4.18-2.68-.24,.32,5.93,3.95,13.71,12.23,7.75,8.26,16.73,21.36,23.48,37.36,3.76,8.68,6.39,16.42,8.25,22.99,2.15,7.2,3.58,13.83,4.66,19.41,1.03,5.59,1.62,10.16,1.98,13.33,.29,3.17,.51,4.92,.61,4.92Z" />
            </g>
            <g>
              <path class="cls-12"
                d="M387.81,330.17c.89-4.35,.28-8.86,1.26-17.07,.98-8.21,4.89-11.46,7.05-17.28,2.16-5.81,5.1-19.38,5.1-19.38h-2.37s-7.73,25.24-9.95,30.96c-2.22,5.72-2.15,10.89-2.54,16.1-.39,5.2-2.46,13.86-2.46,13.86,0,0-2.85-29.26-4.03-39.53-1.17-10.28-.64-30.26-.64-30.26l-2.71-1.16v15.15s1.12,14.46,2.01,22.75c.89,8.29,3.04,35.2,2.5,54.95-.54,19.75,4.71,36.08,4.79,36.72,.09,.64,.81,20.14,.43,29.82-.39,9.68-.62,47.93-.21,49.64l8.61,2.06s-5-33.74-4.08-58.13c.93-24.39-1.12-23.05-4.32-34.72-3.2-11.66-2.2-43.29-2.2-43.29,0,0,2.87-6.84,3.76-11.19Z" />
              <g>
                <path class="cls-10"
                  d="M397.72,279.59s12.33-3.61,20.15-13.54c7.82-9.93,12.93-18.05,21.06-21.96-15.64-6.92-25.27,6.92-33.09,11.13-7.82,4.21-15.64,7.22-14.44,15.34,1.2,8.12,6.32,9.02,6.32,9.02Z" />
                <path class="cls-10"
                  d="M448.05,156.33c-.64,2.62-1.59,5.64-2.79,8.81-1.34,3.52-2.98,7.23-4.84,10.78-1.92,3.67-4.09,7.16-6.4,10.11-2.44,3.12-5.04,5.62-7.7,7.05-.61,.32-1.22,.6-1.83,.8-13.23,4.51-19.85,8.42-19.85,8.42-4.38-8.63-5.12-15.88-4.25-21.82,.41-2.81,1.19-5.32,2.1-7.55,1.05-2.55,2.28-4.73,3.39-6.55,.66-1.08,1.27-2.05,1.77-2.88,.53-.88,1.07-1.78,1.65-2.68,2.8-4.39,6.23-9,11.16-13.38,.97-.88,2.01-1.74,3.12-2.59,1.29-.99,2.74-1.8,4.29-2.46,7.81-3.37,17.68-2.95,17.68-2.95,0,0,1.8,2.11,3.3,9.33,.03,.15,.05,.31,.07,.48,.18,1.58-.14,4.08-.88,7.1Z" />
                <path class="cls-10"
                  d="M414.87,227.25s21.66-14.74,49.03-12.03c-14.74-14.44-26.77-13.84-37-8.72-10.23,5.11-16.54,9.02-12.03,20.76Z" />
                <path class="cls-10"
                  d="M389.9,203.79s-10.53-13.54-24.97-17.15c-14.44-3.61-30.98-3.01-30.98-3.01,0,0,8.12-11.73,25.87-10.83,17.75,.9,23.16,5.41,26.17,11.43,3.01,6.02,6.32,12.63,3.91,19.55Z" />
                <path class="cls-10"
                  d="M387.8,247.71c-.05,1.85-.12,3.61-.23,5.28-.64,8.92-2.69,15.07-10.3,16.08,0,0-10.83-2.71-15.04-13.24-4.21-10.52-1.8-12.33-8.12-19.25-6.32-6.92-9.62-24.07-9.62-24.07,.02,0,.04,0,.06,0,.91-.23,11.55-2.77,22.19,2.12,.16,.07,.33,.15,.5,.24,10.94,5.34,20.86,21.28,20.57,32.84Z" />
                <path class="cls-10"
                  d="M359.22,279.29s-1.8,2.41-12.93,3.31c-11.14,.9-13.84,9.93-26.48,12.03-12.63,2.11-14.44,1.8-19.85-1.5,2.45-7.6,8.56-9.88,14.13-14.25,1.72-1.34,3.39-2.9,4.88-4.87,.19-.23,.37-.48,.54-.73,2.3-3.29,6.09-5.5,10.35-6.81h0c3.19-.97,6.63-1.44,9.92-1.47,4.38-.05,8.47,.66,11.31,1.97,7.82,3.61,7.82,8.12,8.12,12.33Z" />
              </g>
              <path class="cls-10"
                d="M423.41,405.74c-6.17-6.44-15-10.48-23.9-10.09l-.24,.23c-1.81,9.08,2.35,18.74,9.35,24.81,7,6.06,16.44,8.8,25.7,8.98-1.13-8.84-4.74-17.49-10.91-23.92Z" />
              <path class="cls-10"
                d="M369.73,415.16c-3.62-.71-7.36,.15-10.85,1.33-8.27,2.79-15.9,7.45-22.17,13.52,7.45,2.58,15.25,4.95,23.08,4.08,7.83-.87,15.73-5.81,17.69-13.44-.71-3.62-4.13-4.78-7.75-5.49Z" />
              <path class="cls-10"
                d="M317.16,368.23c1.67,2.88,4.65,4.74,7.69,6.08,3.04,1.34,6.27,2.28,9.17,3.92,5.2,2.93,8.95,7.88,13.81,11.36,6.87,4.93,15.96,6.64,24.15,4.55,1.37-8.32-1.54-17.13-7.26-23.34-5.71-6.2-14.03-9.8-22.46-10.2-8.42-.4-16.88,2.29-23.83,7.06" />
              <path class="cls-10"
                d="M393.98,377.79c-3.03-7.44-.02-17.35,5.82-22.86,3.82-3.59,8.86-5.54,13.79-7.34,4.12-1.5,8.25-2.96,12.4-4.37,.98-.33,2.08-.66,3.02-.22,1.4,.66,1.59,2.55,1.5,4.1-.34,6.27-1.87,12.56-5.05,17.97-3.19,5.41-8.12,9.91-14.06,11.96-5.94,2.05-12.24,4.33-17.41,.76" />
              <path class="cls-10"
                d="M370.41,349.96c-.39-3.71-2.95-6.96-6.14-8.9-3.19-1.93-6.96-2.71-10.69-3.01-8.79-.72-17.78,1.03-25.65,5.01,7.09,4.84,14.91,8.61,23.12,11.14,3.41,1.05,6.98,1.9,10.52,1.5,3.55-.4,7.1-2.25,8.72-5.43" />
              <path class="cls-10"
                d="M370.39,310.62c-6.33-3.73-13.65-5.46-20.95-6.32,.98,7.7,2.61,15.87,8.07,21.39,3.26,3.3,7.74,5.37,12.37,5.71,4.63,.34,10.22-.85,13.93-3.64v-.39c-1.8-7.12-7.09-13.04-13.42-16.76Z" />
              <path class="cls-10"
                d="M409.69,294.87c-3.97,2.62-4.3,8.66-1.99,12.83,2.31,4.16,6.49,6.88,10.51,9.44,5.24,3.33,10.51,6.68,16.22,9.15,7.31,3.16,15.37,4.88,21.85,9.51,.71-8.7-.31-17.67-3.96-25.61-3.65-7.93-10.09-14.75-18.22-17.92-8.14-3.17-17.95-2.33-24.89,2.97" />
              <path class="cls-12"
                d="M410.02,296.58c.06,.13-1.95,.98-4.86,2.89-1.46,.94-3.11,2.2-4.83,3.73-1.69,1.55-3.44,3.38-5.06,5.48-1.6,2.11-2.91,4.28-3.97,6.32-1.02,2.06-1.81,3.98-2.34,5.63-1.08,3.31-1.38,5.47-1.53,5.44-.05,0,0-.55,.13-1.52,.06-.49,.15-1.09,.32-1.77,.16-.68,.3-1.47,.58-2.31,.47-1.7,1.23-3.67,2.23-5.78,1.04-2.09,2.37-4.31,4-6.46,1.65-2.13,3.45-3.99,5.2-5.54,1.77-1.52,3.48-2.76,5-3.66,.74-.49,1.46-.83,2.08-1.16,.61-.34,1.17-.58,1.62-.77,.91-.38,1.42-.57,1.44-.52Z" />
              <path class="cls-12"
                d="M447.5,320.67s-.47-.53-1.23-1.54c-.77-1.01-1.88-2.46-3.34-4.19-2.92-3.44-7.32-7.93-12.92-11.96-2.79-2.01-5.58-3.78-8.3-4.95-2.72-1.19-5.36-1.74-7.6-1.74-2.24-.03-4.02,.44-5.19,.88-1.17,.45-1.77,.83-1.8,.77-.01-.02,.12-.13,.4-.32,.28-.19,.71-.44,1.29-.71,1.16-.53,2.98-1.1,5.3-1.14,2.31-.07,5.07,.45,7.87,1.64,2.81,1.18,5.64,2.95,8.46,4.98,5.66,4.07,10.05,8.67,12.89,12.22,1.42,1.78,2.48,3.29,3.18,4.35,.69,1.07,1.04,1.68,.99,1.71Z" />
              <path class="cls-12"
                d="M425.64,247.9c.07,.11-2.03,1.36-5.18,3.71-3.15,2.34-7.29,5.88-11.25,10.37-3.95,4.51-6.92,9.07-8.84,12.5-1.92,3.43-2.89,5.67-3.01,5.62-.05-.02,.16-.59,.57-1.62,.4-1.03,1.07-2.49,1.98-4.24,1.81-3.52,4.75-8.18,8.74-12.73,4-4.54,8.24-8.06,11.5-10.31,1.62-1.13,2.98-1.98,3.95-2.51,.96-.54,1.51-.82,1.53-.78Z" />
              <path class="cls-12"
                d="M358.88,219.84s.19,.07,.51,.27c.31,.2,.79,.48,1.37,.91,1.17,.81,2.8,2.09,4.64,3.86,3.69,3.5,8.14,9.22,10.87,16.58,2.73,7.36,3.08,14.61,2.55,19.66-.25,2.54-.65,4.57-1.01,5.95-.16,.69-.34,1.22-.45,1.58-.11,.36-.19,.54-.21,.53-.06-.02,.11-.78,.38-2.17,.27-1.39,.59-3.42,.77-5.93,.39-5.01-.04-12.13-2.72-19.37-2.68-7.23-6.98-12.91-10.54-16.47-1.78-1.79-3.34-3.12-4.45-4-1.11-.88-1.74-1.35-1.7-1.4Z" />
              <path class="cls-12"
                d="M324.94,274.91s.31-.47,1.03-1.16c.72-.7,1.85-1.62,3.4-2.54,3.05-1.85,8.06-3.51,13.59-2.71,5.53,.82,9.85,3.85,12.24,6.5,1.22,1.33,2.04,2.54,2.53,3.41,.49,.88,.69,1.39,.66,1.41-.13,.08-1.08-1.95-3.56-4.46-2.43-2.49-6.65-5.34-11.97-6.13-5.32-.77-10.18,.74-13.23,2.43-3.1,1.69-4.59,3.37-4.69,3.25Z" />
              <path class="cls-12"
                d="M383.24,326.75c-.09,.18-5.22-2.23-11.45-5.39-6.23-3.16-11.21-5.87-11.12-6.05,.09-.18,5.22,2.23,11.45,5.39,6.23,3.16,11.21,5.87,11.11,6.05Z" />
              <path class="cls-12"
                d="M339.83,341.41c0-.05,.45-.09,1.27-.13,.82-.04,2.01-.04,3.48,.04,2.93,.14,6.98,.68,11.31,1.9,4.32,1.23,8.06,2.9,10.63,4.31,1.29,.71,2.31,1.32,2.98,1.79,.68,.46,1.04,.74,1.01,.78-.06,.1-1.62-.82-4.23-2.1-2.61-1.28-6.32-2.85-10.59-4.07-4.27-1.2-8.25-1.81-11.15-2.09-2.9-.28-4.71-.31-4.71-.43Z" />
              <path class="cls-12"
                d="M425.71,346.21s-.5,.4-1.47,1.01c-.98,.6-2.37,1.5-4.06,2.66-3.39,2.3-7.89,5.74-12.37,10.1-4.47,4.37-8.02,8.79-10.4,12.12-1.19,1.66-2.13,3.03-2.75,4-.63,.96-1,1.48-1.05,1.45-.04-.03,.24-.59,.8-1.6,.55-1.01,1.42-2.43,2.57-4.15,2.29-3.43,5.81-7.94,10.31-12.35,4.51-4.4,9.11-7.81,12.59-10.01,1.74-1.1,3.18-1.94,4.21-2.47,1.02-.53,1.59-.81,1.62-.76Z" />
              <path class="cls-12"
                d="M327.45,367.73s.77-.08,2.16-.08c1.39,0,3.41,.02,5.9,.16,2.49,.15,5.46,.42,8.71,1.12,3.23,.69,6.75,1.88,10.04,3.89,3.29,2.01,5.98,4.54,8.16,7.03,2.19,2.49,3.89,4.94,5.27,7.02,1.37,2.09,2.4,3.82,3.1,5.02,.7,1.21,1.06,1.89,1.02,1.91-.04,.03-.49-.6-1.26-1.76-.77-1.16-1.87-2.84-3.29-4.88-1.43-2.03-3.16-4.43-5.34-6.86-2.18-2.43-4.83-4.89-8.04-6.85-3.2-1.96-6.63-3.13-9.81-3.85-3.18-.73-6.13-1.04-8.6-1.26-2.47-.21-4.48-.31-5.87-.39-1.39-.09-2.16-.15-2.16-.2Z" />
              <path class="cls-12"
                d="M377.55,420.18c0,.12-1.65,.12-4.28,.3-2.64,.19-6.26,.63-10.18,1.59-3.91,.96-7.34,2.24-9.76,3.3-2.43,1.05-3.88,1.81-3.94,1.71-.03-.04,.31-.28,.95-.67,.63-.4,1.58-.92,2.77-1.51,2.39-1.19,5.84-2.56,9.8-3.54,3.97-.97,7.66-1.34,10.33-1.39,1.33-.03,2.41,0,3.16,.06,.74,.05,1.15,.11,1.15,.16Z" />
              <path class="cls-12"
                d="M428.13,425.82c-.14,.14-6.86-6.31-14.99-14.42-8.14-8.11-14.62-14.8-14.48-14.94,.14-.14,6.86,6.31,15,14.42,8.14,8.11,14.62,14.8,14.47,14.94Z" />
              <path class="cls-12"
                d="M400.6,396.53c-.02,.23-2.77-.13-5.94,.85-3.19,.94-5.28,2.76-5.42,2.58-.15-.1,1.83-2.28,5.21-3.28,3.36-1.03,6.22-.32,6.15-.15Z" />
              <path class="cls-12"
                d="M390.1,413.26c-.11,.06-.8-1.32-2.2-3.33-1.39-2.03-3.59-4.62-6.35-7.17-2.76-2.55-5.46-4.64-7.4-6.16-1.95-1.52-3.14-2.48-3.08-2.57,.06-.08,1.36,.73,3.39,2.15,2.03,1.42,4.8,3.46,7.6,6.04,2.8,2.58,4.98,5.29,6.28,7.42,.66,1.06,1.13,1.95,1.4,2.6,.28,.64,.41,1,.37,1.02Z" />
              <path class="cls-12"
                d="M387.3,419.8c.06,.18-2.23,1.01-5.2,.88-2.96-.11-5.19-1.12-5.11-1.29,.07-.21,2.31,.45,5.14,.55,2.83,.13,5.11-.35,5.17-.14Z" />
              <path class="cls-12"
                d="M397.94,371.88c.1,.07-.85,1.47-2.17,3.84-1.32,2.37-2.95,5.76-4.23,9.69-1.27,3.94-1.94,7.64-2.26,10.33-.32,2.7-.37,4.38-.49,4.38-.05,0-.09-.42-.11-1.19-.03-.77,0-1.88,.09-3.24,.19-2.74,.78-6.51,2.07-10.51,1.3-3.99,3.03-7.4,4.48-9.73,.72-1.17,1.35-2.08,1.83-2.68,.47-.61,.75-.93,.79-.9Z" />
              <path class="cls-12"
                d="M382.88,363.81c-.12,.03-.43-1.06-1.31-2.63-.86-1.58-2.38-3.58-4.43-5.42-2.05-1.84-4.15-3.23-5.66-4.26-1.51-1.02-2.44-1.67-2.39-1.76,.05-.08,1.07,.41,2.66,1.32,1.58,.92,3.76,2.26,5.88,4.15,2.11,1.89,3.63,4.03,4.4,5.73,.79,1.69,.92,2.86,.84,2.87Z" />
              <path class="cls-12"
                d="M380.59,301.89c-.11,.06-1.01-1.65-2.69-4.25-1.68-2.6-4.21-6.07-7.45-9.49-3.26-3.42-6.59-6.12-9.1-7.92-2.51-1.81-4.17-2.79-4.11-2.9,.03-.04,.46,.16,1.23,.57,.78,.4,1.86,1.05,3.17,1.9,2.61,1.71,6.04,4.38,9.34,7.84,3.29,3.47,5.79,7.03,7.36,9.72,.79,1.35,1.38,2.47,1.74,3.26,.37,.79,.55,1.24,.5,1.26Z" />
              <path class="cls-12"
                d="M433.79,218.32s-.28,.17-.84,.41c-.64,.27-1.46,.62-2.47,1.06-2.15,.92-5.27,2.21-9,4.08-3.7,1.88-8.05,4.34-12.14,8.02-4.08,3.67-7.85,8.45-11.13,13.88-3.3,5.43-5.9,10.92-8.27,15.9-2.36,4.97-4.48,9.46-6.28,13.26-1.78,3.7-3.24,6.73-4.29,8.91-.49,.99-.89,1.79-1.2,2.41-.28,.55-.44,.83-.46,.82-.02-.01,.09-.31,.33-.88,.28-.63,.63-1.45,1.08-2.47,1-2.21,2.39-5.27,4.08-9.01,1.76-3.82,3.84-8.33,6.14-13.33,2.34-5,4.93-10.52,8.25-16,3.31-5.47,7.15-10.31,11.31-14.01,4.17-3.71,8.6-6.15,12.36-7.98,3.78-1.82,6.94-3.03,9.12-3.87,1.04-.38,1.88-.69,2.52-.93,.58-.2,.89-.3,.9-.28Z" />
              <path class="cls-12"
                d="M383.99,190.83s.43,.64,1.1,1.87c.67,1.22,1.57,3.03,2.62,5.29,2.09,4.53,4.63,10.96,6.67,18.3,2.03,7.35,3.16,14.17,3.7,19.13,.27,2.48,.43,4.49,.48,5.89,.06,1.39,.07,2.16,.02,2.17s-.16-.76-.3-2.14c-.14-1.38-.37-3.38-.71-5.84-.66-4.92-1.87-11.69-3.89-19-2.03-7.3-4.47-13.73-6.44-18.29-.98-2.28-1.81-4.12-2.4-5.38-.58-1.26-.89-1.97-.84-2Z" />
              <path class="cls-12"
                d="M431.37,153.04s-.12,.28-.41,.78c-.34,.56-.77,1.28-1.3,2.17-1.14,1.87-2.83,4.55-4.8,7.93-4.01,6.72-9.37,16.13-14.46,26.92-2.52,5.41-4.73,10.65-6.53,15.5-1.77,4.86-3.14,9.31-4.14,13.09-1,3.78-1.59,6.89-1.99,9.04-.17,1.02-.32,1.84-.43,2.48-.1,.57-.17,.86-.19,.86-.03,0,0-.31,.05-.88,.06-.57,.13-1.42,.29-2.51,.32-2.17,.83-5.31,1.77-9.12,.94-3.81,2.26-8.3,4.01-13.19,1.77-4.88,3.97-10.15,6.5-15.58,5.11-10.83,10.56-20.22,14.69-26.88,2.04-3.35,3.79-5.99,5.01-7.82,.58-.86,1.05-1.55,1.41-2.09,.33-.47,.51-.72,.53-.7Z" />
            </g>
            <g>
              <g>
                <path class="cls-13"
                  d="M185,340.03l1.22,.46-3.86,30.75v117.15l-3.86,136.85s16.89,2.96,34.62,0l41.99-234.82v-49.94l-70.11-.46Z" />
                <polygon class="cls-14"
                  points="243.81 453.63 255.11 390.43 255.11 383.65 203.14 383.65 243.81 453.63" />
                <path class="cls-13"
                  d="M186.22,365.71l97.65,103.57-1.24,128.75s21.46,1.56,35.76,0c0,0,15.32-121.59,16.48-127.39,1.17-5.8-.47-14.43-3.97-22.71-3.5-8.28-59.25-107.9-59.25-107.9h-85.45v25.67Z" />
              </g>
              <g>
                <path class="cls-6"
                  d="M330.51,136.3c.87,9.45,1.69,10.39,1.11,14.88-.58,4.49-3.03,10.28-3.03,10.28h-17.26s-2.86-7.66-2.92-11.21c-.06-3.56,0-12.71,0-12.71l22.1-1.23Z" />
                <g>
                  <rect class="cls-13"
                    x="278.38"
                    y="136.95"
                    width="5.73"
                    height="8.05" />
                  <polygon class="cls-5"
                    points="331.6 147.93 281.23 146.14 281.23 135.81 331.6 134.01 331.6 147.93" />
                  <polygon class="cls-5"
                    points="365.19 150.96 314.82 148.4 314.82 133.55 365.19 130.98 365.19 150.96" />
                  <polygon class="cls-16"
                    points="365.19 150.96 314.82 148.4 314.82 133.55 365.19 130.98 365.19 150.96" />
                  <rect class="cls-13"
                    x="358.21"
                    y="129.03"
                    width="12.52"
                    height="23.87" />
                </g>
                <path class="cls-9"
                  d="M311.48,161.46s-8.87-6.61-9.41-7.15-1.63-2.72-2.02-4.12c-.39-1.4-.27-7.02,.12-8.73s.74-6.35,2.25-7.26c1.35-.82,2.67-.81,3.38,.74s.69,11.07,.69,11.07c0,0,5.93-.59,9.27,3.95s4.62,11.5,4.62,11.5h-8.9Z" />
                <polygon class="cls-8"
                  points="309.34 169.61 308.87 160.19 331.03 160.19 331.62 170.71 309.34 169.61" />
                <path class="cls-9"
                  d="M327.68,129.21c-1.55,0-2.8,1.46-2.8,3.25,0-1.8-1.25-3.25-2.8-3.25s-2.8,1.46-2.8,3.25c0-1.8-1.25-3.25-2.8-3.25s-2.8,1.46-2.8,3.25v.95c0-1.8-1.25-3.25-2.8-3.25s-2.8,1.46-2.8,3.25v7.75c0,1.8,1.25,3.25,2.8,3.25s2.8-1.46,2.8-3.25v-.95c0,1.8,1.25,3.25,2.8,3.25s2.8-1.46,2.8-3.25c0,1.8,1.25,3.25,2.8,3.25s2.8-1.46,2.8-3.25c0,1.8,1.25,3.25,2.8,3.25s2.8-1.46,2.8-3.25v-7.75c0-1.8-1.25-3.25-2.8-3.25Z" />
                <path class="cls-5"
                  d="M223.73,230.54c7.07,18.61,22.73,12.46,26.67,13.63,3.94,1.17,54.15,11.37,60.69,11.84,14.12,1,22.08-3.04,23.01-13.46,1.33-14.82,1.4-43.85-1.4-74.17-10.57-.31-24.72-.93-24.72-.93l-3.27,52.05s-50.45-21.46-57.18-23.39c-6.72-1.94-16.2,15.91-23.8,34.44Z" />
                <path class="cls-16"
                  d="M264.15,202.54c-7.94-3.24-14.48-5.82-16.62-6.44-6.72-1.94-16.2,15.91-23.8,34.44,7.07,18.61,22.73,12.46,26.67,13.63,2,.59,11.83,2.76,25.96,5.6l-12.21-47.23Z" />
                <path class="cls-16"
                  d="M304.71,219.5s9.34,13.72,14.63,20.88c-5.13-12.28-14.14-28.64-14.14-28.64l-.49,7.77Z" />
              </g>
              <g>
                <path class="cls-6"
                  d="M265.26,136.09s.88,11.38,5.83,17.28c.81,.97,.96,2.32-.15,2.92-1.53,.84-3.91,1.61-7.27,1.35,0,0,1.1-14.06,1.59-21.55Z" />
                <path class="cls-9"
                  d="M267.77,144.5c-.17-8.64-.84-17.65-1.25-22.05-2.47,.62-5.03,.91-7.59,.84,.7,2.25,1.39,4.51,2.08,6.77-5.28-1.66-11.92-3.73-17.19-5.39,0,0-1.7,7.18-2.82,9.85-.97,2.29-1.94,4.58-2.91,6.87-.93,2.22-2.09,4.65-4.35,5.5,.38-2.53-.99-4.95-3.07-6.38-.21-.15-.43-.28-.66-.4-.68-.37-1.4-.65-2.17-.79-3.42-.66-8.9,1.47-7.64,8.13,.27,.81,.66,1.66,1.19,2.55,.34,.57,.75,1.17,1.24,1.75,1.01,.99,2.24,1.79,3.51,2.4,1.89,.92,3.85,1.39,5.32,1.38-1.17,2.73-3.97,4.34-7.16,5.4l-3.99,23.19,31.32,14.62,.95-15.57,.52-8.58c1.71-.18,3.43-.89,4.61-1.64h0c9.46-6.03,10.17-21.67,10.05-28.44Z" />
                <path class="cls-6"
                  d="M253.1,174.58l-.52,8.58c-8.77-2.04-16.47-9.31-18.06-18.16l-.44-2.52,.18,.1c6.5,11.06,16.77,12.16,18.84,12.01Z" />
                <g>
                  <path class="cls-11"
                    d="M281.41,113.25c-3.83,4.53-9.14,7.74-14.89,9.2-2.47,.62-5.03,.91-7.59,.84,.7,2.25,1.39,4.51,2.08,6.77-5.28-1.66-10.56-3.31-15.84-4.96-.45-.14-.9-.28-1.36-.42-.02,.54-.07,1.09-.15,1.62-.41,2.84-1.55,5.57-2.67,8.23-.97,2.29-1.94,4.58-2.91,6.87-.93,2.22-2.09,4.65-4.35,5.5,.38-2.53-.99-4.95-3.07-6.38-.21-.15-.43-.28-.66-.4-.68-.37-1.4-.65-2.17-.79-3.42-.66-8.9,1.47-7.64,8.13,.27,.81,.66,1.66,1.19,2.55,.34,.57,.75,1.17,1.24,1.75,1.01,.99,2.24,1.79,3.51,2.4,1.89,.92,3.85,1.39,5.32,1.38-1.17,2.73-3.97,4.34-7.16,5.4-2.73,.91-5.74,1.41-8.25,1.84,.54-1.91-.23-3.98-1.42-5.55-1.2-1.58-2.79-2.8-4.2-4.19-5.43-5.32-8.23-13.2-7.36-20.74-1.71,.36-3.42,.73-5.13,1.09-.59-9.34,3.65-18.85,10.98-24.65,1.95-1.53,4.09-2.82,5.89-4.53,2.55-2.4,4.33-5.53,6.74-8.05,6.03-6.3,15.18-8.22,23.75-9.83-.87,2.26-1.74,4.53-2.6,6.79,5.41-2.05,11.41,.09,16.79,2.21,5.81,2.3,11.61,4.6,17.42,6.89-2.28,1.7-4.56,3.38-6.84,5.07,2.9,3.25,7,5.41,11.33,5.97Z" />
                  <path class="cls-6"
                    d="M224.01,143.15s5.02-1.02,7.2,7.19c0,0-3.61-4.09-6.03-1.87,0,0-1.81-2.28,.66-2.51s-1.83-2.81-1.83-2.81Z" />
                  <g>
                    <ellipse cx="262.25"
                      cy="142.25"
                      rx="3.14"
                      ry="2.07"
                      transform="translate(105.74 396.25) rotate(-86.84)" />
                    <path d="M254.21,137.44s6.2-2.78,10.98-2.27l-.31-2.48s-5.7-.74-10.25,3.31c-.56,.5-.66,.7-.41,1.44Z" />
                  </g>
                  <path d="M260.46,162.12s-.45-.02-1.06-.13c-.62-.1-1.43-.3-2.21-.58-.78-.28-1.51-.65-2.04-.97-.51-.34-.85-.56-.85-.56-.15-.1-.2-.31-.09-.46,.09-.13,.26-.18,.41-.12l.04,.02s.35,.14,.87,.36c.53,.19,1.25,.4,1.98,.51,.73,.12,1.47,.15,2.02,.14,.55,0,.86-.06,.89-.06,.51-.01,.94,.39,.96,.91,.01,.51-.39,.94-.91,.96Z" />
                  <path class="cls-7"
                    d="M261.79,125.9l2.01,5.94-21.03-3.03c.6-2.22,1.06-4.13,1.06-4.13,5.27,1.65,11.91,3.72,17.18,5.39-.7-2.27-1.39-4.53-2.08-6.78,2.56,.07,5.12-.22,7.6-.84,.09,.92,.18,2.05,.29,3.34-2.79,.65-5.02,.11-5.02,.11Z" />
                </g>
              </g>
              <g>
                <path class="cls-5"
                  d="M266.16,252.63c-.43-30.59-14.48-65.72-14.48-65.72l-22.89-1.5c-5.48-5.6-9.99-10.16-9.99-10.16l-15.57,18.02c-11.39,15.33-11.96,27.57-14.03,46.55-4.31,39.7-11.57,106.73-12,112.5-.62,8.24,0,13.37,0,15.55s1.55,3.27,3.27,3.27,34.83,2.33,36.7,2.18c1.87-.15,4.35-10.77,4.7-10.65s2.22,7.7,2.68,9.1c.47,1.4,1.51,1.92,3.62,1.56,39.59-6.64,47.23-29.12,47.47-29.86,.23-.74-9.41-90.62-9.48-90.85Z" />
                <path class="cls-16"
                  d="M212.75,283.86l18.88-39.44-29.15-31.61c-3.74,2.08-2.35,13.22-6.33,15.87-3.41,24.24-14.98,79.51-17.64,108.88l74,28.15h.67c5.54-1.77,10.07-3.28,11.02-3.73,.64-.31,1.61-1.49,2.72-3.09l-54.17-75.02Z" />
                <polygon class="cls-8"
                  points="218.8 175.26 220.01 171.41 251.68 186.91 242.28 199.29 218.8 175.26" />
              </g>
              <g>
                <path class="cls-9"
                  d="M238.96,333.4s6.36-4.11,7.17-4.45c.82-.33,2.33-.48,4.08,0,1.98,1.24,4.14,3.33,4.14,3.33,0,0,2.74,.36,3.09,.42,.35,.06,7.29,7.23,7.76,7.81s-.99,15.51-1.17,16.44c-.17,.93-1.46,2.04-2.8,1.92-1.34-.12-6.94-4.02-6.94-4.02-1.92,.7-4.37,1.11-5.95,1.69-1.57,.58-3.67,.52-6.06-.82-2.39-1.34-10.15-5.77-10.15-5.77l6.82-16.56Z" />
                <path class="cls-8"
                  d="M239.72,332.29s2.1,10.1-3.11,21.14l-7.78-3.19,5.13-17.95h5.75Z" />
                <path class="cls-5"
                  d="M221.81,197.68c-16.96-10.7-20.31,.76-22.8,4.02-2.49,3.27-28.34,68.53-30.83,74.59-2.49,6.06-2.8,14.31,2.49,20.22,5.29,5.91,43.38,43.93,58.31,56.56,4.2-5.87,11.35-20.78,11.35-20.78l-36.94-45.88s24.03-36.39,28.23-41.99c4.2-5.6,4.8-33.06-9.81-46.74Z" />
                <path class="cls-16"
                  d="M203.39,286.4s-11.57-2.49-22.61-3.11c0,0,13.04-2.19,24.36,.46l-1.75,2.65Z" />
              </g>
              <rect class="cls-14"
                x="367.7"
                y="129.03"
                width="3.02"
                height="23.87" />
              <g>
                <line class="cls-2"
                  x1="324.88"
                  y1="132.46"
                  x2="324.88"
                  y2="140.21" />
                <line class="cls-2"
                  x1="319.28"
                  y1="132.46"
                  x2="319.28"
                  y2="140.21" />
                <line class="cls-2"
                  x1="313.69"
                  y1="133.41"
                  x2="313.69"
                  y2="141.16" />
              </g>
              <g>
                <polygon class="cls-8"
                  points="248.09 191.64 255.22 197.4 251.68 186.91 248.09 191.64" />
                <polygon class="cls-16"
                  points="248.09 191.64 255.22 197.4 251.68 186.91 248.09 191.64" />
              </g>
              <g>
                <path class="cls-15"
                  d="M215.47,129.1c-.9-8.24,6.78-15.64,15.07-14.61,0,0-.93,1.48-.93,1.48-2.09-3.39,.07-7.75,3.18-9.65,4.15-2.47,9.27-1.54,13.74-1.71,2.51-.11,5.09-.57,7.19-2.15-1.8,1.98-4.5,2.85-7.08,3.23-4.74,.75-10.59-.27-14.12,3.35-1.54,1.64-2.34,4.16-1.25,5.91l1.04,1.68c-8.61-1.63-15.9,3.61-16.83,12.48h0Z" />
                <path class="cls-15"
                  d="M231.66,115.07c6.66-9.32,19-1.19,27.99-4.09-2.01,1.49-4.64,2.05-7.13,2.15-7.07,.27-14.79-3.03-20.87,1.94h0Z" />
              </g>
            </g>
          </g>
        </g>
        <path class="cls-10"
          d="M173.78,145.36c0,1.08-.17,2.12-.49,3.09H75.06c-.22-.99-.34-2.03-.34-3.09,0-7.85,6.36-14.22,14.21-14.22,.99,0,1.95,.1,2.88,.29,2.13-11.05,11.86-19.39,23.53-19.39,8.27,0,15.56,4.18,19.87,10.55,2.57-1.82,5.71-2.88,9.1-2.88,8.73,0,15.81,7.08,15.81,15.82,0,.19,0,.37-.01,.55,1.14-.46,2.38-.71,3.68-.71,5.51,0,9.99,4.47,9.99,9.99Z" />
        <path class="cls-10"
          d="M426.43,92.21h-86.51c-.22-.99-.34-2.03-.34-3.09,0-7.85,6.37-14.22,14.21-14.22,.99,0,1.95,.1,2.88,.29,2.14-11.05,11.87-19.39,23.54-19.39,9.76,0,18.16,5.83,21.89,14.2,.09,0,.18,0,.27,0,4.23,0,7.84,2.68,9.21,6.43,8.29,.5,14.85,7.38,14.85,15.79Z" />
      </g>
    </g>
  </g>
</svg>