<?xml version="1.0" encoding="UTF-8"?>
<svg xmlns="http://www.w3.org/2000/svg" viewBox="0 0 512 512">
  <defs>
    <style>
      .cls-1, .cls-2, .cls-3, .cls-4 {
        stroke-linecap: round;
        stroke-linejoin: round;
      }

      .cls-1, .cls-2, .cls-3, .cls-4, .cls-5, .cls-6 {
        fill: none;
      }

      .cls-1, .cls-4, .cls-5 {
        stroke: #000;
      }

      .cls-2 {
        stroke-width: 1.1px;
      }

      .cls-2, .cls-3 {
        stroke: #a53020;
      }

      .cls-3 {
        stroke-width: 1.07px;
      }

      .cls-7 {
        fill: #f3f3f3;
      }

      .cls-8 {
        fill: #00ca5e;
      }

      .cls-9 {
        fill: #00c669;
      }

      .cls-10 {
        fill: #e9e9e9;
      }

      .cls-11, .cls-12 {
        fill: #fff;
      }

      .cls-13 {
        fill: #e4e4e4;
      }

      .cls-14, .cls-15 {
        fill: #a53020;
      }

      .cls-16 {
        fill: #d0d0d0;
      }

      .cls-17 {
        fill: #dedede;
      }

      .cls-18 {
        fill: #e37f6c;
      }

      .cls-19, .cls-20 {
        fill: #132d28;
      }

      .cls-21 {
        fill: #233239;
      }

      .cls-22 {
        fill: #4a342e;
      }

      .cls-4 {
        stroke-width: 2px;
      }

      .cls-20 {
        mix-blend-mode: multiply;
      }

      .cls-20, .cls-15 {
        opacity: .5;
      }

      .cls-12, .cls-23 {
        opacity: .2;
      }

      .cls-23 {
        fill: #002b13;
      }

      .cls-5, .cls-6 {
        stroke-miterlimit: 10;
      }

      .cls-6 {
        stroke: #e4e4e4;
      }

      .cls-24 {
        isolation: isolate;
      }
    </style>
  </defs>
  <g class="cls-24">
    <g id="Layer_1" data-name="Layer 1">
      <g id="_2_-_No_job_yet" data-name="2 - No job yet">
        <path class="cls-7" d="M95.04,116.95C140.95,63.08,200.97,27.25,253.01,15.22c52.88-12.3,97.79-.8,132.83,33.8,34.99,34.6,57.02,84.48,71.96,134.27,14.13,50.12,21.17,100.16,7.47,142.51-13.68,42.3-48.88,70.46-102.56,84.27-52.87,13.49-124.23,12.64-191.46-10.49-67.23-23.03-114.08-65.24-127.37-116.82-14.14-51.31,5.28-112.01,51.16-165.82Z"/>
        <g>
          <rect class="cls-13" x="390.58" y="284.77" width="51.26" height="14.74"/>
          <rect class="cls-6" x="370.74" y="346.41" width="41.25" height="14.74"/>
          <rect class="cls-13" x="49.65" y="301.36" width="41.25" height="14.74"/>
          <rect class="cls-6" x="393.71" y="225.06" width="51.26" height="14.74"/>
          <rect class="cls-13" x="250.83" y="47.15" width="51.26" height="14.74" transform="translate(552.92 109.04) rotate(180)"/>
          <rect class="cls-13" x="361.65" y="210.66" width="51.26" height="14.74" transform="translate(774.55 436.07) rotate(180)"/>
          <rect class="cls-13" x="404.7" y="160.73" width="41.25" height="14.74"/>
        </g>
        <g>
          <rect class="cls-13" x="64.03" y="88.67" width="36.14" height="59.96"/>
          <rect class="cls-13" x="101.56" y="88.67" width="39.05" height="59.96"/>
          <rect class="cls-13" x="101.56" y="152.82" width="39.05" height="57.94"/>
          <polygon class="cls-13" points="145.61 87.63 186.73 87.63 186.73 34.44 188.11 34.44 188.11 87.63 221.58 87.63 221.58 33.26 145.61 33.26 145.61 87.63"/>
          <rect class="cls-13" x="188.12" y="88.67" width="33.46" height="59.96"/>
          <rect class="cls-13" x="188.12" y="152.82" width="33.46" height="57.94"/>
          <rect class="cls-13" x="64.03" y="152.82" width="36.14" height="57.94"/>
          <rect class="cls-13" x="145.61" y="152.82" width="41.12" height="57.94"/>
          <rect class="cls-13" x="64.03" y="211.8" width="36.14" height="52.21"/>
          <rect class="cls-13" x="188.12" y="211.8" width="33.46" height="52.21"/>
          <polygon class="cls-13" points="100.17 87.63 100.17 34.44 101.56 34.44 101.56 87.63 140.6 87.63 140.6 33.26 64.03 33.26 64.03 87.63 100.17 87.63"/>
          <rect class="cls-13" x="145.61" y="211.8" width="41.12" height="52.21"/>
          <rect class="cls-13" x="101.56" y="211.8" width="39.05" height="52.21"/>
          <rect class="cls-13" x="145.61" y="88.67" width="41.12" height="59.96"/>
        </g>
        <ellipse class="cls-7" cx="262.83" cy="477.3" rx="213.18" ry="25.66"/>
        <g>
          <rect class="cls-17" x="281.45" y="75.57" width="77.12" height="127.66"/>
          <rect class="cls-10" x="278.88" y="75.57" width="77.12" height="127.66"/>
          <rect class="cls-11" x="282.16" y="78.16" width="70.56" height="122.48"/>
          <rect class="cls-10" x="295.59" y="94.08" width="43.38" height="90.65"/>
          <path class="cls-17" d="M295.59,152.65c-.1-8.47,7.52-16.73,15.9-17.92,4.03-.56,8.24,.23,11.98-1.31,6.67-2.73,8.79-11.59,15.5-14.22l.31,65.52h-43.69v-32.08Z"/>
        </g>
        <g>
          <g>
            <path class="cls-19" d="M239.54,375.19c-3.24,16.19-17.16,85.01-20.32,100.27-.35,1.55,.63,3.09,2.18,3.44,.19,.04,.38,.07,.57,.07h0c1.29-.01,2.4-.88,2.72-2.13l27.47-100.92-12.62-.74Z"/>
            <path class="cls-9" d="M318.53,357.06c-7.1-13.17-15.54-53.38-19.26-66.21-.1-.36-.21-.71-.32-1.05-2.89-8.43-10.85-14.07-19.76-14h-21.42c-8.91-.07-16.86,5.57-19.75,14l-.33,1.05c-3.71,12.83-12.16,53-19.25,66.21,0,0-9.46,5.57-6.76,10.9,2.61,5.13,26.9,8.77,56.8,7.81,29.91,1,54.2-2.68,56.8-7.81,2.7-5.33-6.75-10.9-6.75-10.9Z"/>
            <path class="cls-12" d="M318.53,357.06c-7.1-13.17-15.54-53.38-19.26-66.21-.1-.36-.21-.71-.32-1.05-2.89-8.43-10.85-14.07-19.76-14h-21.42c-8.91-.07-16.86,5.57-19.75,14l-.33,1.05c-3.71,12.83-12.16,53-19.25,66.21,0,0-9.46,5.57-6.76,10.9,2.61,5.13,26.9,8.77,56.8,7.81,29.91,1,54.2-2.68,56.8-7.81,2.7-5.33-6.75-10.9-6.75-10.9Z"/>
            <path class="cls-19" d="M296.49,375.29c3.22,16.19,18.11,84.92,21.26,100.18,.35,1.55-.63,3.09-2.18,3.44-.19,.04-.38,.07-.57,.07h0c-1.29-.01-2.4-.88-2.72-2.13l-28.09-100.92,12.3-.65Z"/>
            <path class="cls-23" d="M265.35,357.2c-15.67,0-31.14,2.91-31.14,2.91-5.58,1.09-4.43,2.97-2.53,3.27,16.99,2.64,36.81,3.53,61.13,.97,1.83-.08,8.57,0,10.95-2.37,1.3-.35-4.92-4.78-38.42-4.78Z"/>
            <path class="cls-21" d="M313.55,364.35c-30.24,7.29-62.61,7.62-92.81,0,0,0,5.75,1.08,5.75,1.08,1.74,.35,4.04,.76,5.76,.97,26.9,4.07,54.61,3.14,81.3-2.05h0Z"/>
            <g>
              <path class="cls-19" d="M234.21,434.49c-.23,0-.45-.1-.6-.29-.25-.33-.19-.8,.14-1.05l62.28-47.73c.33-.25,.8-.19,1.05,.14,.25,.33,.19,.8-.14,1.05l-62.28,47.73c-.14,.1-.3,.15-.46,.15Z"/>
              <path class="cls-19" d="M302.2,433.29c-.16,0-.32-.05-.45-.15l-61.68-46.48c-.33-.25-.4-.72-.15-1.05,.25-.33,.72-.4,1.05-.15l61.68,46.48c.33,.25,.4,.72,.15,1.05-.15,.2-.37,.3-.6,.3Z"/>
            </g>
          </g>
          <g>
            <path class="cls-19" d="M105.92,375.19c-3.24,16.19-17.16,85.01-20.32,100.27-.35,1.55,.63,3.09,2.18,3.44,.19,.04,.38,.07,.57,.07h0c1.29-.01,2.4-.88,2.72-2.13l27.47-100.92-12.62-.74Z"/>
            <path class="cls-9" d="M184.91,357.06c-7.1-13.17-15.54-53.38-19.26-66.21-.1-.36-.21-.71-.32-1.05-2.89-8.43-10.85-14.07-19.76-14h-21.42c-8.91-.07-16.86,5.57-19.75,14l-.33,1.05c-3.71,12.83-12.16,53-19.25,66.21,0,0-9.46,5.57-6.76,10.9,2.61,5.13,26.9,8.77,56.8,7.81,29.91,1,54.2-2.68,56.8-7.81,2.7-5.33-6.75-10.9-6.75-10.9Z"/>
            <path class="cls-12" d="M184.91,357.06c-7.1-13.17-15.54-53.38-19.26-66.21-.1-.36-.21-.71-.32-1.05-2.89-8.43-10.85-14.07-19.76-14h-21.42c-8.91-.07-16.86,5.57-19.75,14l-.33,1.05c-3.71,12.83-12.16,53-19.25,66.21,0,0-9.46,5.57-6.76,10.9,2.61,5.13,26.9,8.77,56.8,7.81,29.91,1,54.2-2.68,56.8-7.81,2.7-5.33-6.75-10.9-6.75-10.9Z"/>
            <path class="cls-19" d="M162.87,375.29c3.22,16.19,18.11,84.92,21.26,100.18,.35,1.55-.63,3.09-2.18,3.44-.19,.04-.38,.07-.57,.07h0c-1.29-.01-2.4-.88-2.72-2.13l-28.09-100.92,12.3-.65Z"/>
            <path class="cls-23" d="M131.73,357.2c-15.67,0-31.14,2.91-31.14,2.91-5.58,1.09-4.43,2.97-2.53,3.27,16.99,2.64,36.81,3.53,61.13,.97,1.83-.08,8.57,0,10.95-2.37,1.3-.35-4.92-4.78-38.42-4.78Z"/>
            <path class="cls-21" d="M179.93,364.35c-30.24,7.29-62.61,7.62-92.81,0,0,0,5.75,1.08,5.75,1.08,1.74,.35,4.04,.76,5.76,.97,26.9,4.07,54.61,3.14,81.3-2.05h0Z"/>
            <g>
              <path class="cls-19" d="M100.59,434.49c-.23,0-.45-.1-.6-.29-.25-.33-.19-.8,.14-1.05l62.28-47.73c.33-.25,.8-.19,1.05,.14,.25,.33,.19,.8-.14,1.05l-62.28,47.73c-.14,.1-.3,.15-.46,.15Z"/>
              <path class="cls-19" d="M168.58,433.29c-.16,0-.32-.05-.45-.15l-61.68-46.48c-.33-.25-.4-.72-.15-1.05,.25-.33,.72-.4,1.05-.15l61.68,46.48c.33,.25,.4,.72,.15,1.05-.15,.2-.37,.3-.6,.3Z"/>
            </g>
          </g>
          <g>
            <path class="cls-18" d="M364.46,321.79l-2.63-15c-.41-2.33-1.79-4.36-3.82-5.58l-22.39-13.56c-1.91-1.17-4.13-1.71-6.37-1.57l-2.25,.14-5.4,.33-3.8,.24c.78,4.78,.81,8.82,.68,11.57l1.49-.24c4.08-.68,8.23,.69,11.1,3.65l1.75,1.8c1.1,1.13,2.4,2.05,3.83,2.69l.96,.44c1.68,.77,4.6,3.55,6.23,5.19,.77,.76,1.19,1.81,1.15,2.89l-.17,5.65c.01,.71,.6,1.29,1.32,1.29,.57,0,1.07-.38,1.24-.94l1.21-4.04c.44-1.47,.52-3.02,.25-4.54l-.71-3.8,3.08,6.02v7.18c0,.98,.76,1.81,1.74,1.88,1.04,.09,1.94-.67,2.04-1.7l-.13,2.18v.1c0,.95,.76,1.72,1.72,1.72,.76,0,1.44-.51,1.65-1.25l1.21-4.34,.67,2.55c.27,.98,1.16,1.66,2.14,1.66,.12,0,.25-.01,.37-.03,1.22-.19,2.05-1.35,1.84-2.58Zm-9.46-.07s0,.02-.01,.04l.35-5.93-.34,5.89Z"/>
            <path class="cls-18" d="M310.83,205.34c-1.18,1.11-4.04,3.2-7.19,5.43-.11,.07-.21,.15-.32,.22-5.46,3.82-11.67,7.92-11.67,7.92l.61,2.9h0s1.57,7.55,1.57,7.55c0,0-7.34-.82-15.2,1.93,0-1.52,.04-3.62,.13-5.93,.18-4.24,.55-9.19,1.37-12.52,.38-1.54,.85-2.75,1.44-3.36,3.27-3.42,8.94-5.14,13.57-6.26,.06,0,.13-.03,.19-.05,.92-.22,1.8-.42,2.61-.6,2.36-.54,4.09-.93,4.5-1.44,.73-.88-.49-1.05-1.79-1.26-.97-.15-1.99-.31-2.3-.79-.74-1.1,.54-3.08,4.31-2.86h0c.26,.02,.51,.05,.77,.11,1.17-.88,3.26-2,5.44-1.04,3.32,1.45,5.22,6.99,1.97,10.04Z"/>
            <polyline class="cls-3" points="354.98 321.76 355.34 315.84 353.66 308.11"/>
            <polyline class="cls-3" points="358.77 308.73 360.08 316.95 359.44 320.19"/>
            <path class="cls-18" d="M302.65,196.23c-3.78-.22-5.05,1.76-4.31,2.86,.31,.47,1.33,.64,2.3,.79-.76,.94-1.66,1.72-2.74,2.3-.76,.43-1.62,.77-2.58,1-.06,.02-.13,.03-.19,.04-9.53,2.16-19.01-4.43-23.89-8.62-2.13-1.84-3.38-3.22-3.38-3.22-3.01,1.43-7.88,.02-10.46-2.65-1.39-1.43-2.33-3.89-1.65-5.93,.17-.5,.44-.98,.82-1.42,3.95-4.48,10.94,.58,10.94,.58h.01c4.03-5.96,2.77-15.62,2.77-15.62,0,0,2.42-.48,9.72-6.5,10.47-8.65,18.14-4.01,18.14-4.01,.49,1.63,.95,3.26,1.39,4.89,.31,1.15,.62,2.29,.91,3.43,3.22,12.75,4.87,24.75,2.2,32.08Z"/>
            <path d="M300.45,164.16c-.7-2.76-1.47-5.54-2.29-8.32,0,0-7.68-4.64-18.14,4-7.3,6.03-9.72,6.5-9.72,6.5,0,0,1.26,9.67-2.78,15.63,0,0-6.99-5.07-10.94-.58-.38,.43-.65,.92-.82,1.41-4.31-1.01-4.7-7.05-4.7-7.05-3.03-3.29-6.06-4.97-6.94-9.39-.91-4.52-.86-10.17,6.77-13.05,0,0-3.14-11.98,11.28-13.27,0,0,10.63-16.1,25.68-5.69,0,0,5.89-1.34,9.45,2.3,4.86,4.97,3.87,14.05,3.87,14.05,0,0,3.87,7.92-.71,13.46Z"/>
            <path class="cls-18" d="M295.13,203.23c-4.62,1.12-10.29,2.84-13.57,6.26-.59,.61-1.06,1.81-1.44,3.36-10.67-4.77-9.02-10.41-8.89-10.81h0v-.02s0-7.42,0-7.42c4.87,4.2,14.35,10.78,23.89,8.63Z"/>
            <path class="cls-14" d="M295.13,203.22c-3.65,.89-7.95,2.15-11.21,4.32-6.85-1.95-10.88-5.75-12.68-7.85v-5.1c4.87,4.2,14.35,10.78,23.89,8.63Z"/>
            <path class="cls-11" d="M280.12,212.84c-.81,3.33-1.19,8.28-1.37,12.52-10.01-4.67-13.22-13.71-13.22-13.71,2.01-6.49,5.49-9.45,5.71-9.62-.13,.4-1.78,6.04,8.89,10.81Z"/>
            <path class="cls-8" d="M318.48,298.36c-.13,2.43-.38,3.85-.38,3.85l-51.04,11.64c-1.09,.25-2.19,.37-3.29,.37-2.25,0-4.48-.51-6.52-1.52-3.05-1.5-5.49-3.99-6.92-7.07l-21.64-46.81c-1.53-3.33-2.32-6.93-2.32-10.55,0-2.06,.26-4.13,.77-6.16,1.69-6.71,6.08-12.44,12.14-15.81l26.25-14.65s3.22,9.04,13.22,13.71c-.09,2.31-.13,4.41-.13,5.93-2.84,.99-5.74,2.45-8.4,4.59l8.08,46.72,38.63-.14c.36,1.5,.65,2.95,.87,4.34,.78,4.78,.8,8.82,.68,11.57Z"/>
            <path class="cls-8" d="M267.05,313.85l-6.41,1.99c-23.24,1.73-23.22,15.12-28.27,9.62-1.29-1.4,.41-28.5,.41-28.5,.06-4.73-.22-9.45-.85-14.14l-3.25-24,21.64,46.81c1.42,3.08,3.87,5.58,6.92,7.07,2.04,1.01,4.27,1.52,6.52,1.52,1.1,0,2.2-.12,3.29-.37Z"/>
            <path class="cls-23" d="M267.05,313.85l-6.41,1.99c-23.24,1.73-22.12,13.85-28.27,9.62-1.41-.97,.41-28.5,.41-28.5,.06-4.73-.22-9.45-.85-14.14l-3.25-24,21.64,46.81c1.42,3.08,3.87,5.58,6.92,7.07,2.04,1.01,4.27,1.52,6.52,1.52,1.1,0,2.2-.12,3.29-.37Z"/>
            <path class="cls-19" d="M351.64,425.01s-.72,.81-2.31,1.88c-2.95,2.02-8.91,4.95-18.83,5.32-1.74,.07-3.61,.06-5.59-.05l-8.05-30.47,4.01,52.44s-1.13,.49-3.06,1.1c-4.05,1.29-11.57,3.06-19.27,1.68-1.57-.28-3.15-.69-4.71-1.27l-14.82-88.22-27.56-4.28c-6.19-.96-12.84-3.75-16.61-11.77-2.64-5.65-3.86-13.89-2.46-25.92,0,0,5.03-7.89,28.27-9.62l6.41-1.98,5.19-1.19,45.85-10.46c9.48-.34,12.25,5.93,13.56,12.87l19.98,109.94Z"/>
            <path class="cls-11" d="M294.54,225.66l-2.28-3.84h0s-.61-2.91-.61-2.91c0,0,6.21-4.1,11.67-7.92,.13,1.66,.21,9.49-8.78,14.67Z"/>
            <path class="cls-8" d="M340.91,238.26c0,2.23-.34,4.47-1.02,6.64l-12.9,41.32-9.19,.57c-.22-1.39-.51-2.84-.87-4.34l-38.63,.14-8.08-46.72c2.65-2.14,5.56-3.6,8.4-4.59,7.86-2.76,15.2-1.93,15.2-1.93l-1.57-7.54,2.28,3.84c8.99-5.18,8.9-13,8.78-14.67,.11-.07,.21-.15,.32-.22l21.27,6.19c5.66,1.65,10.43,5.47,13.27,10.63,1.81,3.3,2.74,6.98,2.74,10.67Z"/>
            <g>
              <path class="cls-8" d="M383.06,438.99l-50.91,12.05c-.16-.32-.28-.67-.37-1.03-.8-3.07-1.21-6.23-1.21-9.4,0-1.67,.11-3.35,.34-5.01l.1-.8c5.56-.75,8.32,6.57,20.62,2.59,0,0-3.26-1.05-3.52-3.34-.27-2.29,2.75-4.68,2.75-4.68,0,0,17.77,3.05,23.76,3.5,3.21,.23,6.18,1.78,7.68,4.63,0,0,.42,.61,.77,1.49Z"/>
              <path class="cls-19" d="M380.93,444.46l-42.02,9.86c-2.79,.66-5.59-.77-6.76-3.27l50.91-12.05c.69,1.71,1.17,4.43-2.13,5.47Z"/>
              <path class="cls-18" d="M351.64,437.39c-12.3,3.98-15.06-3.34-20.62-2.59l-.52-2.59c9.92-.37,15.88-3.3,18.83-5.32l1.54,2.48s-3.01,2.39-2.75,4.68c.27,2.28,3.52,3.34,3.52,3.34Z"/>
            </g>
            <g>
              <path class="cls-19" d="M343.31,485.86c-.13,1.84-.92,4.49-4.34,3.94l-41.99-10.02c-2.78-.67-4.65-3.19-4.57-5.96l50.9,12.04Z"/>
              <path class="cls-8" d="M343.32,485.86h0l-50.9-12.04c0-.36,.04-.72,.12-1.08,.51-2.38,1.25-4.7,2.2-6.92,.95-2.22,2.12-4.36,3.49-6.36l.45-.67c5.83,3.68,5.13,9.31,17.27,11.55,0,0-2.43-2.4-1.66-4.56,.79-2.17,4.56-2.95,4.56-2.95,0,0,14.51,10.7,19.67,13.77,2.76,1.66,4.72,4.36,4.78,7.58,0,0,.09,.73,.02,1.67Z"/>
              <path class="cls-18" d="M315.95,470.35c-12.14-2.24-11.45-7.87-17.27-11.55l-.14-1.89c7.69,1.38,15.22-.39,19.27-1.68l1.04,7.61s-3.77,.78-4.56,2.95c-.78,2.16,1.66,4.56,1.66,4.56Z"/>
            </g>
            <g>
              <path class="cls-3" d="M295.13,203.23c.06,0,.13-.03,.19-.05,.92-.22,1.8-.42,2.61-.6,2.36-.54,4.09-.93,4.5-1.44,.73-.88-.49-1.05-1.79-1.26-.97-.15-1.99-.31-2.3-.79-.74-1.1,.54-3.08,4.31-2.86h0c.26,.02,.51,.05,.77,.11,1.17-.88,3.26-2,5.44-1.04,.64,.28,1.23,.71,1.74,1.25"/>
              <path class="cls-3" d="M303.42,196.35c1.1,.24,2.57,.67,3.33,1.5,.91,1,1.69,2.77,1.09,4.25-.52,1.29-4.39,3.53-4.39,3.53"/>
              <path class="cls-3" d="M295.32,203.18s-13.49,2.45-15.2,9.66"/>
            </g>
            <path class="cls-15" d="M299.54,160.72c-6.61-7.08-25.66,6.61-25.66,6.61-1.98,10.97-6.1,14.42-6.36,14.62,4.03-5.95,2.77-15.61,2.77-15.61,0,0,2.42-.48,9.72-6.5,10.47-8.65,18.14-4.01,18.14-4.01,.49,1.63,.95,3.26,1.39,4.89Z"/>
            <path class="cls-20" d="M320.87,454.13s-1.14,.5-3.06,1.1c-4.05,1.29-11.58,3.06-19.27,1.68-1.57-.28-3.15-.69-4.72-1.27l-14.81-88.23-3.47-20.67c-1.74-10.36,5.47-20.08,15.87-21.45,.82-.11,1.64-.16,2.44-.16,9.54,0,17.72,7.35,18.47,17.13l4.54,59.41v.02l4.01,52.43Z"/>
          </g>
          <g>
            <ellipse cx="296.85" cy="174.08" rx="1.72" ry="2.61" transform="translate(-35.2 83.72) rotate(-15.17)"/>
            <path d="M273.87,173.91s5.46-2.54,7.74-5.82l.57,.72s-1.87,5.26-8.31,5.1Z"/>
            <ellipse cx="283.25" cy="177.77" rx="1.72" ry="2.61" transform="translate(-36.64 80.29) rotate(-15.17)"/>
            <path d="M300.71,165.66s-5.89,1.24-9.68,0l-.13,.91s4.76,3.09,9.81-.91Z"/>
            <path class="cls-14" d="M290.05,177.9s1.43,3.91,5.11,5.58c.68,.31,.87,1.2,.31,1.7-.77,.69-2.03,1.46-4,1.77l1.98-2.12s-2.65-2.55-3.4-6.93Z"/>
            <path class="cls-14" d="M258.9,183.38s4.07-1.23,6.51,5.39c0,0-3.3-3.1-5.13-1.08,0,0-1.67-1.74,.35-2.13,2.03-.39-1.73-2.18-1.73-2.18Z"/>
            <path class="cls-2" d="M297.87,190.83c-3.56,.06-6.04,3.42-6.04,3.42"/>
          </g>
          <g>
            <rect class="cls-5" x="275.55" y="173.59" width="12.34" height="8.54" rx="1.84" ry="1.84" transform="translate(-39.76 90.38) rotate(-17.04)"/>
            <rect class="cls-5" x="291.12" y="168.81" width="12.34" height="8.54" rx="1.84" ry="1.84" transform="translate(-37.67 94.73) rotate(-17.04)"/>
            <path class="cls-5" d="M286.91,173.73s1.2-1.85,3.78-1.16"/>
            <line class="cls-5" x1="275.11" y1="177.34" x2="264.6" y2="179.95"/>
          </g>
          <path class="cls-20" d="M272.25,312.66c-25.21,7.72-40.43,20.16-37.41,38.71-2.64-5.65-3.86-13.89-2.46-25.92,0,0,5.03-7.89,28.27-9.62l6.41-1.98,5.19-1.19Z"/>
          <path class="cls-23" d="M303.92,258.82l1.04,10.99-11.63-42.26c1.28,.18,2.59,.44,3.92,.8l6.06,24.62,9.49-21.23-8.88,27.08Z"/>
          <path class="cls-23" d="M321.6,286.55l-3.8,.24s-.24-2.02-.87-4.34l-41.15,.15-14.65-39.04,12.88,29.34-6.95-38.31s.15-.12,.44-.33c1.29-.92,5.37-3.63,11.12-5.4v2.43c-6.17,1.99-8.88,4.75-8.88,4.75l8.04,43.69,41.93,.43s1.42,2.69,1.89,6.39Z"/>
          <g>
            <path class="cls-22" d="M268.13,158.1c-1.52-8.08,3.57-17.53,12.34-18.14,1.17-.06,2.34,.02,3.45,.35-1.14-.11-2.29-.08-3.39,.13-8.2,1.36-12.56,9.92-12.4,17.65h0Z"/>
            <path class="cls-22" d="M259.66,155.93c1.22-3.7,5.15-6.49,9.04-6.41-3.62,1.4-6.53,3.45-9.04,6.41h0Z"/>
            <path class="cls-22" d="M257.86,170.33c-.68-2.93,1.83-6.29,4.83-6.47-2.43,1.64-3.96,3.67-4.83,6.47h0Z"/>
            <path class="cls-22" d="M254.51,166.97c-1.59-2.05-.67-5.62,1.72-6.63-1.31,2.15-1.82,4.12-1.72,6.63h0Z"/>
            <path class="cls-22" d="M281.9,147.78c1.02-3.15,5.09-5.08,8.17-3.87-3.23,.34-5.86,1.57-8.17,3.87h0Z"/>
          </g>
        </g>
        <g>
          <path class="cls-11" d="M237.63,182.47l-8.63-15.64c12.26-19.48,6.41-45.2-13.07-57.46-19.48-12.26-45.2-6.41-57.46,13.07-12.26,19.48-6.41,45.2,13.07,57.46,14.68,9.24,33.55,8.42,47.37-2.06h0l18.72,4.63Z"/>
          <g>
            <path class="cls-8" d="M180.08,123.84h.06c2.64,0,5.03,.28,7.18,.85,2.15,.57,4,1.45,5.57,2.65,1.56,1.2,2.77,2.72,3.62,4.56,.85,1.85,1.28,4.07,1.28,6.66v.06c0,2.19-.42,4.08-1.25,5.66-.83,1.58-1.88,2.88-3.13,3.89-1.26,1.01-2.6,1.76-4.02,2.25-1.42,.49-2.72,.73-3.89,.73h-.85v2.86h-8.82v-9.31h2.19c1.01,0,2.15-.08,3.41-.24,1.26-.16,2.43-.47,3.53-.91,1.1-.45,2.02-1.06,2.77-1.86,.75-.79,1.13-1.81,1.13-3.07v-.06c0-1.13-.25-2.09-.76-2.86-.51-.77-1.18-1.39-2.01-1.86-.83-.47-1.79-.8-2.86-1-1.08-.2-2.18-.3-3.32-.3h-.06c-2.03,0-3.81,.24-5.35,.73-1.54,.49-3,1.18-4.38,2.07l-4.81-7.36c1.95-1.3,4.09-2.31,6.42-3.04,2.33-.73,5.12-1.09,8.36-1.09Zm.06,33.21c1.7,0,3.07,.5,4.11,1.49,1.03,.99,1.55,2.2,1.55,3.62s-.52,2.69-1.55,3.68-2.4,1.49-4.11,1.49-3.07-.5-4.11-1.49c-1.03-.99-1.55-2.22-1.55-3.68s.52-2.62,1.55-3.62c1.03-.99,2.4-1.49,4.11-1.49Z"/>
            <path class="cls-8" d="M203.93,162.16c0-1.42,.52-2.62,1.55-3.62,1.03-.99,2.4-1.49,4.11-1.49s3.07,.5,4.11,1.49c1.03,.99,1.55,2.2,1.55,3.62s-.52,2.69-1.55,3.68-2.4,1.49-4.11,1.49-3.07-.5-4.11-1.49-1.55-2.22-1.55-3.68Zm10.1-37.59v10.1l-.73,18.98h-7.48l-.73-18.98v-10.1h8.94Z"/>
          </g>
        </g>
        <g>
          <g>
            <circle class="cls-16" cx="411.7" cy="78.1" r="42.49"/>
            <circle class="cls-8" cx="414.71" cy="78.1" r="42.49"/>
            <circle class="cls-11" cx="414.71" cy="78.1" r="37.51"/>
          </g>
          <polyline class="cls-4" points="414.71 58.16 414.71 78.1 425.29 78.1"/>
          <g>
            <g>
              <line class="cls-4" x1="414.71" y1="44.16" x2="414.71" y2="47.18"/>
              <line class="cls-4" x1="414.71" y1="109.02" x2="414.71" y2="112.04"/>
            </g>
            <g>
              <line class="cls-4" x1="438.71" y1="54.1" x2="436.57" y2="56.24"/>
              <line class="cls-4" x1="392.85" y1="99.96" x2="390.71" y2="102.1"/>
            </g>
            <g>
              <line class="cls-4" x1="448.65" y1="78.1" x2="445.62" y2="78.1"/>
              <line class="cls-4" x1="383.79" y1="78.1" x2="380.76" y2="78.1"/>
            </g>
            <g>
              <line class="cls-4" x1="438.71" y1="102.1" x2="436.57" y2="99.96"/>
              <line class="cls-4" x1="392.85" y1="56.24" x2="390.71" y2="54.1"/>
            </g>
          </g>
          <g>
            <g>
              <line class="cls-1" x1="402.07" y1="46.6" x2="403.2" y2="49.41"/>
              <line class="cls-1" x1="426.22" y1="106.79" x2="427.35" y2="109.6"/>
            </g>
            <g>
              <line class="cls-1" x1="428.05" y1="46.89" x2="426.86" y2="49.67"/>
              <line class="cls-1" x1="402.56" y1="106.53" x2="401.37" y2="109.31"/>
            </g>
            <g>
              <line class="cls-1" x1="446.21" y1="65.46" x2="443.4" y2="66.59"/>
              <line class="cls-1" x1="386.01" y1="89.61" x2="383.2" y2="90.74"/>
            </g>
            <g>
              <line class="cls-1" x1="445.92" y1="91.44" x2="443.14" y2="90.25"/>
              <line class="cls-1" x1="386.28" y1="65.95" x2="383.49" y2="64.76"/>
            </g>
          </g>
        </g>
      </g>
    </g>
  </g>
</svg>