<?xml version="1.0" encoding="UTF-8"?>
<svg xmlns="http://www.w3.org/2000/svg" xmlns:xlink="http://www.w3.org/1999/xlink" viewBox="0 0 512 512">
  <defs>
    <style>
      .cls-1, .cls-2 {
        fill: none;
      }

      .cls-2 {
        stroke: #f26945;
        stroke-linecap: round;
        stroke-linejoin: round;
      }

      .cls-3 {
        clip-path: url(#clippath);
      }

      .cls-4 {
        fill: #f3f3f3;
      }

      .cls-5 {
        fill: #00ca5e;
      }

      .cls-6, .cls-7 {
        fill: #f26945;
      }

      .cls-8, .cls-9 {
        fill: #fff;
      }

      .cls-10 {
        fill: #ffc780;
      }

      .cls-11 {
        fill: #e4e4e4;
      }

      .cls-12 {
        fill: #d0d0d0;
      }

      .cls-13 {
        fill: #242424;
      }

      .cls-14, .cls-15 {
        fill: #132d28;
      }

      .cls-16 {
        fill: #4a342e;
      }

      .cls-9 {
        font-family: Organetto-Bold, Organetto;
        font-size: 27.73px;
        font-weight: 700;
      }

      .cls-15 {
        mix-blend-mode: multiply;
      }

      .cls-15, .cls-7 {
        opacity: .5;
      }

      .cls-17 {
        fill: #002b13;
        opacity: .2;
      }

      .cls-18 {
        isolation: isolate;
      }
    </style>
    <clipPath id="clippath">
      <path class="cls-1" d="M414.57-431.89c45.91-53.87,56.22-125.65,108.26-137.68,52.88-12.3,165.37,13.12,200.42,47.72,34.99,34.6,54,31.41,68.94,81.21,14.13,50.12,6.32,175.25-7.39,217.61-13.68,42.3-48.88,70.46-102.56,84.27-52.87,13.49-124.23,12.64-191.46-10.49-67.23-23.03-114.08-65.24-127.37-116.82-14.14-51.31,5.28-112.01,51.16-165.82Z"/>
    </clipPath>
  </defs>
  <g class="cls-18">
    <g id="Layer_1" data-name="Layer 1">
      <g id="_5_-_No_messages" data-name="5 - No messages">
        <path class="cls-4" d="M437.73,275.6c-28.63,60.04-74.43,107.12-118.76,130.66-45.03,23.99-88.58,24.43-128.79,1.51-40.16-22.93-72.25-62.87-97.88-104.46-24.98-42.08-43.5-85.8-41.33-127.57,2.16-41.72,27.29-75.82,72.68-101.37,44.73-25.07,109.72-41.59,176.36-36.89,66.62,4.61,119.38,31.57,143.96,75.18,25.27,43.16,22.36,102.97-6.25,162.95Z"/>
        <ellipse class="cls-4" cx="267.53" cy="431.1" rx="193.67" ry="52.82"/>
        <g>
          <rect class="cls-11" x="71.4" y="28.08" width="230.29" height="288.37"/>
          <rect class="cls-8" x="77.16" y="33.83" width="218.77" height="276.84"/>
          <polygon class="cls-11" points="142.96 132 142.96 310.69 77.23 310.69 77.23 132 84.66 132 97.38 109.97 108.76 90.27 108.76 53.92 111.43 53.92 111.43 90.27 122.81 109.97 135.53 132 142.96 132"/>
          <rect class="cls-8" x="84.65" y="142.89" width="10.2" height="4.78"/>
          <rect class="cls-8" x="105" y="142.89" width="10.2" height="4.78"/>
          <rect class="cls-8" x="125.33" y="142.89" width="10.2" height="4.78"/>
          <rect class="cls-8" x="84.65" y="154.73" width="10.2" height="4.78"/>
          <rect class="cls-8" x="105" y="154.73" width="10.2" height="4.78"/>
          <rect class="cls-8" x="125.33" y="154.73" width="10.2" height="4.78"/>
          <rect class="cls-8" x="84.65" y="166.56" width="10.2" height="4.78"/>
          <rect class="cls-8" x="105" y="166.56" width="10.2" height="4.78"/>
          <rect class="cls-8" x="125.33" y="166.56" width="10.2" height="4.78"/>
          <rect class="cls-8" x="84.65" y="178.39" width="10.2" height="4.78"/>
          <rect class="cls-8" x="105" y="178.39" width="10.2" height="4.78"/>
          <rect class="cls-8" x="125.33" y="178.39" width="10.2" height="4.78"/>
          <rect class="cls-8" x="84.65" y="190.22" width="10.2" height="4.78"/>
          <rect class="cls-8" x="105" y="190.22" width="10.2" height="4.78"/>
          <rect class="cls-8" x="125.33" y="190.22" width="10.2" height="4.78"/>
          <rect class="cls-8" x="84.65" y="202.06" width="10.2" height="4.78"/>
          <rect class="cls-8" x="105" y="202.06" width="10.2" height="4.78"/>
          <rect class="cls-8" x="125.33" y="202.06" width="10.2" height="4.78"/>
          <rect class="cls-8" x="84.65" y="213.88" width="10.2" height="4.78"/>
          <rect class="cls-8" x="105" y="213.88" width="10.2" height="4.78"/>
          <rect class="cls-8" x="125.33" y="213.88" width="10.2" height="4.78"/>
          <rect class="cls-8" x="84.65" y="225.72" width="10.2" height="4.78"/>
          <rect class="cls-8" x="105" y="225.72" width="10.2" height="4.78"/>
          <rect class="cls-8" x="125.33" y="225.72" width="10.2" height="4.78"/>
          <rect class="cls-8" x="84.65" y="237.56" width="10.2" height="4.78"/>
          <rect class="cls-8" x="105" y="237.56" width="10.2" height="4.78"/>
          <rect class="cls-8" x="125.33" y="237.56" width="10.2" height="4.78"/>
          <rect class="cls-8" x="84.65" y="249.38" width="10.2" height="4.78"/>
          <rect class="cls-8" x="105" y="249.38" width="10.2" height="4.78"/>
          <rect class="cls-8" x="125.33" y="249.38" width="10.2" height="4.78"/>
          <rect class="cls-8" x="84.65" y="261.22" width="10.2" height="4.78"/>
          <rect class="cls-8" x="105" y="261.22" width="10.2" height="4.78"/>
          <rect class="cls-8" x="125.33" y="261.22" width="10.2" height="4.78"/>
          <rect class="cls-8" x="84.65" y="273.06" width="10.2" height="4.78"/>
          <rect class="cls-8" x="105" y="273.06" width="10.2" height="4.78"/>
          <rect class="cls-8" x="125.33" y="273.06" width="10.2" height="4.78"/>
          <polygon class="cls-11" points="220.78 94.92 220.78 310.69 147.25 310.69 147.25 94.92 152.48 94.92 152.48 51.54 204.87 75.28 204.87 33.84 207.56 33.84 207.56 76.5 213.18 79.03 213.18 94.92 220.78 94.92"/>
          <rect class="cls-8" x="158.58" y="108.38" width="10.2" height="4.78"/>
          <rect class="cls-8" x="178.92" y="108.38" width="10.2" height="4.78"/>
          <rect class="cls-8" x="199.27" y="108.38" width="10.2" height="4.78"/>
          <rect class="cls-8" x="158.58" y="120.21" width="10.2" height="4.78"/>
          <rect class="cls-8" x="178.92" y="120.21" width="10.2" height="4.78"/>
          <rect class="cls-8" x="199.27" y="120.21" width="10.2" height="4.78"/>
          <rect class="cls-8" x="158.58" y="132.04" width="10.2" height="4.78"/>
          <rect class="cls-8" x="178.92" y="132.04" width="10.2" height="4.78"/>
          <rect class="cls-8" x="199.27" y="132.04" width="10.2" height="4.78"/>
          <rect class="cls-8" x="158.58" y="143.88" width="10.2" height="4.78"/>
          <rect class="cls-8" x="178.92" y="143.88" width="10.2" height="4.78"/>
          <rect class="cls-8" x="199.27" y="143.88" width="10.2" height="4.78"/>
          <rect class="cls-8" x="158.58" y="155.72" width="10.2" height="4.78"/>
          <rect class="cls-8" x="178.92" y="155.72" width="10.2" height="4.78"/>
          <rect class="cls-8" x="199.27" y="155.72" width="10.2" height="4.78"/>
          <rect class="cls-8" x="158.58" y="167.54" width="10.2" height="4.78"/>
          <rect class="cls-8" x="178.92" y="167.54" width="10.2" height="4.78"/>
          <rect class="cls-8" x="199.27" y="167.54" width="10.2" height="4.78"/>
          <rect class="cls-8" x="158.58" y="179.38" width="10.2" height="4.78"/>
          <rect class="cls-8" x="178.92" y="179.38" width="10.2" height="4.78"/>
          <rect class="cls-8" x="199.27" y="179.38" width="10.2" height="4.78"/>
          <rect class="cls-8" x="158.58" y="191.22" width="10.2" height="4.78"/>
          <rect class="cls-8" x="178.92" y="191.22" width="10.2" height="4.78"/>
          <rect class="cls-8" x="199.27" y="191.22" width="10.2" height="4.78"/>
          <rect class="cls-8" x="158.58" y="203.04" width="10.2" height="4.78"/>
          <rect class="cls-8" x="178.92" y="203.04" width="10.2" height="4.78"/>
          <rect class="cls-8" x="199.27" y="203.04" width="10.2" height="4.78"/>
          <rect class="cls-8" x="158.58" y="214.88" width="10.2" height="4.78"/>
          <rect class="cls-8" x="178.92" y="214.88" width="10.2" height="4.78"/>
          <rect class="cls-8" x="199.27" y="214.88" width="10.2" height="4.78"/>
          <rect class="cls-8" x="158.58" y="226.72" width="10.2" height="4.78"/>
          <rect class="cls-8" x="178.92" y="226.72" width="10.2" height="4.78"/>
          <rect class="cls-8" x="199.27" y="226.72" width="10.2" height="4.78"/>
          <rect class="cls-8" x="158.58" y="238.54" width="10.2" height="4.78"/>
          <rect class="cls-8" x="178.92" y="238.54" width="10.2" height="4.78"/>
          <rect class="cls-8" x="199.27" y="238.54" width="10.2" height="4.78"/>
          <rect class="cls-8" x="158.58" y="249.15" width="10.2" height="4.78"/>
          <rect class="cls-8" x="178.92" y="249.15" width="10.2" height="4.78"/>
          <rect class="cls-8" x="199.27" y="249.15" width="10.2" height="4.78"/>
          <rect class="cls-8" x="158.58" y="260.98" width="10.2" height="4.78"/>
          <rect class="cls-8" x="178.92" y="260.98" width="10.2" height="4.78"/>
          <rect class="cls-8" x="199.27" y="260.98" width="10.2" height="4.78"/>
          <polygon class="cls-11" points="295.93 142.9 295.93 310.69 225.49 310.69 225.49 142.9 230.67 142.9 230.67 137.17 233.06 137.17 233.06 135.5 240.18 135.5 240.18 137.17 247.9 137.17 247.9 135.5 255.01 135.5 255.01 137.17 257.24 137.17 257.24 142.9 275.59 142.9 275.59 137.24 291.43 137.24 291.43 142.9 295.93 142.9"/>
          <rect class="cls-8" x="235.83" y="157.12" width="10.2" height="4.78"/>
          <rect class="cls-8" x="256.18" y="157.12" width="10.2" height="4.78"/>
          <rect class="cls-8" x="276.51" y="157.12" width="10.2" height="4.78"/>
          <rect class="cls-8" x="235.83" y="168.95" width="10.2" height="4.78"/>
          <rect class="cls-8" x="256.18" y="168.95" width="10.2" height="4.78"/>
          <rect class="cls-8" x="276.51" y="168.95" width="10.2" height="4.78"/>
          <rect class="cls-8" x="235.83" y="180.78" width="10.2" height="4.78"/>
          <rect class="cls-8" x="256.18" y="180.78" width="10.2" height="4.78"/>
          <rect class="cls-8" x="276.51" y="180.78" width="10.2" height="4.78"/>
          <rect class="cls-8" x="235.83" y="192.61" width="10.2" height="4.78"/>
          <rect class="cls-8" x="256.18" y="192.61" width="10.2" height="4.78"/>
          <rect class="cls-8" x="276.51" y="192.61" width="10.2" height="4.78"/>
          <rect class="cls-8" x="235.83" y="204.45" width="10.2" height="4.78"/>
          <rect class="cls-8" x="256.18" y="204.45" width="10.2" height="4.78"/>
          <rect class="cls-8" x="276.51" y="204.45" width="10.2" height="4.78"/>
          <rect class="cls-8" x="235.83" y="216.28" width="10.2" height="4.78"/>
          <rect class="cls-8" x="256.18" y="216.28" width="10.2" height="4.78"/>
          <rect class="cls-8" x="276.51" y="216.28" width="10.2" height="4.78"/>
          <rect class="cls-8" x="235.83" y="228.11" width="10.2" height="4.78"/>
          <rect class="cls-8" x="256.18" y="228.11" width="10.2" height="4.78"/>
          <rect class="cls-8" x="276.51" y="228.11" width="10.2" height="4.78"/>
          <rect class="cls-8" x="235.83" y="239.95" width="10.2" height="4.78"/>
          <rect class="cls-8" x="256.18" y="239.95" width="10.2" height="4.78"/>
          <rect class="cls-8" x="276.51" y="239.95" width="10.2" height="4.78"/>
          <rect class="cls-8" x="235.83" y="251.77" width="10.2" height="4.78"/>
          <rect class="cls-8" x="256.18" y="251.77" width="10.2" height="4.78"/>
          <rect class="cls-8" x="276.51" y="251.77" width="10.2" height="4.78"/>
          <rect class="cls-8" x="235.83" y="263.61" width="10.2" height="4.78"/>
          <rect class="cls-8" x="256.18" y="263.61" width="10.2" height="4.78"/>
          <rect class="cls-8" x="276.51" y="263.61" width="10.2" height="4.78"/>
          <rect class="cls-8" x="235.83" y="275.45" width="10.2" height="4.78"/>
          <rect class="cls-8" x="256.18" y="275.45" width="10.2" height="4.78"/>
          <rect class="cls-8" x="276.51" y="275.45" width="10.2" height="4.78"/>
          <rect class="cls-8" x="235.83" y="287.29" width="10.2" height="4.78"/>
          <rect class="cls-8" x="256.18" y="287.29" width="10.2" height="4.78"/>
          <rect class="cls-8" x="276.51" y="287.29" width="10.2" height="4.78"/>
        </g>
        <g>
          <path class="cls-11" d="M387.25,386.92l1.64,13.85h0l.11,.89h0c.32,2.61,2.53,4.57,5.15,4.57h34.58c2.63,0,4.84-1.97,5.14-4.58l.14-1.14,.12-1.03,.41-3.56,.12-1.08,.08-.7,.11-.92,.95-8.24,.11-.91,1.87-16.26h0l.11-.95,.88-7.62c0-2.71-54.79-2.71-54.79,0l.64,5.42,.11,.88,1.18,9.93,.09,.87,.77,6.48,.11,.94,.28,2.41,.09,.76Z"/>
          <path class="cls-12" d="M436.03,360.25c0,.7-11.19,1.29-24.99,1.29s-25-.58-25-1.29,11.19-1.36,25-1.36,24.99,.64,24.99,1.36Z"/>
          <path class="cls-11" d="M412.75,339.18s-7.68,1.21-18.02-11.11l7.01,.65-10.16-4.8c-10.69-16.04-8.52-43.66-8.52-43.66,5.76,5.1,10.86,10.88,15.2,17.22l1.83,9.89,.95-5.61c5.62,9.27,12.41,24.58,11.72,37.41Z"/>
          <path class="cls-11" d="M411.76,309.53s7.75-.58,15.01-14.91l-6.68,2.22,8.81-6.99c6.78-18.06-1.68-44.45-1.68-44.45-4.43,6.28-8.07,13.08-10.84,20.24l.49,10.05-2.21-5.24c-3.37,10.31-6.5,26.74-2.9,39.07Z"/>
          <path class="cls-11" d="M412.03,352.24s7.55,1.87,18.97-9.49h-7.03l10.54-3.89c12.05-15.05,12.3-42.74,12.3-42.74-6.18,4.57-11.77,9.89-16.65,15.83l-2.71,9.7-.46-5.66c-6.42,8.79-14.53,23.4-14.96,36.25Z"/>
          <path class="cls-12" d="M410.04,360.51h2.26c2.91-20.62,2.49-41.58-1.25-62.06-1.48-8.7-3.83-17.23-7.02-25.46-.23-.57-.88-.84-1.45-.6,0,0,0,0-.01,0-.57,.24-.83,.89-.6,1.46,3.1,8.08,5.4,16.45,6.87,24.99,3.71,20.36,4.12,41.18,1.19,61.67Z"/>
        </g>
        <g>
          <path class="cls-10" d="M219.39,204.3c-.08,.81-.16,1.67-.26,2.6-.21,1.98-.48,4.21-.84,6.61-2.29,15.06-8.03,36.16-22.26,36.9v7.03s7.23,14.89-6,22.46c-16.24,9.27-36.59-9.9-26.96-26.88l5.3-25.77c-7.93-2.26-8.48-12.63-5.96-16.48,.16-.24,.34-.47,.53-.66,3.57-3.63,9.42-1.32,10.85,3.9,.23-.13,.46-.27,.69-.42,4.13-2.67,6.9-7.36,7.18-12.27,.18-3.01-.51-6.01-.44-9.03,.07-3.02,1.14-6.31,3.78-7.77,1.69-.93,3.77-.95,5.63-.42,1.85,.53,3.52,1.56,5.11,2.65,5.15,3.55,9.71,7.88,14.64,11.72,2.83,2.19,5.81,4.25,9,5.84h0Z"/>
          <path class="cls-10" d="M350.25,268.23l-4.01,18.25s2.32,6.88-.08,12.51c-1.48,3.49-3.46,7.7-6.19,10.48-1.68,1.72-3.66,2.88-6,3.02-3.32,.18-5.85-1.11-7.48-2.32,.27-.28,.47-.64,.55-1.04v-.05c.08-.3,.08-.59,0-.87,.15-.34,.31-.68,.47-1.02-1.07-1.86-.85-3.85-.61-4.91-.92-.35-1.94-.43-2.94-.23l-3.09,.61c-.96,.19-1.89-.44-2.06-1.4,0-.02,0-.05,0-.07l11.71-2.96c.36-.09,.69-.25,.96-.48h0c.62-.47,1-1.22,1-2.03,0-.03,0-.06,0-.08v-.03s0-.32-.05-.43c-.27-1.29-1.48-2.18-2.81-2.04l-10.15,1.1c.05-1.83,.86-2.76,1.63-3.24,0,0,.02,0,.03,0l1.32-.47h.02s.02,0,.02,0c.02,0,.03,0,.03,0l3.26-1.16c1.17-.41,1.91-1.5,1.91-2.69,0-.28-.05-.56-.13-.85-.07-.2-.14-.39-.25-.56-.31-.54-.79-.97-1.34-1.2,1.85-.4,5.44-1.17,6.7-1.35,1.85-.26,3.79,.26,5.42,1.03l1.52-3.21,.02-.04,2.89-6.16-.44-.37,2.74-7.31c.55-1.48,2.21-2.23,3.68-1.65,1.13,.42,1.83,1.49,1.83,2.65,0,.21-.02,.41-.07,.62Z"/>
          <polygon points="318.34 278.76 294.62 325.89 309.5 285.92 314.64 275.71 318.34 278.76"/>
          <path class="cls-14" d="M342.49,274.29l-2.89,6.16-.02,.04-1.52,3.21c-1.64-.77-3.57-1.3-5.42-1.03-1.26,.18-4.85,.95-6.7,1.35,.55,.23,1.03,.66,1.34,1.2,.11,.17,.19,.37,.25,.56,.08,.28,.13,.56,.13,.85,0,1.18-.74,2.27-1.91,2.69l-3.26,1.16s0,0-.03,0h-.04s-1.32,.48-1.32,.48c0,0-.02,0-.03,0-.77,.48-1.58,1.41-1.63,3.24l10.15-1.1c1.33-.14,2.54,.75,2.81,2.04l.05,.43v.03s0,.06,0,.08c0,.81-.38,1.56-1,2.02h0c-.27,.23-.6,.39-.96,.49l-11.71,2.96s0,.05,0,.07c.17,.96,1.1,1.59,2.06,1.4l3.09-.61c1.01-.2,2.02-.11,2.94,.23-.23,1.05-.46,3.04,.61,4.91-.16,.35-.32,.69-.47,1.02-.39,.82-.76,1.62-1.12,2.37-2.24,4.73-4,8.21-4.42,8.34l-26.89,6.98,3.14-6.24,12.29-24.4,.22-.44h0l3.87-7.71,4.2-8.33,23.52-4.36h0l.62-.11Z"/>
          <path d="M242.38,187.42c-.65,2.78-2.78,5.05-5.25,6.48s-5.28,2.17-8.05,2.88c3.22,1.48,5.37,5.15,4.81,8.65-.64,3.99-4.41,6.91-8.34,7.82-2.37,.54-4.81,.52-7.24,.25,.53-3.51,.87-6.69,1.1-9.21-3.19-1.59-6.18-3.65-9.01-5.84-4.93-3.83-9.49-8.17-14.64-11.72-1.59-1.09-3.26-2.12-5.11-2.65-1.86-.53-3.94-.51-5.63,.42-2.64,1.46-3.71,4.75-3.78,7.77-.07,3.02,.62,6.02,.44,9.03-.3,5.19-3.36,10.12-7.87,12.7-1.44-5.22-7.28-7.53-10.85-3.9-.19,.19-.37,.41-.53,.66-4.86-4.33-8.02-10.53-8.63-17.03-.37-4,.23-8.18,2.23-11.67,1.99-3.5,5.47-6.23,9.44-6.84,3.97-.61,8.34,1.16,10.37,4.62,1.59-6.95,6.81-12.98,13.48-15.51,6.67-2.55,14.57-1.53,20.39,2.6,3.35,2.39,5.94,5.66,8.96,8.43,3.04,2.77,6.79,5.15,10.9,5.06,3.26-.08,6.68-1.66,9.64-.29,2.59,1.19,3.8,4.48,3.16,7.27Z"/>
          <path class="cls-6" d="M196.03,256.39c-16.71-2.96-18.98-15.72-18.98-15.72,3,5.34,11.22,9,16.2,9.63,.96,.12,1.89,.15,2.78,.11v5.98Z"/>
          <path class="cls-5" d="M278.59,303.37l-.03,.03-5.59,5.56c-1.66-.96-2.76-1.32-2.76-1.32l-38.24,21.75-4.39-2.96-10.21-6.89-.45,18.26-55.91-43.07c-4.15-3.2-9.09-4.77-14-4.77-5.95,0-11.86,2.3-16.32,6.8-9.6,9.69-8.69,25.57,1.96,34.09l54.19,43.37c6.4,5.11,14.31,7.86,22.43,7.86,1.32,0,2.65-.07,3.97-.22,.86-.1,1.72-.23,2.57-.39l-.25,10.4c-16.71,5.88-32.85,13.29-42.34,20.65-23.45,18.21-31.4,40.17-31.4,40.17,0,0-6.65,2.24-12.54-5.72-8.67-11.74-6.62-56.33-6.62-56.33l-6.92-75.58c-.87-12.42,4.01-24.56,13.25-32.92l34.07-29.14c-9.63,16.97,10.72,36.15,26.96,26.88,13.22-7.56,6-22.46,6-22.46l13.24,4.25c8.56,2.74,16.58,6.95,23.69,12.44l38.34,29.58,7.29-.34Z"/>
          <path class="cls-5" d="M339.96,309.46c-.74,5.34-4.39,9.94-9.62,11.81l-10.24,3.66-34.67,12.4-9.25,3.31c-1.3,.46-2.6,.86-3.93,1.16l14.8-11.83c-.45-2.18-1.04-4.16-1.73-5.96,.72-.07,1.44-.16,2.15-.29,0,0,.03,0,.04,0,.37-.06,.72-.13,1.08-.21,.36-.08,.71-.16,1.06-.25,.44-.12,.87-.24,1.31-.39l3.66,3.02,26.89-6.98,3.83-8.15c.21-.04,.4-.1,.58-.2,.21-.1,.39-.23,.55-.4,1.63,1.21,4.16,2.5,7.48,2.32,2.34-.13,4.31-1.3,6-3.02Z"/>
          <path class="cls-17" d="M222.2,322.81s1.55-11.89,0-22.97c-2.35-16.83-11.34-29.94-11.34-29.94l3.84,17.21c2.09,9.33,3.02,18.89,2.78,28.45l-.1,3.99,4.82,3.25Z"/>
          <path class="cls-14" d="M313.08,431.53s-2.21,9.29-9.21,16.44c-.88,.9-1.84,1.78-2.88,2.58-1.01,.79-2.1,1.51-3.26,2.17l-43.67-15.4-58.86,25.64c-14.88,6.48-32.04,4.75-45.31-4.59l-8.04-5.66s7.94-21.96,31.4-40.17c9.49-7.37,25.63-14.77,42.34-20.65,24.57-8.64,50.36-13.99,58.04-11.11,12.9,4.86,39.47,50.74,39.47,50.74Z"/>
          <polygon class="cls-15" points="262.73 440.37 274.3 428.49 254.06 437.32 262.73 440.37"/>
          <path class="cls-15" d="M274.19,416.32c5.27-21.26-3.63-31.29-3.63-31.29,0,0,12.31,3.99,12.26,17.39-.04,10.17-8.63,13.91-8.63,13.91Z"/>
          <path class="cls-14" d="M366.19,403.66c-.7,2.41-1.79,4.55-3.15,6.47-5.6,7.88-15.7,11.8-20.9,13.38-2.01,.6-3.29,.86-3.29,.86l-50.37-52.26-9.23,5.38-5.65,3.3c-7.66-2.88-33.35,2.45-57.88,11.05-.06,.02-.1,.04-.16,.06l.15-6.01,.1-4.39h0s.09-.03,.14-.04c5.71-1.08,11.11-3.55,15.69-7.21l40.59-32.44c1.32-.3,2.63-.7,3.93-1.16l43.91-15.71,46.1,78.72Z"/>
          <path class="cls-17" d="M278.57,303.4l-5.59,5.56c-1.66-.96-2.76-1.32-2.76-1.32l-38.24,21.75-4.39-2.96,43.71-22.73,7.26-.31Z"/>
          <path class="cls-17" d="M217.09,331.89l-1.36,60.5c-.57,.03-1.16,.04-1.75,.04-9.4,0-18.61-3.22-25.94-9.09l-54.19-43.37c-6.32-5.06-10.22-12.6-10.69-20.68-.46-8.09,2.54-16.03,8.24-21.78,5.42-5.46,12.64-8.48,20.33-8.48,6.37,0,12.4,2.06,17.45,5.95l47.91,36.91h0Z"/>
          <path class="cls-10" d="M332.47,295.71c0,.81-.38,1.56-1,2.02h0c-.27,.23-.6,.39-.96,.49l-11.71,2.96-1.7,.43-6.5,1.64,14.9,3.4c.57,.13,1.04,.5,1.32,.98,.1,.18,.18,.37,.23,.56,.07,.28,.07,.57,0,.87v.05c-.09,.4-.29,.76-.56,1.04-.16,.17-.35,.3-.55,.4-.18,.09-.38,.16-.58,.2-.14,.03-.28,.04-.42,.03-3.09-.09-9.58-.28-13.6-.4-2.2-.06-4.31,.79-5.86,2.34l-3.35,3.38c-1.33,1.34-2.79,2.53-4.35,3.54-2.1,1.39-4.4,2.48-6.79,3.22-.43,.14-.86,.26-1.31,.39-.35,.09-.7,.18-1.06,.25-.36,.08-.71,.15-1.08,.21,0,0-.03,0-.04,0-.71,.13-1.43,.23-2.15,.29-3.33-8.74-8.98-13.12-12.35-15.05l5.59-5.56,.03-.03,8.82-8.78c1.61-1.6,3.52-2.84,5.64-3.65l12.34-4.71c1.33-.52,2.76-.61,4.11-.32,1.19,.25,2.31,.81,3.26,1.63l1.38-.45,9.78-3.18c.69-.23,1.4-.17,2.01,.1,.55,.23,1.03,.66,1.34,1.2,.11,.17,.19,.37,.25,.56,.08,.28,.13,.56,.13,.85,0,1.18-.74,2.27-1.91,2.69l-3.26,1.16s0,0-.03,0h-.04s-1.32,.48-1.32,.48c0,0-.02,0-.03,0l-10.81,3.82h0l-1.69,.6,1.48-.16,9.41-1.02,10.15-1.1c1.33-.14,2.54,.75,2.81,2.04,.02,.08,.03,.15,.04,.23,0,.07,0,.14,0,.21v.03s0,.06,0,.08Z"/>
          <path class="cls-5" d="M287.05,329.98l-14.8,11.83-40.59,32.44c-4.62,3.68-10.06,6.16-15.83,7.24h0c-.86,.17-1.71,.29-2.57,.39-1.32,.15-2.66,.22-3.97,.22-8.12,0-16.03-2.74-22.43-7.86l-54.19-43.37c-10.66-8.52-11.57-24.4-1.96-34.09,4.46-4.5,10.37-6.8,16.32-6.8,4.91,0,9.85,1.57,14,4.77l55.91,43.07,.11,.08,14.93-8.49,38.24-21.75s1.1,.36,2.76,1.32c3.36,1.94,9.02,6.31,12.35,15.05,.69,1.79,1.28,3.78,1.73,5.96Z"/>
          <polygon points="342.49 274.29 341.87 274.4 341.86 274.4 318.34 278.76 314.64 275.71 338.79 271.24 342.05 273.92 342.49 274.29"/>
          <polygon class="cls-15" points="288.49 372.1 292.82 376.6 300.26 365.23 288.49 372.1 288.49 372.1"/>
          <path d="M297.75,319.65l-3.14,6.24-3.66-3.02c2.4-.74,4.69-1.83,6.79-3.22Z"/>
          <path class="cls-14" d="M325.34,310.76l-3.83,8.15-26.89,6.98,3.14-6.24c1.56-1.01,3.02-2.2,4.35-3.54l3.35-3.38c1.55-1.55,3.66-2.4,5.86-2.34,4.01,.12,10.51,.31,13.6,.4,.14,0,.28,0,.42-.03Z"/>
          <path class="cls-5" d="M411.08,413.48l-48.53,34.98c-1.6-6.15-7.57-9.6-14.15-11.53-.38-3.31,.5-5.84,.5-5.84,5.69-1.63,12.61,.49,17.29-.3,10.89-1.83,11.3-8.95,11.3-8.95-7.56-1.71-5.38-5.36-2.88-7.73,8.67-1.8,26.72-5.27,31.04-3.82,2.37,.79,4.13,1.98,5.42,3.19Z"/>
          <path class="cls-15" d="M279.26,377.49l-5.65,3.3c-7.66-2.88-33.35,2.45-57.88,11.05-.06,.02-.1,.04-.16,.06l.15-6.01c20.42-7.03,40.61-11.52,51.87-11.52,3.33,0,5.95,.38,8,1.15,1.17,.44,2.39,1.11,3.66,1.98Z"/>
          <path class="cls-10" d="M377.5,421.85s-.41,7.11-11.3,8.95c-4.68,.79-11.61-1.32-17.29,.3l-6.76-7.59c5.2-1.58,15.3-5.5,20.9-13.38,1.48,1.66,3.77,3.72,6.89,5,0,0,1.84-.41,4.69-1.01-2.51,2.38-4.69,6.02,2.88,7.73Z"/>
          <path class="cls-14" d="M411.66,419.76l-48.87,34.5c.05-.28,.08-.57,.11-.86,.18-1.81,.05-3.44-.35-4.92h0s48.53-34.99,48.53-34.99c.47,.43,.88,.86,1.23,1.29,1.28,1.54,.99,3.84-.65,5Z"/>
          <path class="cls-15" d="M411.66,419.76l-48.87,34.5c.05-.28,.08-.57,.11-.86,.18-1.81,.05-3.44-.35-4.92h0s48.53-34.99,48.53-34.99c.47,.43,.88,.86,1.23,1.29,1.28,1.54,.99,3.84-.65,5Z"/>
          <path class="cls-10" d="M326.72,438.21s-4.69-3.46-7.5-2.85c-5.08,1.12-8.17,8-6.29,13.09,1.44,3.9,8.02,3.21,8.02,3.21,0,0-1.48,3.68-6.63,2.4-3.36-.84-7.78-4-10.45-6.1,7-7.14,9.21-16.44,9.21-16.44,0,0,11.52,1.95,14.47,3.04,0,0,1.6,2.33-.83,3.64Z"/>
          <path class="cls-5" d="M357.47,453.31c-1.27,8-11.79,10.65-18.71,11.52h0c-12.58-1.45-27.44-7.11-37.77-14.28,1.04-.81,2-1.68,2.88-2.58,2.67,2.1,7.09,5.26,10.45,6.1,5.15,1.29,6.63-2.4,6.63-2.4,0,0-6.58,.69-8.02-3.21-1.88-5.09,1.2-11.97,6.29-13.09,2.81-.61,7.5,2.85,7.5,2.85,2.42-1.31,.83-3.64,.83-3.64,0,0,8.12-.37,16.59,1.32,0,0,.02,0,.02,0,1.01,.42,2.88,1.25,4.42,2.14,4.24,2.46,10.14,7.38,8.89,15.26Z"/>
          <path class="cls-14" d="M362.9,453.39c-.03,.29-.07,.58-.11,.86h0c-1.48,9.34-11.64,12-24.03,10.57,6.92-.87,17.44-3.52,18.71-11.52,1.25-7.88-4.65-12.8-8.89-15.26-1.54-.89-3.4-1.72-4.42-2.14,1.41,.27,2.84,.62,4.24,1.02,6.58,1.93,12.55,5.37,14.15,11.53h0c.39,1.49,.53,3.12,.35,4.93Z"/>
          <g>
            <path class="cls-2" d="M312.76,287.55l11.16-3.63c.69-.23,1.4-.17,2.01,.1,.55,.23,1.03,.66,1.34,1.2,.11,.17,.19,.37,.25,.56,.08,.28,.13,.56,.13,.85,0,1.18-.74,2.27-1.91,2.69l-3.33,1.17-13.86,4.91,21.03-2.28c1.33-.14,2.54,.75,2.81,2.04,.02,.08,.03,.15,.04,.23,0,.07,0,.14,0,.21v.03s0,.06,0,.08c0,.81-.38,1.56-1,2.02h0c-.27,.23-.6,.39-.96,.49l-19.91,5.04,14.9,3.4c.57,.13,1.04,.5,1.32,.98,.1,.18,.18,.37,.23,.56,.07,.28,.07,.57,0,.87v.05c-.09,.4-.29,.76-.56,1.04-.16,.17-.35,.3-.55,.4-.18,.09-.38,.16-.58,.2-.14,.03-.28,.04-.42,.03"/>
            <line class="cls-2" x1="312.76" y1="287.55" x2="300.12" y2="291.66"/>
            <path class="cls-2" d="M338.06,283.71c1.87,.88,3.35,2.08,3.88,2.79l3.01,4.1"/>
            <path class="cls-2" d="M322.43,290.5l9.32-1.44c2.21-.34,4.49,.34,6.05,1.94,.18,.18,.33,.36,.45,.52l3.01,4.11"/>
            <path class="cls-2" d="M332.44,295.33c1.3,.3,2.13,1.23,2.76,2.08l3.01,4.11"/>
            <path class="cls-2" d="M326.9,302.26c.6,.23,1.81,1.11,2.5,1.89l2.31,3.16"/>
          </g>
          <path class="cls-17" d="M291.73,332.32l-6.31,5.03-9.25,3.31c-1.3,.46-2.6,.86-3.93,1.16l14.8-11.83c-.45-2.18-1.04-4.16-1.73-5.96,1.48-.14,2.92-.39,4.33-.76,.92,2.79,2.08,6.72,2.08,9.06Z"/>
          <g>
            <ellipse cx="209.38" cy="218.51" rx="3.23" ry="2.13" transform="translate(-27.13 407.32) rotate(-84.82)"/>
            <path d="M183.73,208.43s7.43-.61,11.48-3.42l.36,1.08s-4.44,5.3-11.84,2.34Z"/>
            <ellipse cx="192.95" cy="216.93" rx="3.23" ry="2.13" transform="translate(-40.51 389.52) rotate(-84.82)"/>
            <path d="M217.48,210.4s-7.37-1.09-11.23-4.17l-.55,1s4.2,5.64,11.78,3.17Z"/>
            <path class="cls-6" d="M200.79,220.02s-.02,5.15,3.53,8.67c.66,.65,.49,1.77-.37,2.11-1.19,.47-2.99,.83-5.41,.33l3.21-1.61s-1.98-4.1-.96-9.51Z"/>
            <path class="cls-6" d="M164.55,212.5s6.41,.39,6.39,11.06c0,0-3.05-6.13-6.7-4.23,0,0-1.46-3.35,1.62-2.83,3.08,.52-1.31-4-1.31-4Z"/>
            <path d="M201.75,237.26s-.54-.12-1.3-.18c-.77-.07-1.79-.1-2.79,0-1.01,.08-2,.29-2.72,.5-.71,.24-1.18,.4-1.18,.4-.22,.07-.33,.3-.26,.52,.06,.19,.25,.3,.44,.28h.06s.46-.07,1.14-.16c.69-.06,1.6-.08,2.51,.02,.91,.09,1.79,.29,2.43,.48,.65,.19,.99,.35,1.03,.35,.6,.18,1.24-.17,1.42-.77,.18-.6-.17-1.24-.77-1.42Z"/>
          </g>
          <path class="cls-16" d="M226.91,206.99c-2.65-.38-5.25-1.17-7.74-2.24l.45-.89c2.27,1.33,4.71,2.43,7.29,3.13,0,0-2.58-.71,0,0Z"/>
          <g>
            <path class="cls-16" d="M187.69,177.04c10.21-3.56,18.16,6.36,27.13,9.17,5.58,1.73,11.68,1.34,17.07-1.03-1.71,.98-3.58,1.68-5.5,2.18-17.73,4.42-24.3-13.43-38.7-10.32h0Z"/>
            <path class="cls-16" d="M194.95,182.53c14.06,1.14,21.97,16.1,35.68,18.27-1.7-.05-3.38-.4-5.02-.9-11.4-3.66-18.66-15.12-30.66-17.37h0Z"/>
            <path class="cls-16" d="M185.34,172.41c7.06-2.81,15.51-1.39,21.51,3.2,0,0,1.35,1.1,1.35,1.1l1.23,1.23c.38,.44,.75,.88,1.11,1.32-.74-.66-1.84-1.58-2.65-2.17-6.41-4.68-14.79-6.42-22.55-4.68h0Z"/>
          </g>
          <path class="cls-7" d="M219.39,204.3s-9.98-1.59-24.44-12.69c-1.26-.97-3.81-3.04-5.57-3.34-3.64-.63-5.68,2.67-5.65,11.77,.04,10.11-9.93,13.98-9.93,13.98,.23-.13,.46-.27,.69-.42,4.13-2.67,6.9-7.36,7.18-12.27,.18-3.01-.51-6.01-.44-9.03,.07-3.02,1.14-6.31,3.78-7.77,1.69-.93,3.77-.95,5.63-.42,1.85,.53,3.52,1.56,5.11,2.65,5.15,3.55,9.71,7.88,14.64,11.72,2.83,2.19,5.81,4.25,9,5.84h0Z"/>
        </g>
        <g>
          <path class="cls-8" d="M294.18,183.36c0-30.55,24.77-55.32,55.32-55.32,30.55,0,55.32,24.77,55.32,55.32s-23.85,54.37-53.62,55.28l-17.4,17.19v-19.42c-22.9-6.77-39.62-27.95-39.62-53.05Z"/>
          <g>
            <circle class="cls-5" cx="370.3" cy="184.22" r="5.1"/>
            <circle class="cls-5" cx="349.5" cy="184.22" r="5.1"/>
            <circle class="cls-5" cx="328.7" cy="184.22" r="5.1"/>
          </g>
          <circle class="cls-5" cx="396.04" cy="153.45" r="18.48"/>
          <text class="cls-9" transform="translate(385.91 163.95)"><tspan x="0" y="0">0</tspan></text>
        </g>
      </g>
      <g id="_3_-_no_creators_found" data-name="3 - no creators found">
        <g class="cls-3">
          <g>
            <path class="cls-13" d="M502.25,15.15s-2.57,27.18-2.68,29.04c-.12,1.87,1.63,4.32,4.67,4.32h56.91c2.92,0,2.05-3.07,1.75-4.32-1.15-4.73-5.34-7.59-6.98-9.11s-25.91-12.59-25.91-12.59l-1.75-7.35h-26.01Z"/>
            <path class="cls-14" d="M504.53-267.3l1.22,.46-3.86,30.75V-118.93l-3.86,136.85s16.89,2.96,34.62,0l41.99-234.82v-49.94l-70.11-.46Z"/>
          </g>
        </g>
      </g>
    </g>
  </g>
</svg>